<svg xmlns="http://www.w3.org/2000/svg" width="403" height="360" viewBox="0 0 403 360" fill="none"><mask id="mask0_6791_36449" style="mask-type:luminance" maskUnits="userSpaceOnUse" x="0" y="0" width="403" height="360"><path d="M403 0H0V359.532H403V0Z" fill="white"></path></mask><g mask="url(#mask0_6791_36449)"><path d="M319.182 159.016C319.406 155.375 319.625 151.735 319.838 148.097V148.079C320.025 148.086 320.213 148.064 320.394 148.013C321.223 147.754 321.69 146.892 322.002 146.075C322.982 143.481 323.231 140.674 323.325 137.894C323.385 135.997 323.377 134.054 322.773 132.256C322.09 130.208 319.16 126.309 317.134 129.389C316.685 130.208 316.421 131.115 316.36 132.046C316.181 133.417 316.032 134.812 315.961 136.211C315.785 133.943 315.397 131.648 314.22 129.713C313.492 128.512 312.188 127.395 310.815 127.701C310.398 127.822 310.015 128.035 309.693 128.325C309.371 128.615 309.119 128.974 308.955 129.375C308.642 130.181 308.456 131.031 308.405 131.894C308.296 132.945 308.201 134.009 308.14 135.079L307.797 135.064C306.822 134.182 306.036 133.11 305.488 131.915C304.94 130.72 304.641 129.425 304.61 128.11C304.583 126.635 304.562 125.155 304.535 123.68H304.649C311.18 112.738 317.939 101.942 324.924 91.2894L296.388 74.8497L377.55 29.1445L382.741 128.946L354.151 110.108L320.312 170.697L320.192 170.694C320.227 169.853 320.262 169.007 320.285 168.16C320.387 165.195 320.453 162.23 320.513 159.266L319.173 159.194C319.178 159.134 319.182 159.075 319.182 159.016Z" fill="url(#paint0_linear_6791_36449)"></path><path d="M377.446 330.328C378.47 339.392 376.49 348.546 373.641 357.21L373.637 357.312C351.761 356.42 329.887 355.532 308.014 354.648L308.03 354.288C308.981 352.551 309.424 350.582 309.309 348.606C309.194 346.629 308.525 344.725 307.379 343.111C305.056 339.936 301.513 338.185 297.672 338.979C298.054 338.076 298.39 337.159 298.679 336.227C300.273 331.171 300.691 325.83 300.904 320.535C301.211 312.779 300.779 304.188 295.432 298.554C291.487 294.401 285.553 292.596 279.83 292.394C277.611 292.327 275.389 292.414 273.182 292.655L273.144 292.273L276.856 263.652C286.829 256.797 298.549 253.584 310.54 255.225C322.549 256.863 333.913 264.018 339.654 274.693C345.276 285.147 345.035 298.528 339.034 308.78C345.602 302.443 356.697 302.358 364.363 307.304C372.028 312.25 376.422 321.264 377.446 330.328Z" fill="#007456"></path><path d="M346.148 244.165L343.145 246.451L343.325 250.214L340.222 248.07L336.699 249.408L337.783 245.797L335.419 242.856L339.192 242.766L341.258 239.613L342.508 243.172L346.148 244.165Z" fill="url(#paint1_linear_6791_36449)"></path><path d="M297.481 135.047C297.447 135.906 297.406 136.77 297.371 137.629C296.991 137.829 296.612 138.035 296.239 138.247C295.806 138.491 295.38 138.74 294.959 139.002C295.705 137.626 296.548 136.304 297.481 135.047Z" fill="#171717"></path><path d="M294.346 157.295L294.336 157.415C294.251 161.093 294.147 164.808 293.924 168.519C293.297 178.651 291.721 188.691 286.816 197.461C282.956 204.367 277.239 210.057 270.312 213.885C263.385 217.715 255.525 219.531 247.619 219.129C247.777 218.735 247.865 218.317 247.879 217.894C247.97 216.86 248.061 215.832 248.152 214.799C248.215 214.108 248.243 213.328 247.788 212.804C247.277 212.228 246.389 212.218 245.621 212.252L240.749 212.487V212.481C240.839 210.238 241.455 208.049 242.546 206.088C243.638 204.127 245.175 202.45 247.033 201.191L247.07 201.226C246.988 201.306 246.911 201.386 246.829 201.459C251.317 198.205 256.418 193.334 259.016 188.191C260.333 188.809 261.644 189.426 262.951 190.041C265.807 185.143 268.713 180.88 272.204 176.004C277.976 165.678 284.373 156.539 290.16 146.688L290.375 146.643C290.747 148.056 291.385 149.386 292.257 150.559C293.872 152.954 295.684 155.211 297.673 157.306L297.659 157.522C296.552 157.449 295.451 157.372 294.346 157.295Z" fill="url(#paint2_linear_6791_36449)"></path><path d="M297.674 338.982C297.126 340.299 296.478 341.573 295.736 342.792C294.248 345.285 292.277 347.455 289.937 349.177C289.495 349.499 289.039 349.797 288.577 350.071C285.581 351.883 282.189 352.882 278.673 353.464C276.039 353.876 273.384 354.139 270.721 354.253C253.926 355.155 235.559 354.503 216.615 353.516L216.58 353.33C217.884 353.11 219.069 352.687 219.547 351.819C219.951 351.09 219.688 349.812 219.401 348.775C219.29 348.352 219.174 347.964 219.101 347.672C218.543 345.502 216.909 343.583 214.839 342.243C213.759 341.557 212.607 340.992 211.404 340.557L211.45 340.436C218.677 331.098 223.627 316.557 231.914 308.143C233.076 306.965 235.238 305.495 238.097 303.933C244.137 300.725 250.474 298.111 257.019 296.128C262.282 294.456 267.695 293.294 273.181 292.661C275.388 292.419 277.61 292.332 279.83 292.399C285.553 292.601 291.487 294.406 295.432 298.559C300.779 304.192 301.21 312.783 300.903 320.541C300.691 325.835 300.27 331.177 298.679 336.233C298.389 337.161 298.055 338.08 297.674 338.982Z" fill="#555555"></path><path d="M257.851 168.53C261.652 173.459 262.04 180.462 259.854 186.287C259.611 186.936 259.33 187.571 259.014 188.189C256.416 193.331 251.316 198.201 246.828 201.457C246.91 201.384 246.986 201.304 247.068 201.224C250.523 197.908 252.367 193.153 252.879 188.385C253.406 183.503 252.63 178.578 251.521 173.799L251.515 173.787C251.658 173.73 251.801 173.666 251.943 173.605C254.35 172.544 256.898 170.832 257.704 168.48L257.851 168.53Z" fill="#171717"></path><path d="M229.869 176.4L229.784 176.882C231.053 188.027 229.465 202.667 215.614 205.909C215.881 208.478 216.019 211.059 216.027 213.643C216.022 215.369 215.835 217.09 215.47 218.777C215.044 220.711 214.294 222.559 213.251 224.243C209.77 229.881 203.846 234.139 197.255 234.868C193.495 235.287 189.597 234.6 185.768 234.074C181.211 233.456 176.744 233.063 172.695 235.037C168.842 236.916 166.295 240.547 164.141 244.332C163.685 245.134 163.246 245.948 162.814 246.749C158.735 254.337 154.651 261.927 150.564 269.519L150.558 269.513C147.864 263.074 146.488 256.162 146.512 249.183C146.536 242.203 147.959 235.3 150.697 228.88C153.436 222.461 157.434 216.654 162.456 211.805C167.478 206.955 173.421 203.161 179.935 200.646C182.112 199.786 184.346 199.079 186.621 198.53C187.384 198.339 188.155 198.172 188.926 198.023C191.215 197.582 193.649 197.24 195.478 195.79C197.854 193.902 198.562 190.658 199.276 187.704C201.024 180.492 203.776 173.407 208.307 167.518C208.902 166.745 209.534 165.985 210.196 165.257C214.548 160.47 220.234 156.835 226.574 155.644C234.804 154.099 243.216 156.718 250.968 159.881C254.22 161.206 257.947 163.366 257.972 166.88C257.977 167.425 257.888 167.967 257.707 168.481C256.901 170.832 254.353 172.544 251.946 173.606C251.803 173.669 251.661 173.732 251.518 173.788C244.689 176.666 237.188 177.571 229.869 176.4Z" fill="#171717"></path><path d="M202.194 299.757C205.61 301.468 208.347 303.039 211.002 304.239C217.411 307.143 223.351 307.935 237.26 303.522L237.949 303.5L238.097 303.929C235.239 305.492 233.075 306.962 231.913 308.139C223.625 316.552 218.677 331.093 211.449 340.432L211.403 340.553C211.3 340.513 211.198 340.474 211.095 340.439C208.844 339.681 206.53 339.125 204.18 338.776C200.889 338.157 197.538 337.904 194.19 338.021C190.82 338.21 187.412 338.999 184.61 340.646C181.808 342.292 179.681 344.833 179.287 347.609L178.564 347.511C165.131 341.56 165.915 341.147 154.809 331.528C151.241 328.434 147.912 324.989 145.565 320.89C143.929 318.095 142.892 314.992 142.517 311.776C142.352 310.292 142.372 308.794 142.579 307.316C143.236 303.226 145.201 299.46 148.18 296.581C150.196 294.566 152.563 292.938 155.166 291.777C158.65 290.27 162.391 289.441 166.186 289.336C168.237 289.26 170.291 289.341 172.331 289.577C173.444 289.709 174.557 289.875 175.655 290.085C180.709 291.041 185.582 292.737 190.381 294.627C191.023 294.883 191.671 295.138 192.313 295.394C193.354 295.821 194.395 296.242 195.432 296.668C197.99 297.721 200.204 298.764 202.194 299.757Z" fill="#555555"></path><path d="M210.126 165.201L210.193 165.259C209.532 165.987 208.9 166.746 208.305 167.521C203.773 173.41 201.019 180.494 199.274 187.707C198.56 190.662 197.852 193.904 195.475 195.792C193.647 197.243 191.212 197.584 188.923 198.025C188.153 198.174 187.382 198.341 186.618 198.532L186.566 198.305L172.76 191.733L172.714 191.776C163.146 180.648 152.645 170.482 141.138 161.759L141.456 161.344C144.123 156.846 146.787 152.351 149.45 147.858C150.942 145.347 152.434 142.833 153.926 140.315C154.163 139.913 154.401 139.512 154.638 139.111C173.15 147.623 191.945 156.201 210.126 165.201Z" fill="url(#paint3_linear_6791_36449)"></path><path d="M166.181 289.289V289.337C162.385 289.442 158.645 290.27 155.161 291.777C152.558 292.938 150.191 294.567 148.176 296.581L147.876 296.042C142.192 289.26 136.458 282.524 130.676 275.836C131.297 270.886 131.917 265.938 132.535 260.992C143.687 272.312 155.854 282.382 166.181 289.289Z" fill="#007456"></path><path d="M156.559 107.314L152.099 111.857L153.319 118.103L147.615 115.268L142.042 118.355L142.982 112.06L138.324 107.72L144.602 106.662L147.294 100.893L150.24 106.537L156.559 107.314Z" fill="#007456"></path><path d="M147.878 296.046L148.178 296.585C145.199 299.464 143.234 303.23 142.577 307.319C142.37 308.797 142.349 310.294 142.515 311.777L141.832 311.852C131.631 311.911 121.073 309.16 112.511 305.992C107.813 304.269 103.241 302.221 98.8286 299.861L98.3423 299.56L112.294 276.877L112.446 276.968C118.517 276.593 124.588 276.212 130.661 275.945C130.667 275.909 130.671 275.873 130.677 275.836C136.462 282.529 142.196 289.265 147.878 296.046Z" fill="#007456"></path><path d="M132.536 260.992C131.915 265.936 131.295 270.884 130.677 275.836C127.253 271.882 123.814 267.946 120.362 264.028L120.246 263.959L126.078 254.478L126.237 254.33C128.285 256.588 130.385 258.809 132.536 260.992Z" fill="#007456"></path><path d="M130.677 275.836C130.671 275.872 130.666 275.908 130.662 275.945C124.588 276.212 118.518 276.593 112.447 276.969L112.295 276.878L120.247 263.961L120.362 264.031C123.817 267.946 127.255 271.882 130.677 275.836Z" fill="#007456"></path><path d="M96.3953 237.491C97.6671 235.334 98.933 233.178 100.193 231.024C101.517 228.764 102.838 226.507 104.155 224.255L104.464 224.104C109.488 234.044 117.312 244.497 126.24 254.333L126.08 254.481L120.246 263.961L112.294 276.878L98.3424 299.561L67.3137 349.992V350.058C54.5807 350.126 41.886 350.203 29.2295 350.289V350.205C43.2143 326.454 57.6499 302.496 71.9803 278.556C80.1837 264.848 88.3585 251.147 96.3953 237.491Z" fill="url(#paint4_linear_6791_36449)"></path><path d="M100.193 231.022C98.9329 233.173 97.667 235.329 96.3947 237.488C88.3575 251.144 80.2191 264.832 71.9793 278.553L71.7785 278.432C68.5945 274.9 65.7398 271.084 63.2499 267.034C42.8681 234.416 34.3869 179.467 33.9365 171.674C50.3375 175.58 66.4179 180.725 82.0383 187.066C86.2232 188.765 90.3738 190.552 94.4899 192.427C96.0541 201.214 98.4898 209.823 101.761 218.128C102.536 220.09 103.437 222.081 104.462 224.101L104.153 224.252C102.84 226.506 101.52 228.762 100.193 231.022Z" fill="#007456"></path><path d="M224.724 175.202C226.409 175.717 228.129 176.115 229.869 176.394V176.4C237.188 177.572 244.688 176.667 251.517 173.789C251.66 173.732 251.803 173.668 251.945 173.607C254.352 172.546 256.9 170.834 257.706 168.482C257.887 167.968 257.976 167.426 257.971 166.881C257.946 163.367 254.219 161.207 250.967 159.882C243.215 156.72 234.802 154.102 226.573 155.645C220.233 156.836 214.546 160.469 210.195 165.258C209.533 165.986 208.902 166.744 208.307 167.519C203.775 173.409 201.021 180.493 199.275 187.705C198.561 190.66 197.853 193.902 195.477 195.791C193.648 197.241 191.213 197.583 188.925 198.024C188.154 198.173 187.383 198.34 186.62 198.531C184.345 199.081 182.111 199.788 179.934 200.647C173.42 203.162 167.477 206.956 162.455 211.806C157.433 216.655 153.434 222.461 150.696 228.882C147.957 235.301 146.534 242.205 146.51 249.184C146.486 256.163 147.862 263.076 150.556 269.514" stroke="#171717" stroke-width="1.4" stroke-linecap="round" stroke-linejoin="round"></path><path d="M257.851 168.535C261.652 173.465 262.04 180.468 259.854 186.292C259.611 186.942 259.33 187.577 259.014 188.194C256.416 193.337 251.316 198.207 246.828 201.463" stroke="#171717" stroke-width="1.4" stroke-linecap="round" stroke-linejoin="round"></path><path d="M151 269.651C151.103 269.463 151.205 269.269 151.302 269.081C155.342 261.514 159.381 253.951 163.417 246.392C163.844 245.594 164.278 244.783 164.729 243.984C166.859 240.212 169.379 236.592 173.19 234.721C177.193 232.755 181.612 233.146 186.119 233.761C189.906 234.286 193.761 234.97 197.479 234.553C203.998 233.827 209.857 229.583 213.3 223.965C214.331 222.287 215.072 220.446 215.494 218.519C215.856 216.838 216.041 215.123 216.045 213.403C216.037 210.829 215.901 208.256 215.637 205.696C229.335 202.466 230.904 187.877 229.651 176.771" stroke="#171717" stroke-width="1.4" stroke-linecap="round" stroke-linejoin="round"></path><path d="M246.829 201.461C246.911 201.387 246.987 201.308 247.069 201.228C250.524 197.912 252.368 193.157 252.88 188.389C253.407 183.507 252.631 178.582 251.522 173.803" stroke="#171717" stroke-width="1.4" stroke-linecap="round" stroke-linejoin="round"></path><path d="M248.717 182.789C248.521 182.393 248.224 182.055 247.855 181.812C247.486 181.568 247.059 181.427 246.618 181.402C246.176 181.378 245.736 181.471 245.343 181.673C244.949 181.874 244.617 182.177 244.379 182.55" stroke="#171717" stroke-width="1.4" stroke-linecap="round" stroke-linejoin="round"></path><path d="M236.68 182.801C236.537 182.444 236.295 182.136 235.981 181.914C235.667 181.692 235.296 181.566 234.911 181.551C234.517 181.513 234.119 181.584 233.762 181.754C233.404 181.925 233.099 182.19 232.88 182.52" stroke="#171717" stroke-width="1.4" stroke-linecap="round" stroke-linejoin="round"></path><path d="M241.754 188.811C241.795 188.933 241.861 189.046 241.949 189.14C242.037 189.235 242.145 189.309 242.265 189.357C242.501 189.471 242.755 189.526 242.993 189.64C243.252 189.764 243.476 189.949 243.646 190.179C243.816 190.408 243.927 190.677 243.97 190.96C244.013 191.243 243.985 191.532 243.89 191.801C243.795 192.071 243.636 192.314 243.425 192.508C243.215 192.702 242.96 192.841 242.683 192.914C242.407 192.987 242.116 192.991 241.837 192.926C241.559 192.861 241.3 192.729 241.085 192.54C240.869 192.352 240.703 192.114 240.6 191.847" stroke="#171717" stroke-width="1.4" stroke-linecap="round" stroke-linejoin="round"></path><path d="M237.195 199.011C236.999 199.27 236.734 199.469 236.429 199.585C236.126 199.701 235.795 199.729 235.476 199.667C234.834 199.529 234.269 199.151 233.898 198.61C233.533 198.074 233.279 197.471 233.15 196.836" stroke="#171717" stroke-width="1.4" stroke-linecap="round" stroke-linejoin="round"></path><path d="M247.034 201.189C245.175 202.449 243.638 204.126 242.547 206.087C241.456 208.048 240.84 210.237 240.75 212.479" stroke="#171717" stroke-width="1.4" stroke-linecap="round" stroke-linejoin="round"></path><path d="M216.602 213.651C224.647 213.267 232.696 212.88 240.749 212.488L245.622 212.254C246.389 212.218 247.278 212.229 247.789 212.805C248.244 213.329 248.214 214.11 248.153 214.801C248.062 215.834 247.971 216.862 247.88 217.895C247.865 218.319 247.777 218.737 247.619 219.13C247.546 219.296 247.441 219.445 247.311 219.569C246.829 220.03 246.081 220.029 245.412 220.002C235.52 219.617 225.627 219.229 215.734 218.84" stroke="#171717" stroke-width="1.4" stroke-linecap="round" stroke-linejoin="round"></path><path d="M247.307 219.115C247.409 219.119 247.518 219.128 247.62 219.132C255.525 219.534 263.386 217.717 270.312 213.889C277.239 210.06 282.956 204.371 286.817 197.464C291.722 188.694 293.299 178.654 293.925 168.522C294.148 164.811 294.251 161.096 294.337 157.418" stroke="#171717" stroke-width="1.4" stroke-linecap="round" stroke-linejoin="round"></path><path d="M279.048 246.84C287.29 246.692 293.901 241.687 299.508 235.648C308.716 225.744 314.146 212.812 316.99 199.596C319.029 190.103 319.814 180.412 320.192 170.693C320.228 169.852 320.262 169.006 320.286 168.16C320.388 165.194 320.454 162.23 320.514 159.266" stroke="#171717" stroke-width="1.4" stroke-linecap="round" stroke-linejoin="round"></path><path d="M294.28 157.289C294.304 157.289 294.322 157.294 294.346 157.294C295.452 157.371 296.553 157.448 297.658 157.521C304.829 158.022 312.003 158.52 319.182 159.015C319.608 159.041 320.029 159.074 320.457 159.1" stroke="#171717" stroke-width="1.4" stroke-linecap="round" stroke-linejoin="round"></path><path d="M186.63 233.463C186.34 233.661 186.051 233.866 185.767 234.075C178.379 239.428 172.461 246.909 169.351 255.465C169.078 256.203 168.83 256.946 168.609 257.695C165.682 267.471 167.326 280.659 172.327 289.581C172.352 289.626 172.377 289.675 172.402 289.723" stroke="#171717" stroke-width="1.4" stroke-linecap="round" stroke-linejoin="round"></path><path d="M297.673 157.304C295.684 155.209 293.873 152.952 292.259 150.557C291.387 149.383 290.748 148.054 290.377 146.641C290.299 146.242 290.261 145.837 290.267 145.431C290.368 143.785 291.08 142.236 292.264 141.086C293.07 140.279 293.976 139.577 294.96 138.999C295.38 138.738 295.807 138.488 296.24 138.245C296.613 138.033 296.993 137.827 297.372 137.626C298.943 136.739 300.629 136.072 302.381 135.643C303.288 135.397 304.243 135.39 305.153 135.623C305.606 135.748 306.014 135.997 306.332 136.342C306.651 136.686 306.867 137.114 306.955 137.574C306.963 137.646 306.97 137.711 306.972 137.784C306.995 138.857 306.164 139.786 305.365 140.537C303.958 141.865 302.475 143.109 300.923 144.264C300.133 144.858 299.231 145.63 299.375 146.609C299.531 147.183 299.861 147.695 300.32 148.075C301.986 149.808 303.354 151.804 304.37 153.982" stroke="#171717" stroke-width="1.4" stroke-linecap="round" stroke-linejoin="round"></path><path d="M297.37 137.64V137.627C297.405 136.768 297.446 135.904 297.48 135.045C297.775 128.088 298.068 121.13 298.359 114.172C298.352 113.365 298.461 112.56 298.684 111.784C298.798 111.395 298.992 111.035 299.254 110.727C299.516 110.418 299.84 110.168 300.204 109.992C301.483 109.46 303.003 110.326 303.671 111.54C304.34 112.753 304.379 114.205 304.404 115.59C304.446 118.289 304.49 120.984 304.537 123.678C304.564 125.153 304.585 126.636 304.612 128.109C304.643 129.423 304.942 130.718 305.49 131.913C306.038 133.108 306.824 134.18 307.799 135.061" stroke="#171717" stroke-width="1.4" stroke-linecap="round" stroke-linejoin="round"></path><path d="M319.839 148.08C320.026 148.088 320.214 148.065 320.396 148.014C321.224 147.755 321.691 146.893 322.003 146.077C322.983 143.483 323.232 140.675 323.326 137.896C323.387 135.999 323.379 134.056 322.775 132.258C322.091 130.21 319.16 126.311 317.135 129.391C316.685 130.209 316.421 131.116 316.361 132.047C316.181 133.419 316.033 134.813 315.962 136.213C315.878 137.744 315.914 139.279 316.07 140.805C316.253 142.503 316.68 144.167 317.339 145.743C317.585 146.398 317.969 146.993 318.464 147.487C318.844 147.831 319.327 148.039 319.839 148.08Z" stroke="#171717" stroke-width="1.4" stroke-linecap="round" stroke-linejoin="round"></path><path d="M316.069 140.802C316.115 139.557 316.097 138.31 316.016 137.066C315.998 136.784 315.979 136.497 315.961 136.21C315.784 133.941 315.397 131.646 314.22 129.711C313.491 128.51 312.187 127.393 310.815 127.7C310.398 127.82 310.015 128.033 309.693 128.323C309.371 128.613 309.118 128.972 308.955 129.373C308.642 130.179 308.456 131.029 308.405 131.892C308.296 132.943 308.2 134.007 308.14 135.077C308.087 135.978 308.06 136.879 308.08 137.778C308.055 140.206 308.473 142.619 309.313 144.899C309.665 145.95 310.274 146.897 311.084 147.655C311.794 148.256 313.279 148.961 314.11 148.217C314.809 147.59 315.176 145.98 315.421 145.117C315.809 143.71 316.026 142.261 316.069 140.802Z" stroke="#171717" stroke-width="1.4" stroke-linecap="round" stroke-linejoin="round"></path><path d="M320 148.807C319.68 152.083 319.351 155.358 319.012 158.632C319.012 158.686 319.007 158.74 319 158.794" stroke="#171717" stroke-width="1.4" stroke-linecap="round" stroke-linejoin="round"></path><path d="M237 303.685C236.909 303.711 236.827 303.743 236.738 303.769C222.847 308.162 216.913 307.373 210.513 304.483C207.861 303.288 205.129 301.725 201.717 300.022C199.728 299.034 197.518 297.996 194.958 296.948C193.924 296.523 192.884 296.105 191.843 295.68C191.202 295.426 190.555 295.171 189.914 294.916C185.119 293.035 180.257 291.346 175.206 290.396C174.111 290.187 172.998 290.021 171.886 289.89C169.85 289.656 167.798 289.575 165.749 289.65C161.959 289.755 158.223 290.58 154.743 292.079C152.144 293.235 149.779 294.856 147.766 296.861C144.791 299.727 142.829 303.475 142.172 307.545C141.966 309.015 141.945 310.506 142.11 311.982C142.484 315.182 143.521 318.271 145.154 321.053C147.499 325.132 150.824 328.562 154.386 331.641C165.479 341.214 164.697 341.626 178.112 347.548" stroke="#171717" stroke-width="1.4" stroke-linecap="round" stroke-linejoin="round"></path><path d="M219.401 348.774C219.289 348.351 219.173 347.963 219.1 347.671C218.542 345.501 216.908 343.582 214.838 342.242C213.758 341.556 212.606 340.991 211.403 340.556C211.3 340.516 211.198 340.477 211.095 340.442C208.844 339.684 206.53 339.128 204.18 338.779C200.888 338.16 197.537 337.907 194.19 338.024C190.82 338.213 187.412 339.002 184.61 340.649C181.809 342.295 179.681 344.836 179.287 347.612C179.203 348.185 179.205 348.767 179.295 349.339C179.455 350.454 180.041 351.465 180.93 352.157C182.218 353.142 184.072 353.448 185.842 353.625C189.054 353.949 192.308 353.989 195.555 354.032C201.312 354.114 207.099 354.188 212.866 353.665C213.806 353.578 215.253 353.557 216.58 353.33C217.883 353.109 219.068 352.687 219.547 351.818C219.95 351.089 219.687 349.812 219.401 348.774Z" stroke="#171717" stroke-width="1.4" stroke-linecap="round" stroke-linejoin="round"></path><path d="M211.449 340.435C218.676 331.098 223.627 316.557 231.913 308.143C233.075 306.965 235.237 305.495 238.096 303.933C244.136 300.725 250.473 298.111 257.018 296.128C262.281 294.456 267.694 293.295 273.181 292.661C275.388 292.419 277.609 292.332 279.829 292.399C285.552 292.601 291.486 294.406 295.431 298.559C300.778 304.192 301.209 312.783 300.902 320.54C300.691 325.835 300.269 331.176 298.678 336.232C298.386 337.162 298.052 338.081 297.671 338.984C297.123 340.301 296.475 341.575 295.734 342.794C294.245 345.287 292.274 347.458 289.935 349.179C289.492 349.501 289.036 349.799 288.575 350.073C285.578 351.885 282.186 352.884 278.67 353.466C276.036 353.877 273.381 354.141 270.718 354.255C253.923 355.157 235.556 354.505 216.612 353.517" stroke="#171717" stroke-width="1.4" stroke-linecap="round" stroke-linejoin="round"></path><path d="M192.331 295.34L203.725 237.934" stroke="#171717" stroke-width="1.4" stroke-linecap="round" stroke-linejoin="round"></path><path d="M280.613 234.668L203.725 237.935" stroke="#171717" stroke-width="1.4" stroke-linecap="round" stroke-linejoin="round"></path><path d="M273.142 292.275L276.854 263.655L279.035 246.843L280.612 234.668" stroke="#171717" stroke-width="1.4" stroke-linecap="round" stroke-linejoin="round"></path><path d="M202 299.61L202.486 299.573L258 295.615" stroke="#171717" stroke-width="1.4" stroke-linecap="round" stroke-linejoin="round"></path><path d="M212 304.604L212.139 304.601L236.364 303.635L237 303.605" stroke="#171717" stroke-width="1.4" stroke-linecap="round" stroke-linejoin="round"></path><path d="M280.613 234.666L276.619 232.92" stroke="#171717" stroke-width="1.4" stroke-linecap="round" stroke-linejoin="round"></path><path d="M203.724 237.933L201.858 236.564" stroke="#171717" stroke-width="1.4" stroke-linecap="round" stroke-linejoin="round"></path><path d="M276.618 232.92L201.858 236.564" stroke="#171717" stroke-width="1.4" stroke-linecap="round" stroke-linejoin="round"></path><path d="M190.411 294.537L201.858 236.564" stroke="#171717" stroke-width="1.4" stroke-linecap="round" stroke-linejoin="round"></path><path d="M276.807 263.686C276.825 263.673 276.836 263.667 276.853 263.654C286.825 256.799 298.545 253.586 310.536 255.226C322.545 256.865 333.909 264.02 339.651 274.694C345.273 285.149 345.031 298.53 339.031 308.782C345.599 302.445 356.694 302.36 364.359 307.306C372.025 312.252 376.421 321.264 377.446 330.328C378.47 339.391 376.489 348.546 373.641 357.21" stroke="#171717" stroke-width="1.4" stroke-linecap="round" stroke-linejoin="round"></path><path d="M166.181 289.289C155.855 282.382 143.686 272.313 132.537 260.99C130.387 258.813 128.288 256.593 126.238 254.329C117.31 244.495 109.485 234.04 104.462 224.1C103.439 222.083 102.539 220.092 101.76 218.126C98.4889 209.822 96.0531 201.212 94.4885 192.426C91.2326 174.253 91.7048 155.608 95.8769 137.623C112.455 143.107 127.506 151.415 141.137 161.757C152.644 170.48 163.144 180.644 172.713 191.774C175.165 194.622 177.552 197.53 179.875 200.498" stroke="#171717" stroke-width="1.4" stroke-linecap="round" stroke-linejoin="round"></path><path d="M71.1281 278.638C68.0042 275.103 65.2034 271.284 62.7604 267.229C42.7631 234.58 34.4419 179.579 34 171.777C50.0916 175.687 65.8686 180.838 81.1945 187.185C85.3003 188.885 89.3727 190.674 93.4111 192.551C93.6073 192.637 93.8039 192.728 94 192.819" stroke="#171717" stroke-width="1.4" stroke-linecap="round" stroke-linejoin="round"></path><path d="M141.832 311.852C131.632 311.912 121.074 309.16 112.512 305.992C107.814 304.269 103.242 302.221 98.8296 299.861" stroke="#171717" stroke-width="1.4" stroke-linecap="round" stroke-linejoin="round"></path><path d="M141.458 161.345C144.124 156.847 146.789 152.351 149.451 147.858C150.943 145.348 152.435 142.833 153.927 140.315C154.165 139.914 154.402 139.512 154.639 139.111" stroke="#171717" stroke-width="1.4" stroke-linecap="round" stroke-linejoin="round"></path><path d="M29.229 350.202C43.2147 326.449 57.6498 302.492 71.9802 278.553C80.1841 264.845 88.3229 251.157 96.3957 237.488C97.6671 235.331 98.9334 233.175 100.194 231.022C101.519 228.762 102.839 226.505 104.156 224.252" stroke="#171717" stroke-width="1.4" stroke-linecap="round" stroke-linejoin="round"></path><path d="M67.313 349.991L98.3426 299.56L112.294 276.877L120.246 263.961L126.077 254.48" stroke="#171717" stroke-width="1.4" stroke-linecap="round" stroke-linejoin="round"></path><path d="M290.159 146.688C284.372 156.539 277.974 165.678 272.203 176.003C268.711 180.879 265.805 185.141 262.95 190.04" stroke="#171717" stroke-width="1.4" stroke-linecap="round" stroke-linejoin="round"></path><path d="M297 134.826C296.991 134.837 296.987 134.855 296.979 134.866C296.282 136.051 295.652 137.296 295.095 138.592C295.061 138.667 295.03 138.747 295 138.821" stroke="#171717" stroke-width="1.4" stroke-linecap="round" stroke-linejoin="round"></path><path d="M324.927 91.2871C317.927 101.927 311.168 112.724 304.651 123.677" stroke="#171717" stroke-width="1.4" stroke-linecap="round" stroke-linejoin="round"></path><path d="M259.015 188.188C260.331 188.806 261.643 189.422 262.951 190.037" stroke="#171717" stroke-width="1.4" stroke-linecap="round" stroke-linejoin="round"></path><path d="M154.639 139.111C173.151 147.622 191.946 156.201 210.127 165.201" stroke="#171717" stroke-width="1.4" stroke-linecap="round" stroke-linejoin="round"></path><path d="M172.761 191.734L186.567 198.307" stroke="#171717" stroke-width="1.4" stroke-linecap="round" stroke-linejoin="round"></path><path d="M320.312 170.695L354.152 110.107" stroke="#171717" stroke-width="1.4" stroke-linecap="round" stroke-linejoin="round"></path><path d="M324.926 91.2893L296.39 74.8496" stroke="#171717" stroke-width="1.4" stroke-linecap="round" stroke-linejoin="round"></path><path d="M354.152 110.107L382.742 128.945" stroke="#171717" stroke-width="1.4" stroke-linecap="round" stroke-linejoin="round"></path><path d="M377.552 29.1465L296.39 74.8466" stroke="#171717" stroke-width="1.4" stroke-linecap="round" stroke-linejoin="round"></path><path d="M382.742 128.948L377.552 29.1465" stroke="#171717" stroke-width="1.4" stroke-linecap="round" stroke-linejoin="round"></path><path d="M125.978 69.7065C129.256 69.5699 132.656 69.402 135.575 67.8974C138.495 66.3929 140.793 63.1507 140.115 59.939C139.39 56.4943 135.503 54.4518 131.986 54.6744C128.468 54.8969 125.312 56.8207 122.441 58.8513C127.145 54.2602 127.852 46.1539 124.013 40.8169C120.173 35.4799 112.264 33.5694 106.406 36.5667C100.549 39.564 97.4835 47.1001 99.5727 53.3332C96.9466 46.716 88.3293 43.2431 81.8416 46.1949C75.354 49.1467 72.3149 57.917 75.5826 64.2439C73.2311 65.3702 70.4907 65.1795 67.8828 65.063C64.483 64.9106 55.296 66.5849 60.3565 70.9407C64.1679 74.2206 74.8158 71.8477 79.2164 71.6661L125.978 69.7065Z" stroke="#171717" stroke-width="1.4" stroke-linecap="round" stroke-linejoin="round"></path><path d="M62.9997 267.189C58.1332 268.516 53.5918 270.828 49.6574 273.983C45.7231 277.138 42.4804 281.069 40.1303 285.529C37.7801 289.99 36.373 294.887 35.9969 299.914C35.6208 304.941 36.2829 309.992 37.9427 314.753C34.0629 313.432 29.9396 312.981 25.866 313.432C21.7922 313.884 17.8678 315.226 14.3719 317.365C10.8759 319.503 7.89412 322.385 5.63842 325.805C3.38271 329.226 1.90846 333.1 1.32044 337.154C0.748502 341.107 1.2699 345.654 4.35683 348.182C6.99159 350.343 10.7024 350.422 14.1103 350.395C19.1385 350.355 24.1786 350.318 29.2306 350.285C41.8793 350.194 54.5741 350.118 67.3152 350.055L77.9303 349.998C111.647 349.823 145.473 349.669 178.816 349.412" stroke="#171717" stroke-width="1.4" stroke-linecap="round" stroke-linejoin="round"></path><path d="M278.468 353.455C278.534 353.46 278.604 353.458 278.672 353.462C288.451 353.862 298.232 354.257 308.014 354.649C329.891 355.542 351.765 356.43 373.638 357.313C383.038 357.692 392.439 358.073 401.839 358.455" stroke="#171717" stroke-width="1.4" stroke-linecap="round" stroke-linejoin="round"></path><path d="M147.294 100.893L150.24 106.537L156.559 107.314L152.099 111.857L153.319 118.103L147.615 115.268L142.042 118.355L142.982 112.06L138.324 107.72L144.602 106.662L147.294 100.893Z" stroke="#007456" stroke-width="1.4" stroke-linecap="round" stroke-linejoin="round"></path><path d="M250.766 93.0449L252.553 96.4719L256.386 96.9383L253.681 99.6981L254.42 103.49L250.96 101.767L247.576 103.642L248.144 99.821L245.319 97.185L249.128 96.5479L250.766 93.0449Z" stroke="#555555" stroke-width="1.4" stroke-linecap="round" stroke-linejoin="round"></path><path d="M265.211 139.617C263.97 138.557 262.827 137.388 261.796 136.124C260.971 135.128 260.219 134.074 259.547 132.971" stroke="#555555" stroke-width="1.4" stroke-linecap="round" stroke-linejoin="round"></path><path d="M259.303 139.954C260.065 138.632 260.897 137.352 261.798 136.12C262.468 135.188 263.18 134.29 263.928 133.416" stroke="#555555" stroke-width="1.4" stroke-linecap="round" stroke-linejoin="round"></path><path d="M173.295 73.0682C172.433 71.7543 171.442 70.5305 170.335 69.416C169.502 68.5631 168.604 67.7767 167.648 67.0645" stroke="#555555" stroke-width="1.4" stroke-linecap="round" stroke-linejoin="round"></path><path d="M167.514 72.7315C169.664 70.6017 171.418 68.1077 172.697 65.3652" stroke="#555555" stroke-width="1.4" stroke-linecap="round" stroke-linejoin="round"></path><path d="M76.6916 156.475C75.0113 155.109 73.3328 153.745 71.6557 152.382C70.4572 151.407 69.2659 150.432 68.0679 149.463" stroke="#007456" stroke-width="1.4" stroke-linecap="round" stroke-linejoin="round"></path><path d="M68.5464 157.486C69.5828 155.784 70.6192 154.083 71.6556 152.384C72.9639 150.239 74.2722 148.094 75.5809 145.951" stroke="#007456" stroke-width="1.4" stroke-linecap="round" stroke-linejoin="round"></path><path d="M354.101 230.768C352.793 228.895 351.485 227.027 350.177 225.163C348.863 223.279 347.545 221.395 346.222 219.512" stroke="#007456" stroke-width="1.4" stroke-linecap="round" stroke-linejoin="round"></path><path d="M345.674 230.178C347.18 228.507 348.681 226.837 350.178 225.166C351.682 223.495 353.184 221.826 354.681 220.16" stroke="#007456" stroke-width="1.4" stroke-linecap="round" stroke-linejoin="round"></path><path d="M368.665 295.225C367.988 294.203 367.305 293.18 366.634 292.158C365.553 290.538 364.477 288.916 363.404 287.293" stroke="#007456" stroke-width="1.4" stroke-linecap="round" stroke-linejoin="round"></path><path d="M363.177 296.194L366.633 292.158C367.821 290.77 369.008 289.382 370.195 287.994" stroke="#007456" stroke-width="1.4" stroke-linecap="round" stroke-linejoin="round"></path><path d="M39.0099 253.878C37.7143 252.105 36.2317 250.477 34.5869 249.022C33.5295 248.077 32.4052 247.21 31.2222 246.428" stroke="url(#paint5_linear_6791_36449)" stroke-width="1.4" stroke-linecap="round" stroke-linejoin="round"></path><path d="M31.2412 254.238C32.355 252.504 33.4702 250.768 34.5877 249.029C35.3359 247.868 36.0781 246.712 36.8267 245.549" stroke="url(#paint6_linear_6791_36449)" stroke-width="1.4" stroke-linecap="round" stroke-linejoin="round"></path><path d="M212.113 151.798C211.013 150.611 209.916 149.422 208.823 148.231C207.747 147.067 206.671 145.91 205.601 144.746" stroke="#007456" stroke-width="1.4" stroke-linecap="round" stroke-linejoin="round"></path><path d="M205.743 151.096C206.87 150.254 207.903 149.294 208.824 148.232C209.889 147.005 210.795 145.649 211.519 144.195" stroke="#007456" stroke-width="1.4" stroke-linecap="round" stroke-linejoin="round"></path><path d="M238.765 262.329C237.867 263.29 237.221 264.458 236.885 265.729C236.211 267.825 235.892 270.214 236.95 272.139C238.476 274.948 242.642 275.593 245.31 273.83C246.496 273.014 247.402 271.854 247.907 270.506C248.412 269.158 248.489 267.688 248.131 266.294C247.159 262.783 241.961 259.273 238.765 262.329Z" stroke="url(#paint7_linear_6791_36449)" stroke-width="1.4" stroke-linecap="round" stroke-linejoin="round"></path><path d="M297.625 338.988C297.64 338.983 297.656 338.98 297.673 338.981C301.514 338.188 305.058 339.937 307.379 343.113C308.525 344.728 309.194 346.632 309.309 348.608C309.424 350.584 308.981 352.554 308.031 354.29" stroke="#171717" stroke-width="1.4" stroke-linecap="round" stroke-linejoin="round"></path><path d="M206.97 349.226C207.89 346.331 207.641 343.192 206.277 340.479" stroke="#171717" stroke-width="1.4" stroke-linecap="round" stroke-linejoin="round"></path><path d="M200.383 349.545C200.402 349.488 200.418 349.431 200.432 349.372C201.318 346.479 201.163 343.334 200 340.557" stroke="#171717" stroke-width="1.4" stroke-linecap="round" stroke-linejoin="round"></path><path d="M192.633 349.238C193.468 346.406 193.32 343.374 192.213 340.637" stroke="#171717" stroke-width="1.4" stroke-linecap="round" stroke-linejoin="round"></path><path d="M211.062 340.542C209.467 340.605 207.869 340.577 206.277 340.457C204.126 340.321 201.823 340.106 199.557 339.977C197.087 339.781 194.603 339.826 192.142 340.114C191.748 340.171 191.359 340.239 190.983 340.319C189.4 340.593 187.954 341.382 186.868 342.564C185.851 343.786 185.484 345.63 186.271 347.01C187.357 348.905 189.933 349.19 192.112 349.255C192.286 349.264 192.461 349.265 192.635 349.268C195.103 349.345 197.572 349.416 200.033 349.457C202.35 349.502 204.667 349.521 206.977 349.494C211.021 349.452 215.056 349.278 219.073 348.857" stroke="#171717" stroke-width="1.4" stroke-linecap="round" stroke-linejoin="round"></path><path d="M295.646 342.838C295.674 342.819 295.704 342.802 295.735 342.788C296.655 342.337 297.706 342.228 298.699 342.482C299.075 342.562 299.438 342.698 299.776 342.884C300.344 343.214 300.816 343.688 301.142 344.259C301.468 344.83 301.636 345.477 301.631 346.135C301.573 347.258 301.091 348.317 300.281 349.098C299.475 349.87 298.502 350.448 297.438 350.786C295.791 351.347 294.035 351.514 292.312 351.273C291.003 351.104 289.738 350.695 288.578 350.066C288.557 350.059 288.536 350.049 288.518 350.037" stroke="#171717" stroke-width="1.4" stroke-linecap="round" stroke-linejoin="round"></path><path d="M292.236 351.39C292.26 351.35 292.285 351.312 292.312 351.274C294.197 348.314 296.325 345.517 298.675 342.91" stroke="#171717" stroke-width="1.4" stroke-linecap="round" stroke-linejoin="round"></path><path d="M96.4194 237.52C96.4135 237.508 96.4007 237.503 96.3948 237.491C92.1699 232.907 87.8594 228.276 83.5256 223.671C78.7375 218.583 73.9138 213.515 69.1401 208.564" stroke="#171717" stroke-width="1.4" stroke-linecap="round" stroke-linejoin="round"></path><path d="M147.877 296.04C142.193 289.256 136.46 282.52 130.677 275.833C127.253 271.879 123.814 267.943 120.362 264.025" stroke="#171717" stroke-width="1.4" stroke-linecap="round" stroke-linejoin="round"></path><path d="M153.641 222.305C151.119 217.42 148.512 212.574 145.821 207.767C141.258 199.591 136.463 191.551 131.438 183.646C129.148 180.038 126.81 176.459 124.423 172.91C121.412 168.431 118.33 164.001 115.179 159.621" stroke="#171717" stroke-width="1.4" stroke-linecap="round" stroke-linejoin="round"></path><path d="M169.224 255.416C167.666 251.749 166.06 248.104 164.407 244.48" stroke="#171717" stroke-width="1.4" stroke-linecap="round" stroke-linejoin="round"></path><path d="M131.436 183.663C131.436 183.657 131.436 183.651 131.436 183.646C131.459 177.155 131.48 170.667 131.5 164.182" stroke="#171717" stroke-width="1.4" stroke-linecap="round" stroke-linejoin="round"></path><path d="M145.808 208.167C145.811 208.036 145.814 207.898 145.817 207.766C146.023 198.675 146.228 189.586 146.433 180.498" stroke="#171717" stroke-width="1.4" stroke-linecap="round" stroke-linejoin="round"></path><path d="M163.775 210.54C164.099 207.27 164.378 203.995 164.612 200.715" stroke="#171717" stroke-width="1.4" stroke-linecap="round" stroke-linejoin="round"></path><path d="M147.707 237.016C141.727 237.622 135.745 238.228 129.762 238.831" stroke="#171717" stroke-width="1.4" stroke-linecap="round" stroke-linejoin="round"></path><path d="M145.687 207.796C137.224 207.463 128.496 206.817 120.028 206.809" stroke="#171717" stroke-width="1.4" stroke-linecap="round" stroke-linejoin="round"></path><path d="M131.324 183.503C121.733 181.045 111.757 178.295 102.167 175.84" stroke="#171717" stroke-width="1.4" stroke-linecap="round" stroke-linejoin="round"></path><path d="M83.7421 223.922C74.1151 220.478 64.2988 217.589 54.3408 215.268" stroke="#171717" stroke-width="1.4" stroke-linecap="round" stroke-linejoin="round"></path><path d="M83.527 223.713C83.527 223.701 83.527 223.683 83.527 223.671C82.777 215.516 82.5243 207.324 82.7702 199.139" stroke="#171717" stroke-width="1.4" stroke-linecap="round" stroke-linejoin="round"></path><path d="M92.4299 244.012C85.6786 244.312 78.9241 244.423 72.166 244.343" stroke="#171717" stroke-width="1.4" stroke-linecap="round" stroke-linejoin="round"></path><path d="M130.662 275.939C124.588 276.207 118.518 276.588 112.448 276.963" stroke="#171717" stroke-width="1.4" stroke-linecap="round" stroke-linejoin="round"></path><path d="M131 275.642C131.005 275.609 131.01 275.576 131.016 275.542C131.665 271.016 132.312 266.491 132.957 261.968C132.967 261.864 132.983 261.765 133 261.66" stroke="#171717" stroke-width="1.4" stroke-linecap="round" stroke-linejoin="round"></path><path d="M100.194 231.034V231.022C99.9811 226.607 99.6423 222.188 99.1724 217.795" stroke="#171717" stroke-width="1.4" stroke-linecap="round" stroke-linejoin="round"></path><path d="M294.033 168.531C302.642 168.399 311.253 168.271 319.865 168.146" stroke="#171717" stroke-width="1.4" stroke-linecap="round" stroke-linejoin="round"></path><g opacity="0.1"><path d="M92.3249 139.282C89.1409 151.064 89.7388 164.259 91.0571 176.285C94.787 211.593 110.884 244.446 136.503 269.041C140.99 273.369 145.787 277.364 150.856 280.995C153.378 282.877 156.06 284.537 158.87 285.955C161.76 287.336 164.351 289.363 167.512 290.059C168.171 290.221 168.864 290.165 169.489 289.9C170.113 289.635 170.635 289.175 170.976 288.589C171.317 288.004 171.46 287.323 171.382 286.65C171.304 285.977 171.011 285.346 170.545 284.853C168.751 282.845 166.379 281.74 164.344 280.029C162.322 278.331 160.3 276.643 158.242 274.985C154.098 271.648 150.016 268.201 146.118 264.575C138.591 257.603 131.817 249.859 125.91 241.471C112.95 222.967 104.703 201.701 101.348 179.38C100.435 173.141 99.9445 166.846 99.8817 160.539C99.7906 153.808 100.391 147.089 100.337 140.362C100.3 135.8 93.5421 134.789 92.3285 139.279L92.3249 139.282Z" fill="#171717"></path></g><g opacity="0.1"><path d="M188.102 231.411C182.94 233.22 178.785 238.515 175.771 242.893C172.556 247.711 170.248 253.074 168.96 258.719C166.059 271.156 167.823 284.222 173.916 295.446C176.956 301.054 185.468 296.071 182.468 290.451C177.673 281.466 175.911 270.857 178.079 260.859C179.78 253.981 182.805 247.501 186.985 241.78C188.511 239.814 190.336 238.011 191.477 235.798C192.581 233.656 190.719 230.493 188.102 231.411Z" fill="#171717"></path></g><g opacity="0.1"><path d="M280.46 247.537C286.191 246.627 291.599 242.661 295.913 238.965C300.428 235.032 304.336 230.453 307.511 225.378C314.831 213.864 318.176 200.401 319.314 186.922C320.008 178.694 319.872 170.396 319.487 162.156C319.288 157.9 312.56 157.923 312.87 162.156C314.109 179.094 313.707 196.918 307.008 212.806C304.296 219.334 300.45 225.331 295.649 230.52C293.29 233.07 290.66 235.357 287.807 237.34C284.808 239.392 281.516 240.89 278.486 242.858C275.943 244.511 277.648 247.984 280.46 247.537Z" fill="#171717"></path></g><g opacity="0.1"><path d="M217.015 212.692C218.059 211.361 218.842 209.974 220.089 208.797C221.223 207.726 222.482 206.801 223.674 205.797C226.301 203.621 228.472 200.947 230.062 197.929C233.187 191.88 234.256 184.495 232.172 177.941C231.139 174.693 226.327 176.019 227.067 179.348C228.45 185.567 227.588 191.814 224.107 197.216C222.422 199.829 220.142 201.701 217.887 203.79C215.815 205.709 213.402 208.197 213.422 211.208C213.433 212.863 215.835 214.197 217.012 212.694L217.015 212.692Z" fill="#171717"></path></g></g><defs><linearGradient id="paint0_linear_6791_36449" x1="339.564" y1="29.1445" x2="339.564" y2="170.697" gradientUnits="userSpaceOnUse"><stop stop-color="#FFB800"></stop><stop offset="1" stop-color="#FF7F0A"></stop></linearGradient><linearGradient id="paint1_linear_6791_36449" x1="340.784" y1="239.613" x2="340.784" y2="250.214" gradientUnits="userSpaceOnUse"><stop stop-color="#FFB800"></stop><stop offset="1" stop-color="#FF7F0A"></stop></linearGradient><linearGradient id="paint2_linear_6791_36449" x1="269.211" y1="146.643" x2="269.211" y2="219.183" gradientUnits="userSpaceOnUse"><stop stop-color="#FFB800"></stop><stop offset="1" stop-color="#FF7F0A"></stop></linearGradient><linearGradient id="paint3_linear_6791_36449" x1="175.665" y1="139.111" x2="175.665" y2="198.532" gradientUnits="userSpaceOnUse"><stop stop-color="#FFB800"></stop><stop offset="1" stop-color="#FF7F0A"></stop></linearGradient><linearGradient id="paint4_linear_6791_36449" x1="77.7343" y1="224.104" x2="77.7343" y2="350.289" gradientUnits="userSpaceOnUse"><stop stop-color="#FFB800"></stop><stop offset="1" stop-color="#FF7F0A"></stop></linearGradient><linearGradient id="paint5_linear_6791_36449" x1="35.116" y1="246.428" x2="35.116" y2="253.878" gradientUnits="userSpaceOnUse"><stop stop-color="#FFB800"></stop><stop offset="1" stop-color="#FF7F0A"></stop></linearGradient><linearGradient id="paint6_linear_6791_36449" x1="34.034" y1="245.549" x2="34.034" y2="254.238" gradientUnits="userSpaceOnUse"><stop stop-color="#FFB800"></stop><stop offset="1" stop-color="#FF7F0A"></stop></linearGradient><linearGradient id="paint7_linear_6791_36449" x1="242.309" y1="261.16" x2="242.309" y2="274.81" gradientUnits="userSpaceOnUse"><stop stop-color="#FFB800"></stop><stop offset="1" stop-color="#FF7F0A"></stop></linearGradient></defs></svg>