<svg xmlns="http://www.w3.org/2000/svg" width="228" height="200" viewBox="0 0 228 200" fill="none"><path d="M45.0008 190.709C55.7565 183.218 58.2001 169.313 57.7719 156.808C57.6988 154.725 57.9286 152.523 56.9365 150.691C55.9445 148.858 53.6158 147.609 51.7153 148.489C50.1489 149.217 49.4858 151.024 48.6139 152.513C47.4549 154.506 45.7532 156.13 43.7059 157.198C42.3745 157.885 40.7298 158.307 39.4141 157.584C37.6075 156.594 37.3934 154.106 37.4091 152.029C37.43 148.162 37.4526 144.294 37.477 140.424C37.477 138.342 37.477 136.234 36.8504 134.261C36.2239 132.287 34.7619 130.465 32.7935 129.908C30.8251 129.351 28.3659 130.497 27.9482 132.511C27.7707 133.355 27.9482 134.235 27.8856 135.114C27.8229 135.994 27.4261 136.931 26.6064 137.197C25.7866 137.462 24.9408 136.853 24.3195 136.244C22.1735 134.162 20.7168 131.449 19.3541 128.763C17.9913 126.077 16.6703 123.333 14.7176 121.048C12.7649 118.762 10.0707 116.951 7.09458 116.784C4.11848 116.617 0.93352 118.45 0.181661 121.365C-0.570198 124.281 1.13715 127.258 3.00113 129.627C5.78188 133.13 9.05648 136.212 12.7231 138.779C13.3757 139.248 14.091 139.748 14.3417 140.518C14.7907 141.898 13.4749 143.272 12.107 143.73C10.5406 144.251 8.87503 144.084 7.25122 144.251C5.62742 144.418 3.84697 145.204 3.23609 146.708C2.3798 148.848 4.16025 151.05 5.93547 152.492C9.44329 155.405 13.4278 157.695 17.7146 159.26C19.2496 159.822 20.8473 160.301 22.0952 161.384C23.3431 162.467 21.4112 166.252 20.6646 167.714C19.9179 169.177 20.6646 167.714 19.0617 167.418C17.4587 167.121 16.0229 166.252 14.4931 165.679C11.6371 164.601 7.94043 164.799 6.10777 167.241C4.90689 168.86 4.79724 171.119 5.40812 173.051C6.01901 174.982 7.25122 176.643 8.54087 178.179C13.1251 183.541 18.9833 187.857 25.63 190.152C32.2766 192.448 38.4116 193.068 45.006 190.673" fill="#EBEBEB"></path><path d="M45.1675 199.976C44.584 194.18 43.4458 188.453 41.7685 182.874C39.6858 176.064 37.2139 169.379 34.3648 162.851L32.151 157.697C31.42 156.011 30.6995 154.334 29.8902 152.741C28.3367 149.686 26.6146 146.719 24.7316 143.855C22.9459 141.106 21.155 138.56 19.4633 136.191C17.7717 133.823 16.1374 131.657 14.571 129.736C12.108 126.7 9.40709 123.865 6.49378 121.255C5.44953 120.329 4.64546 119.636 4.08679 119.173L3.44458 118.652C3.37441 118.587 3.29739 118.529 3.21484 118.48C3.2751 118.554 3.34341 118.62 3.41847 118.678L4.03458 119.23C4.5567 119.709 5.38166 120.417 6.39458 121.359C9.2538 124.01 11.9117 126.87 14.3465 129.913C15.9129 131.839 17.4793 134.015 19.1866 136.384C20.894 138.753 22.6483 141.304 24.4079 144.052C26.2809 146.907 27.996 149.861 29.5456 152.903C30.3496 154.465 31.0649 156.146 31.7907 157.843L33.9993 162.987C36.8524 169.505 39.3364 176.177 41.4395 182.973C43.1278 188.528 44.2885 194.23 44.9065 200.002" fill="#E0E0E0"></path><path d="M29.7804 152.733C29.8817 152.447 29.95 152.15 29.984 151.848C30.0936 151.276 30.2242 150.443 30.3704 149.407C30.6628 147.324 30.9708 144.471 31.2997 141.311C31.6287 138.151 31.9785 135.314 32.3022 133.232C32.4641 132.19 32.5998 131.373 32.7043 130.795C32.7764 130.5 32.8149 130.198 32.8191 129.895C32.7024 130.175 32.615 130.466 32.5581 130.764C32.4119 131.331 32.2291 132.159 32.0359 133.185C31.6443 135.236 31.2475 138.099 30.9238 141.264C30.6001 144.43 30.3181 147.215 30.0989 149.37C29.9944 150.344 29.9057 151.161 29.8378 151.822C29.7845 152.123 29.7653 152.428 29.7804 152.733Z" fill="#E0E0E0"></path><path d="M3.02246 147.746C3.36578 147.821 3.71535 147.865 4.06671 147.876C4.75591 147.933 5.74795 148.017 6.97494 148.162C9.4237 148.423 12.7966 148.907 16.4933 149.599C20.1899 150.292 23.5106 151.078 25.8915 151.713C27.0872 152.02 28.0479 152.291 28.711 152.478C29.0502 152.596 29.3998 152.681 29.7552 152.733C29.4347 152.568 29.099 152.434 28.7527 152.332C28.1001 152.103 27.1498 151.812 25.9646 151.447C23.5889 150.745 20.2682 149.927 16.5664 149.219C12.8645 148.511 9.46547 148.084 7.00105 147.887C5.76884 147.782 4.76636 147.741 4.07715 147.725C3.72567 147.701 3.3727 147.708 3.02246 147.746Z" fill="#E0E0E0"></path><path d="M41.4414 182.382C41.4414 182.382 41.5197 182.278 41.6294 182.059L42.0836 181.091C42.4804 180.253 43.0182 179.009 43.65 177.494C44.9396 174.438 46.5896 170.158 48.3491 165.416C50.1087 160.673 51.7168 156.378 52.9386 153.301L54.4005 149.657C54.5572 149.261 54.6877 148.933 54.7921 148.663C54.846 148.55 54.8847 148.431 54.907 148.309C54.8325 148.408 54.7711 148.516 54.7242 148.631L54.2648 149.594C53.8732 150.438 53.3354 151.677 52.6984 153.197C51.4088 156.253 49.7588 160.532 47.9993 165.28C46.2397 170.028 44.6368 174.313 43.4098 177.389C42.8094 178.889 42.3186 180.117 41.9479 181.034C41.7912 181.429 41.6607 181.757 41.5563 182.028C41.5054 182.142 41.4669 182.26 41.4414 182.382Z" fill="#E0E0E0"></path><path d="M5.87891 170.953C5.9895 171.019 6.10911 171.068 6.23395 171.099L7.2782 171.448L11.0897 172.676C14.3008 173.718 18.7284 175.201 23.6207 176.841C28.513 178.481 32.9458 179.939 36.1882 180.912C37.8068 181.402 39.1173 181.782 40.031 182.026L41.0753 182.302C41.1947 182.343 41.3197 182.366 41.446 182.37C41.3363 182.306 41.2187 182.257 41.0962 182.224L40.0519 181.881L36.2456 180.652C33.0294 179.611 28.607 178.127 23.7147 176.487C18.8224 174.847 14.3895 173.39 11.1576 172.416C9.539 171.927 8.22324 171.547 7.30953 171.302L6.26528 171.026C6.13954 170.988 6.00998 170.963 5.87891 170.953Z" fill="#E0E0E0"></path><path d="M176.775 8.48438L148.037 78.4586L199.628 99.1161L227.927 29.6L176.775 8.48438Z" fill="#E6E6E6"></path><path d="M176.773 8.48438L227.941 29.5428H227.999L227.973 29.6C220.026 49.133 210.252 73.1693 199.689 99.1265L199.663 99.1942H199.59L199.214 99.0432L148.004 78.5263H147.941L147.968 78.4638L176.773 8.48438L148.098 78.4846L148.061 78.3961L199.277 98.8974L199.653 99.0484L199.553 99.09C210.126 73.138 219.916 49.1122 227.868 29.574L227.899 29.6521L176.773 8.48438Z" fill="#E6E6E6"></path><path d="M173.009 1.80469L144.271 71.7789L195.863 92.4416L224.162 22.9203L173.009 1.80469Z" fill="#FAFAFA"></path><path d="M173.015 1.80469L224.183 22.8631H224.241V22.9203L195.931 92.4676L195.905 92.5405L195.837 92.5093L195.461 92.3583L144.246 71.8465L144.184 71.8205L144.21 71.7528L173.015 1.80469L144.335 71.7997L144.298 71.7112L195.514 92.2177L195.89 92.3635L195.796 92.4051C206.363 66.4531 216.158 42.4273 224.105 22.8891L224.136 22.9724L173.015 1.80469Z" fill="#EBEBEB"></path><path d="M211.846 33.5554C211.799 33.6751 202.855 30.3068 191.869 26.0327C180.884 21.7585 172.029 18.2236 172.055 18.0935C172.081 17.9633 181.046 21.342 192.031 25.6162C203.017 29.8903 211.893 33.4408 211.846 33.5554Z" fill="#E0E0E0"></path><path d="M209.873 39.9593C209.826 40.0738 200.882 36.7055 189.897 32.4366C178.911 28.1677 170.056 24.6276 170.082 24.4922C170.108 24.3568 179.073 27.746 190.059 32.0201C201.044 36.2943 209.915 39.8448 209.873 39.9593Z" fill="#E0E0E0"></path><path d="M203.2 59.3577C203.158 59.4723 194.209 56.104 183.224 51.835C172.238 47.5661 163.383 44.026 163.414 43.8906C163.445 43.7553 172.4 47.1444 183.391 51.4133C194.381 55.6823 203.247 59.2432 203.2 59.3577Z" fill="#E0E0E0"></path><path d="M200.052 65.9124C200.01 66.027 191.061 62.6587 180.075 58.3897C169.09 54.1208 160.234 50.5807 160.266 50.4453C160.297 50.31 169.251 53.6939 180.242 57.968C191.233 62.2422 200.099 65.7927 200.052 65.9124Z" fill="#E0E0E0"></path><path d="M197.434 72.5296C197.387 72.6441 188.443 69.2758 177.458 65.0069C166.472 60.738 157.617 57.1979 157.649 57.0625C157.68 56.9272 166.634 60.3163 177.625 64.5852C188.616 68.8542 197.481 72.4151 197.434 72.5296Z" fill="#E0E0E0"></path><path d="M194.821 79.1468C194.774 79.2613 185.83 75.893 174.845 71.6241C163.859 67.3552 155.004 63.8151 155.035 63.6797C155.067 63.5443 164.021 66.9335 175.012 71.2024C186.002 75.4714 194.868 79.0323 194.821 79.1468Z" fill="#E0E0E0"></path><path d="M178.968 26.7305C178.837 27.0012 178.305 28.2298 178.305 28.2298L200.072 37.0332L200.735 35.1694L178.968 26.7305Z" fill="#EBEBEB"></path><path d="M168.009 29.4531C167.873 29.7238 167.074 31.3898 167.074 31.3898L207.878 46.8829L208.881 44.7588L168.009 29.4531Z" fill="#EBEBEB"></path><path d="M165.636 36.0469L164.707 37.9627L205.506 53.4558L206.508 51.3318L165.636 36.0469Z" fill="#EBEBEB"></path><path d="M163.584 42.957C163.543 43.0559 162.854 45.0394 162.854 45.0394L183.274 52.8485L184.422 50.4589L163.584 42.957Z" fill="#EBEBEB"></path><path d="M216.937 199.155C216.937 199.233 168.463 199.29 108.69 199.29C48.9174 199.29 0.427734 199.233 0.427734 199.155C0.427734 199.077 48.8913 199.02 108.69 199.02C168.489 199.02 216.937 199.082 216.937 199.155Z" fill="#263238"></path><path d="M33.5775 6.08943C32.8778 29.6259 30.8259 118.097 30.2829 141.701C30.2463 143.249 30.8254 144.748 31.8936 145.872C32.9618 146.996 34.4324 147.652 35.9845 147.699L133.225 150.661C134.001 150.684 134.774 150.555 135.499 150.279C136.224 150.004 136.888 149.588 137.451 149.055C138.015 148.523 138.467 147.885 138.782 147.178C139.097 146.47 139.268 145.708 139.287 144.934L140.801 76.5582L149.035 76.4228C150.009 76.4067 150.938 76.0126 151.625 75.3245C152.312 74.6363 152.704 73.7081 152.716 72.737L153.348 17.652C153.357 16.6665 152.976 15.7171 152.286 15.0109C151.597 14.3048 150.655 13.8993 149.667 13.8829L142.211 13.7371L142.268 8.41132C142.285 6.8715 141.691 5.38747 140.615 4.28262C139.539 3.17776 138.069 2.54165 136.525 2.51289L39.5193 0.430482C37.9815 0.405178 36.4957 0.984896 35.3836 2.04408C34.2715 3.10326 33.6226 4.55664 33.5775 6.08943Z" fill="#007456"></path><path opacity="0.4" d="M33.5775 6.08943C32.8778 29.6259 30.8259 118.097 30.2829 141.701C30.2463 143.249 30.8254 144.748 31.8936 145.872C32.9618 146.996 34.4324 147.652 35.9845 147.699L133.225 150.661C134.001 150.684 134.774 150.555 135.499 150.279C136.224 150.004 136.888 149.588 137.451 149.055C138.015 148.523 138.467 147.885 138.782 147.178C139.097 146.47 139.268 145.708 139.287 144.934L140.801 76.5582L149.035 76.4228C150.009 76.4067 150.938 76.0126 151.625 75.3245C152.312 74.6363 152.704 73.7081 152.716 72.737L153.348 17.652C153.357 16.6665 152.976 15.7171 152.286 15.0109C151.597 14.3048 150.655 13.8993 149.667 13.8829L142.211 13.7371L142.268 8.41132C142.285 6.8715 141.691 5.38747 140.615 4.28262C139.539 3.17776 138.069 2.54165 136.525 2.51289L39.5193 0.430482C37.9815 0.405178 36.4957 0.984896 35.3836 2.04408C34.2715 3.10326 33.6226 4.55664 33.5775 6.08943Z" fill="black"></path><path d="M40.9652 7.10156L32.3867 143.328L132.588 148.924L140.675 13.7236L40.9652 7.10156Z" fill="#E0E0E0"></path><path d="M28.9199 4.14318L29.5882 140.64L129.94 139.474L128.854 4.03906L28.9199 4.14318Z" fill="#EBEBEB"></path><path d="M15.7832 13.5383L34.7259 148.723L134.023 134.209L114.809 0.132812L15.7832 13.5383Z" fill="#FAFAFA"></path><path d="M15.7832 13.5357L114.794 0H114.903V0.109326C120.307 37.7749 126.959 84.1241 134.138 134.18V134.315H134.003L133.282 134.42L34.7415 148.845H34.6162V148.721C23.4845 68.7404 15.9503 14.5977 15.8198 13.52L34.8825 148.689L34.7415 148.58L133.313 134.164L134.039 134.055L133.924 134.211C126.761 84.1502 120.124 37.8009 114.736 0.130151L114.861 0.223859L15.7832 13.5357Z" fill="#263238"></path><path d="M108.568 44.8611C108.605 45.0849 91.5837 47.9326 70.5526 51.228C49.5214 54.5234 32.4375 57.0067 32.4375 56.7881C32.4375 56.5694 49.4222 53.7165 70.4534 50.4211C91.4845 47.1257 108.532 44.6424 108.568 44.8611Z" fill="#263238"></path><path d="M115.844 81.1669C115.875 81.3856 98.8539 84.2385 77.8279 87.5287C56.802 90.8189 39.7129 93.3126 39.7129 93.0887C39.7129 92.8649 56.6924 90.0172 77.7287 86.7269C98.7651 83.4367 115.807 80.9379 115.844 81.1669Z" fill="#263238"></path><path d="M116.904 94.2366C116.936 94.4605 99.9144 97.3082 78.8885 100.598C57.8626 103.889 40.7734 106.382 40.7734 106.158C40.7734 105.935 57.7529 103.087 78.7893 99.7967C99.8257 96.5064 116.868 94.0128 116.904 94.2366Z" fill="#263238"></path><path d="M104.706 16.183C104.706 16.386 93.2817 18.1613 79.1739 20.15C65.0661 22.1387 53.5898 23.586 53.5898 23.3829C53.5898 23.1799 65.0139 21.3994 79.1269 19.4159C93.2399 17.4325 104.695 15.98 104.706 16.183Z" fill="#263238"></path><path d="M106.319 23.4135C106.319 23.6166 94.895 25.397 80.7872 27.3805C66.6794 29.364 55.2031 30.8165 55.2031 30.6135C55.2031 30.4104 66.622 28.6352 80.735 26.6465C94.848 24.6578 106.314 23.2105 106.319 23.4135Z" fill="#263238"></path><path d="M108.274 31.0536C108.274 31.2618 96.8495 33.0371 82.7365 35.0258C68.6235 37.0145 57.1837 38.4566 57.1524 38.2535C57.1211 38.0505 68.5921 36.2752 82.6895 34.3126C96.7868 32.3499 108.274 30.8506 108.274 31.0536Z" fill="#263238"></path><path d="M118.85 106.924C118.886 107.143 101.865 109.996 80.8338 113.286C59.8027 116.576 42.7188 119.07 42.7188 118.846C42.7188 118.622 59.7034 115.774 80.7346 112.484C101.766 109.194 118.813 106.7 118.85 106.924Z" fill="#263238"></path><path d="M120.804 119.616C120.84 119.834 103.819 122.687 82.7929 125.977C61.767 129.268 44.6779 131.761 44.6465 131.537C44.6152 131.313 61.6312 128.466 82.6676 125.176C103.704 121.885 120.767 119.392 120.804 119.616Z" fill="#263238"></path><path d="M48.3125 52.2224C48.3543 52.743 48.6414 55.169 48.6414 55.169L90.615 49.1716L89.9623 45.668L48.3125 52.2224Z" fill="#007456"></path><path d="M33.6914 66.4004C33.7384 66.921 34.0047 70.2685 34.0047 70.2685L111.765 57.4669L111.394 53.25L33.6914 66.4004Z" fill="#007456"></path><path d="M36.0039 78.8262C36.0509 79.3468 36.3172 82.6995 36.3172 82.6995L114.077 69.8979L113.706 65.6758L36.0039 78.8262Z" fill="#007456"></path><path d="M39.1113 91.4682C39.1113 91.6608 39.8736 95.3987 39.8736 95.3987L78.8398 89.0786L78.4534 84.3047L39.1113 91.4682Z" fill="#007456"></path><path d="M27.791 22.6392L31.2788 47.7323L54.1948 44.5306L51.0725 19.5156L27.791 22.6392Z" fill="#263238"></path><path d="M27.791 22.6392L31.2788 47.7323L54.1948 44.5306L51.0725 19.5156L27.791 22.6392Z" fill="#007456"></path><mask id="mask0_3334_26231" style="mask-type:alpha" maskUnits="userSpaceOnUse" x="27" y="19" width="28" height="29"><path d="M27.791 22.6392L31.2788 47.7323L54.1948 44.5306L51.0725 19.5156L27.791 22.6392Z" fill="white"></path></mask><g mask="url(#mask0_3334_26231)"><path d="M39.2158 43.4172L46.1392 41.5534C46.0295 40.7257 45.3769 37.5812 45.3769 37.5812C45.3769 37.5812 48.212 36.5869 47.7003 33.6715C47.1886 30.7561 45.4395 24.1757 45.4395 24.1757C43.6521 23.7786 41.7908 23.8634 40.0472 24.4216C38.3036 24.9798 36.7407 25.991 35.5191 27.3514L35.1484 27.7626L39.2158 43.4172Z" fill="#FFBE9D"></path><path d="M45.6854 29.3016C45.6317 29.2751 45.5842 29.2377 45.5459 29.1917C45.5077 29.1457 45.4795 29.0922 45.4633 29.0347C45.447 28.9772 45.4431 28.9169 45.4517 28.8578C45.4603 28.7986 45.4813 28.742 45.5132 28.6914C45.5452 28.6409 45.5874 28.5976 45.6372 28.5643C45.687 28.5311 45.7433 28.5086 45.8023 28.4985C45.8614 28.4883 45.9219 28.4905 45.98 28.5051C46.0381 28.5197 46.0925 28.5463 46.1397 28.5832C46.1883 28.612 46.2306 28.6503 46.2641 28.6957C46.2977 28.7411 46.3217 28.7928 46.3348 28.8477C46.348 28.9025 46.35 28.9594 46.3407 29.0151C46.3313 29.0707 46.3109 29.1239 46.2807 29.1715C46.2186 29.2669 46.1213 29.3341 46.0099 29.3585C45.8984 29.3829 45.7819 29.3624 45.6854 29.3016Z" fill="#263238"></path><path d="M46.2701 28.5046C46.2336 28.5671 45.9046 28.4005 45.5026 28.4734C45.1006 28.5463 44.8499 28.8066 44.7977 28.7649C44.7455 28.7233 44.7977 28.6452 44.9074 28.5254C45.0535 28.3678 45.2483 28.2633 45.4608 28.2287C45.6721 28.194 45.889 28.2249 46.0822 28.3172C46.2283 28.3953 46.2858 28.4786 46.2701 28.5046Z" fill="#263238"></path><path d="M41.7069 29.7161C41.7599 29.7357 41.8084 29.7656 41.8496 29.8041C41.8909 29.8425 41.9241 29.8887 41.9474 29.94C41.9707 29.9913 41.9836 30.0467 41.9854 30.1029C41.9871 30.1592 41.9776 30.2153 41.9576 30.2679C41.9373 30.3206 41.9069 30.3687 41.868 30.4096C41.8291 30.4505 41.7825 30.4834 41.7309 30.5064C41.6793 30.5293 41.6236 30.5419 41.5671 30.5435C41.5106 30.545 41.4543 30.5354 41.4015 30.5152C41.3487 30.495 41.3004 30.4647 41.2594 30.4259C41.2183 30.3871 41.1854 30.3407 41.1623 30.2892C41.1393 30.2377 41.1267 30.1822 41.1252 30.1259C41.1236 30.0695 41.1333 30.0134 41.1535 29.9608C41.1944 29.8551 41.2756 29.77 41.3794 29.7241C41.4832 29.6783 41.601 29.6754 41.7069 29.7161Z" fill="#263238"></path><path d="M41.9615 29.6732C41.925 29.7304 41.596 29.5638 41.1992 29.6367C40.8024 29.7096 40.5413 29.9751 40.4891 29.9283C40.4369 29.8814 40.4891 29.8137 40.5988 29.6888C40.7508 29.5384 40.9456 29.4382 41.1567 29.4019C41.3678 29.3656 41.585 29.3948 41.7788 29.4858C41.9302 29.5639 41.9929 29.6263 41.9615 29.6732Z" fill="#263238"></path><path d="M44.2021 32.6743C44.3932 32.5536 44.6032 32.4656 44.8234 32.414C44.9278 32.3827 45.0061 32.3463 45.0061 32.289C44.9877 32.1831 44.9408 32.0841 44.8704 32.0027L44.4005 31.2478C43.9743 30.6145 43.6106 29.9415 43.3145 29.2383C43.8082 29.8213 44.2388 30.4547 44.5989 31.1281L45.0531 31.8934C45.1468 32.0139 45.1965 32.1626 45.1941 32.315C45.1874 32.3586 45.17 32.3999 45.1436 32.4353C45.1173 32.4707 45.0826 32.4991 45.0427 32.5181C44.9878 32.5442 44.93 32.5634 44.8704 32.5753C44.6548 32.6457 44.4288 32.6791 44.2021 32.6743Z" fill="#263238"></path><path d="M43.0075 33.361C42.5428 33.1892 44.2763 33.7566 45.096 33.564C44.999 33.7993 44.8249 33.9949 44.602 34.1187C44.3792 34.2426 44.1208 34.2875 43.869 34.246C42.8979 34.0898 43.0075 33.361 43.0075 33.361Z" fill="white"></path><path d="M45.3602 37.5415C44.0181 37.8187 42.6237 37.69 41.3555 37.1719C41.3555 37.1719 42.6451 39.0981 45.5325 38.2912L45.3602 37.5415Z" fill="#EB996E"></path><path d="M35.6277 30.5781C35.5598 30.5781 33.4243 30.8228 34.2336 33.1811C35.0429 35.5395 37.1888 33.962 37.1732 33.8944C37.1575 33.8267 35.6277 30.5781 35.6277 30.5781Z" fill="#FFBE9D"></path><path d="M36.1564 33.3304C36.1564 33.3304 36.1251 33.372 36.0624 33.4293C35.9774 33.5035 35.8673 33.5426 35.7544 33.5386C35.4724 33.5386 35.1226 33.2054 34.966 32.7785C34.8911 32.5757 34.8625 32.3587 34.8824 32.1434C34.8802 32.0613 34.8974 31.9798 34.9328 31.9056C34.9682 31.8314 35.0207 31.7666 35.086 31.7165C35.1291 31.6876 35.1811 31.6748 35.2328 31.6806C35.2844 31.6863 35.3323 31.7101 35.368 31.7478C35.4254 31.805 35.4254 31.8571 35.4411 31.8571C35.4568 31.8571 35.4776 31.7998 35.4411 31.7061C35.4068 31.6525 35.3552 31.6122 35.2949 31.5916C35.2552 31.575 35.2126 31.5664 35.1696 31.5664C35.1266 31.5664 35.084 31.575 35.0443 31.5916C34.9526 31.6449 34.8762 31.7207 34.8223 31.8119C34.7683 31.903 34.7387 32.0064 34.7362 32.1122C34.7034 32.3527 34.7303 32.5976 34.8145 32.8254C34.8747 33.0426 34.9981 33.2371 35.1691 33.3845C35.3401 33.5318 35.551 33.6253 35.7753 33.6532C35.8452 33.6502 35.9136 33.6312 35.9752 33.5979C36.0367 33.5645 36.0898 33.5175 36.1303 33.4605C36.1721 33.3876 36.1668 33.3304 36.1564 33.3304Z" fill="#EB996E"></path><path d="M45.3978 24.0953C45.0167 26.235 42.2651 27.5625 40.1452 28.0779C40.9754 27.0367 40.3959 27.3231 40.8971 26.5994C39.5149 28.3285 37.5535 29.5023 35.373 29.9053C35.1159 29.443 34.9547 28.934 34.8989 28.4084C34.8431 27.8827 34.894 27.3513 35.0484 26.8457C35.2028 26.34 35.4576 25.8706 35.7978 25.4651C36.1379 25.0597 36.5563 24.7267 37.0282 24.4858C37.6495 24.1682 38.3387 24.0172 38.9809 23.7413C39.503 23.5071 40.0252 23.1791 40.5786 22.9865C42.2494 22.4138 44.9488 21.4246 45.3978 24.0953Z" fill="#263238"></path><path d="M36.48 28.582C36.4226 28.884 36.4278 32.2991 36.4278 32.2991L35.0859 29.2536L36.48 28.582Z" fill="#263238"></path><path d="M25.4941 55.5755L31.2949 47.0532C32.3975 45.3632 33.884 43.956 35.6338 42.9457C36.5601 42.4035 37.5662 42.01 38.6151 41.7795C41.1914 42.0925 43.8019 41.6072 46.0919 40.3895C48.1798 40.2295 50.2797 40.4285 52.3 40.9778L63.7867 43.3101L62.1264 53.3577L56.0593 52.53L57.375 61.4427L60.9881 74.4578L38.871 78.81L36.9078 66.7476L35.2996 58.0588L32.689 61.7551L25.4941 55.5755Z" fill="#455A64"></path></g><path d="M150.924 197.351L150.898 192.561L159.889 192.457L160.004 199.459L159.445 199.501C156.965 199.667 146.825 200.178 145.16 199.693C143.306 199.157 150.924 197.351 150.924 197.351Z" fill="#007456"></path><path d="M156.746 199.428C156.87 198.67 157.27 197.985 157.869 197.502C158.455 197.023 159.201 196.782 159.957 196.825L159.988 199.329L156.746 199.428Z" fill="#007456"></path><path d="M147.202 198.367C147.202 198.367 144.534 199.169 144.874 199.606C145.213 200.044 155.483 199.913 160.015 199.46V199.257L148.038 199.513C148.038 199.513 147.73 198.383 147.202 198.367Z" fill="#007456"></path><path d="M160.129 199.25H159.972L159.528 199.286L157.899 199.375C156.516 199.443 154.61 199.51 152.501 199.536C150.391 199.562 148.486 199.536 147.102 199.536L145.468 199.489H145.024H144.867H145.468H147.107C148.486 199.489 150.391 199.489 152.501 199.489C154.61 199.489 156.516 199.401 157.894 199.354L159.528 199.302H159.972L160.129 199.25Z" fill="#263238"></path><path d="M148.018 199.652C147.944 199.382 147.839 199.121 147.705 198.876C147.541 198.65 147.352 198.444 147.141 198.262C147.424 198.361 147.659 198.564 147.799 198.829C147.969 199.068 148.047 199.36 148.018 199.652Z" fill="#263238"></path><path d="M150.654 198.27C150.627 198.27 150.502 198.135 150.366 197.932C150.271 197.815 150.203 197.678 150.168 197.531C150.194 197.531 150.325 197.667 150.455 197.875C150.586 198.083 150.68 198.255 150.654 198.27Z" fill="#263238"></path><path d="M151.38 197.884C151.38 197.884 151.213 197.811 151.057 197.676C150.9 197.541 150.79 197.411 150.811 197.39C150.832 197.369 150.973 197.457 151.13 197.598C151.286 197.739 151.396 197.863 151.38 197.884Z" fill="#263238"></path><path d="M151.829 197.03C151.679 197.089 151.518 197.112 151.359 197.097C151.201 197.116 151.041 197.102 150.889 197.056C151.038 196.996 151.199 196.973 151.359 196.988C151.516 196.97 151.676 196.984 151.829 197.03Z" fill="#263238"></path><path d="M151.98 196.43C151.826 196.535 151.644 196.591 151.458 196.591C151.281 196.622 151.099 196.598 150.936 196.523C151.108 196.494 151.283 196.48 151.458 196.482C151.63 196.45 151.805 196.433 151.98 196.43Z" fill="#263238"></path><path d="M150.34 197.497C150.148 197.529 149.952 197.529 149.76 197.497C149.552 197.471 149.346 197.427 149.144 197.367C149.021 197.334 148.902 197.287 148.789 197.226C148.72 197.188 148.668 197.124 148.643 197.049C148.635 197.007 148.638 196.962 148.654 196.922C148.67 196.881 148.697 196.846 148.732 196.82C148.95 196.707 149.201 196.675 149.44 196.728C149.68 196.781 149.893 196.917 150.042 197.112C150.134 197.223 150.199 197.353 150.236 197.492C150.247 197.543 150.247 197.597 150.236 197.648C150.173 197.471 150.081 197.306 149.964 197.159C149.83 197.012 149.659 196.904 149.468 196.846C149.355 196.81 149.236 196.797 149.118 196.807C149 196.816 148.884 196.849 148.779 196.904C148.685 196.971 148.727 197.081 148.826 197.138C148.931 197.194 149.041 197.239 149.155 197.273C149.349 197.338 149.548 197.387 149.75 197.419C150.121 197.481 150.34 197.481 150.34 197.497Z" fill="#263238"></path><path d="M150.19 197.527C150.121 197.406 150.095 197.264 150.117 197.126C150.135 196.975 150.189 196.83 150.274 196.704C150.321 196.618 150.39 196.545 150.473 196.493C150.556 196.44 150.651 196.409 150.749 196.402C150.808 196.414 150.861 196.448 150.895 196.498C150.929 196.547 150.943 196.609 150.932 196.668C150.919 196.76 150.887 196.849 150.838 196.928C150.763 197.056 150.672 197.173 150.566 197.277C150.48 197.384 150.366 197.467 150.237 197.516C150.237 197.516 150.352 197.412 150.509 197.225C150.603 197.119 150.683 197.002 150.749 196.876C150.827 196.756 150.88 196.538 150.749 196.512C150.619 196.486 150.457 196.647 150.368 196.762C150.289 196.874 150.236 197.002 150.211 197.136C150.193 197.266 150.186 197.396 150.19 197.527Z" fill="#263238"></path><path d="M159.915 196.798C159.915 196.798 159.654 196.798 159.252 196.829C158.723 196.894 158.224 197.108 157.811 197.444C157.398 197.78 157.088 198.225 156.918 198.729C156.788 199.12 156.777 199.375 156.757 199.375C156.748 199.314 156.748 199.253 156.757 199.193C156.773 199.029 156.805 198.867 156.851 198.708C157.005 198.179 157.316 197.708 157.744 197.359C158.172 197.009 158.696 196.797 159.247 196.751C159.412 196.734 159.578 196.734 159.743 196.751C159.802 196.759 159.86 196.774 159.915 196.798Z" fill="#263238"></path><path d="M158.918 193.102C159.026 194.325 159.057 195.555 159.012 196.782C158.911 195.558 158.88 194.329 158.918 193.102Z" fill="#263238"></path><path d="M155.603 198.569C154.743 198.742 153.859 198.761 152.992 198.626C152.992 198.595 153.582 198.626 154.308 198.626C155.034 198.626 155.598 198.538 155.603 198.569Z" fill="#263238"></path><path d="M157.351 198.542C157.351 198.542 157.304 198.667 157.247 198.803C157.19 198.938 157.158 199.058 157.127 199.053C157.096 199.047 157.08 198.912 157.127 198.756C157.174 198.6 157.351 198.522 157.351 198.542Z" fill="#263238"></path><path d="M158.014 197.707C158.04 197.707 157.983 197.822 157.889 197.915C157.796 198.009 157.707 198.072 157.686 198.051C157.665 198.03 157.717 197.936 157.811 197.842C157.905 197.749 157.993 197.686 158.014 197.707Z" fill="#263238"></path><path d="M158.961 197.32C158.961 197.351 158.835 197.351 158.705 197.398C158.574 197.445 158.48 197.518 158.454 197.497C158.428 197.476 158.506 197.357 158.668 197.299C158.83 197.242 158.971 197.294 158.961 197.32Z" fill="#263238"></path><path d="M159.639 197.131C159.639 197.162 159.598 197.209 159.525 197.235C159.452 197.261 159.379 197.271 159.369 197.235C159.358 197.199 159.41 197.162 159.483 197.131C159.556 197.1 159.624 197.105 159.639 197.131Z" fill="#263238"></path><path d="M196.882 194.877L195.414 190.316L186.836 192.998L188.924 199.687L189.447 199.557C191.859 198.948 201.654 196.293 203.09 195.319C204.687 194.237 196.882 194.877 196.882 194.877Z" fill="#007456"></path><path d="M191.996 198.655C191.645 197.972 191.051 197.443 190.33 197.172C189.622 196.896 188.835 196.896 188.127 197.172L188.879 199.561L191.996 198.655Z" fill="#007456"></path><path d="M200.736 194.69C200.736 194.69 203.524 194.627 203.346 195.148C203.169 195.669 193.358 198.719 188.915 199.688L188.873 199.495L200.334 196.028C200.334 196.028 200.245 194.867 200.736 194.69Z" fill="#007456"></path><path d="M188.721 199.529L188.877 199.498L189.305 199.389L190.872 198.972C192.203 198.608 194.041 198.082 196.051 197.457C198.062 196.833 199.873 196.223 201.179 195.77L202.719 195.219L203.137 195.062C203.186 195.047 203.233 195.026 203.278 195L203.126 195.042L202.703 195.177L201.137 195.698C199.826 196.135 198.004 196.739 196.004 197.353C194.005 197.967 192.162 198.514 190.835 198.915L189.269 199.368L188.846 199.493C188.803 199.502 188.761 199.514 188.721 199.529Z" fill="#263238"></path><path d="M200.359 196.163C200.35 195.884 200.371 195.605 200.422 195.33C200.507 195.064 200.622 194.809 200.767 194.57C200.528 194.749 200.366 195.011 200.312 195.304C200.226 195.587 200.243 195.891 200.359 196.163Z" fill="#263238"></path><path d="M197.425 195.666C197.456 195.666 197.529 195.489 197.597 195.255C197.665 195.021 197.685 194.823 197.654 194.812C197.57 194.938 197.514 195.08 197.488 195.229C197.434 195.368 197.413 195.518 197.425 195.666Z" fill="#263238"></path><path d="M196.615 195.523C196.641 195.523 196.751 195.403 196.855 195.226C196.96 195.049 197.028 194.888 197.002 194.872C196.976 194.857 196.871 194.992 196.761 195.169C196.652 195.346 196.589 195.507 196.615 195.523Z" fill="#263238"></path><path d="M195.926 194.851C196.085 194.856 196.243 194.827 196.391 194.768C196.547 194.736 196.694 194.672 196.824 194.58C196.665 194.569 196.505 194.598 196.36 194.664C196.109 194.737 195.916 194.82 195.926 194.851Z" fill="#263238"></path><path d="M195.598 194.327C195.767 194.382 195.95 194.382 196.12 194.327C196.304 194.302 196.477 194.222 196.616 194.098C196.438 194.123 196.263 194.165 196.094 194.223C195.926 194.244 195.76 194.279 195.598 194.327Z" fill="#263238"></path><path d="M197.483 194.829C197.676 194.808 197.864 194.749 198.036 194.657C198.227 194.569 198.411 194.465 198.584 194.345C198.69 194.274 198.788 194.192 198.877 194.1C198.929 194.041 198.958 193.966 198.96 193.887C198.955 193.843 198.938 193.802 198.91 193.768C198.882 193.733 198.845 193.708 198.804 193.694C198.561 193.653 198.311 193.699 198.099 193.824C197.887 193.949 197.726 194.144 197.644 194.376C197.595 194.513 197.574 194.658 197.582 194.803C197.579 194.855 197.59 194.907 197.613 194.954C197.615 194.767 197.65 194.582 197.717 194.407C197.797 194.224 197.927 194.066 198.093 193.955C198.19 193.885 198.298 193.835 198.414 193.807C198.53 193.779 198.65 193.774 198.767 193.793C198.871 193.835 198.871 193.944 198.793 194.033C198.711 194.119 198.62 194.195 198.522 194.262C198.356 194.384 198.181 194.493 197.999 194.59C197.691 194.751 197.477 194.813 197.483 194.829Z" fill="#263238"></path><path d="M197.633 194.816C197.665 194.68 197.646 194.538 197.581 194.415C197.52 194.276 197.425 194.154 197.304 194.061C197.235 193.997 197.151 193.951 197.06 193.926C196.969 193.902 196.874 193.9 196.782 193.92C196.756 193.935 196.732 193.954 196.714 193.977C196.695 194 196.681 194.027 196.673 194.055C196.665 194.084 196.662 194.114 196.666 194.144C196.669 194.173 196.678 194.202 196.693 194.228C196.731 194.312 196.789 194.387 196.86 194.446C196.972 194.543 197.095 194.627 197.226 194.696C197.341 194.771 197.475 194.814 197.612 194.821C197.612 194.821 197.471 194.759 197.262 194.628C197.143 194.555 197.031 194.469 196.928 194.373C196.818 194.28 196.698 194.087 196.829 194.019C196.906 194.005 196.986 194.008 197.062 194.029C197.138 194.05 197.208 194.087 197.267 194.139C197.378 194.221 197.468 194.326 197.534 194.446C197.582 194.565 197.615 194.689 197.633 194.816Z" fill="#263238"></path><path d="M188.158 197.13C188.158 197.13 188.398 197.031 188.8 196.958C189.323 196.855 189.865 196.902 190.362 197.094C190.86 197.285 191.292 197.614 191.609 198.041C191.855 198.369 191.944 198.614 191.964 198.604C191.955 198.544 191.938 198.486 191.912 198.432C191.847 198.28 191.767 198.135 191.672 198C191.36 197.545 190.918 197.194 190.402 196.994C189.887 196.795 189.323 196.755 188.785 196.88C188.623 196.919 188.466 196.973 188.315 197.042C188.258 197.063 188.205 197.093 188.158 197.13Z" fill="#263238"></path><path d="M187.938 193.293C188.213 194.49 188.561 195.669 188.982 196.823C188.854 196.221 188.694 195.627 188.501 195.042C188.349 194.448 188.161 193.864 187.938 193.293Z" fill="#263238"></path><path d="M192.816 197.481C193.257 197.446 193.692 197.357 194.111 197.216C194.538 197.103 194.949 196.937 195.333 196.721C195.333 196.695 194.769 196.903 194.08 197.111C193.391 197.32 192.811 197.45 192.816 197.481Z" fill="#263238"></path><path d="M191.133 198C191.133 198 191.216 198.104 191.31 198.214C191.404 198.323 191.477 198.427 191.504 198.417C191.53 198.406 191.504 198.271 191.394 198.141C191.284 198.01 191.143 197.974 191.133 198Z" fill="#263238"></path><path d="M190.246 197.412C190.246 197.438 190.314 197.511 190.434 197.574C190.554 197.636 190.659 197.662 190.669 197.636C190.679 197.61 190.601 197.537 190.486 197.475C190.371 197.412 190.246 197.386 190.246 197.412Z" fill="#263238"></path><path d="M189.233 197.336C189.233 197.362 189.358 197.336 189.499 197.336C189.64 197.336 189.755 197.383 189.771 197.336C189.787 197.289 189.677 197.216 189.505 197.211C189.332 197.206 189.202 197.31 189.233 197.336Z" fill="#263238"></path><path d="M188.535 197.363C188.535 197.394 188.598 197.42 188.676 197.425C188.754 197.431 188.821 197.425 188.821 197.384C188.821 197.342 188.764 197.327 188.681 197.321C188.598 197.316 188.535 197.332 188.535 197.363Z" fill="#263238"></path><path d="M144.805 102.285L149.003 195.291L163.006 195.582L160.682 117.721L186.058 196.509L197.503 193.385L171.966 102.285" fill="#263238"></path><path d="M185.459 195.981L186.112 197.231L198.241 193.706L197.504 191.676L185.459 195.981Z" fill="#455A64"></path><path d="M196.103 191.215C196.176 191.215 196.285 191.345 196.348 191.548C196.41 191.751 196.4 191.944 196.348 191.965C196.296 191.985 196.171 191.834 196.108 191.626C196.046 191.418 196.03 191.236 196.103 191.215Z" fill="#455A64"></path><path d="M195.195 188.191C195.268 188.191 195.43 188.488 195.555 188.905C195.68 189.321 195.722 189.68 195.649 189.701C195.576 189.722 195.419 189.404 195.294 188.983C195.169 188.561 195.122 188.212 195.195 188.191Z" fill="#455A64"></path><path d="M194.289 185.172C194.362 185.172 194.524 185.469 194.649 185.885C194.774 186.302 194.816 186.661 194.743 186.682C194.67 186.702 194.513 186.38 194.388 185.963C194.262 185.547 194.215 185.193 194.289 185.172Z" fill="#455A64"></path><path d="M193.378 182.168C193.451 182.168 193.613 182.465 193.739 182.881C193.864 183.298 193.906 183.657 193.833 183.678C193.76 183.699 193.603 183.376 193.478 182.959C193.352 182.543 193.305 182.168 193.378 182.168Z" fill="#455A64"></path><path d="M192.47 179.133C192.543 179.133 192.705 179.43 192.83 179.846C192.955 180.263 192.997 180.622 192.924 180.643C192.851 180.663 192.694 180.341 192.569 179.924C192.444 179.508 192.402 179.154 192.47 179.133Z" fill="#455A64"></path><path d="M191.562 176.111C191.635 176.085 191.797 176.408 191.922 176.824C192.047 177.241 192.089 177.595 192.016 177.621C191.943 177.647 191.786 177.319 191.661 176.902C191.536 176.486 191.494 176.132 191.562 176.111Z" fill="#455A64"></path><path d="M190.653 173.09C190.727 173.09 190.888 173.392 191.014 173.808C191.139 174.225 191.181 174.579 191.108 174.605C191.035 174.631 190.878 174.303 190.753 173.886C190.627 173.47 190.586 173.116 190.653 173.09Z" fill="#455A64"></path><path d="M189.726 170.07C189.799 170.07 189.961 170.372 190.086 170.789C190.212 171.205 190.254 171.559 190.18 171.58C190.107 171.601 189.951 171.283 189.825 170.867C189.7 170.45 189.679 170.096 189.726 170.07Z" fill="#455A64"></path><path d="M188.837 167.074C188.91 167.074 189.072 167.376 189.197 167.793C189.323 168.209 189.364 168.563 189.291 168.584C189.218 168.605 189.062 168.287 188.936 167.871C188.811 167.454 188.769 167.074 188.837 167.074Z" fill="#455A64"></path><path d="M187.927 164.031C188 164.031 188.162 164.333 188.287 164.75C188.412 165.166 188.454 165.52 188.381 165.541C188.308 165.562 188.151 165.244 188.026 164.828C187.901 164.411 187.859 164.052 187.927 164.031Z" fill="#455A64"></path><path d="M187.024 161.012C187.092 161.012 187.254 161.314 187.379 161.73C187.505 162.147 187.546 162.501 187.479 162.521C187.411 162.542 187.244 162.225 187.118 161.808C186.993 161.392 186.951 161.033 187.024 161.012Z" fill="#455A64"></path><path d="M186.116 157.992C186.184 157.992 186.346 158.289 186.471 158.711C186.597 159.132 186.638 159.481 186.57 159.502C186.503 159.523 186.335 159.205 186.21 158.789C186.085 158.372 186.069 158.013 186.116 157.992Z" fill="#455A64"></path><path d="M185.208 154.973C185.276 154.973 185.438 155.269 185.563 155.686C185.688 156.102 185.73 156.462 185.662 156.482C185.594 156.503 185.427 156.186 185.302 155.764C185.177 155.342 185.135 154.993 185.208 154.973Z" fill="#455A64"></path><path d="M184.298 151.973C184.366 151.973 184.527 152.269 184.653 152.686C184.778 153.102 184.82 153.462 184.752 153.482C184.684 153.503 184.517 153.18 184.392 152.764C184.266 152.347 184.225 151.973 184.298 151.973Z" fill="#455A64"></path><path d="M183.389 148.934C183.457 148.934 183.619 149.23 183.745 149.647C183.87 150.063 183.912 150.423 183.844 150.443C183.776 150.464 183.609 150.141 183.483 149.725C183.358 149.308 183.316 148.954 183.389 148.934Z" fill="#455A64"></path><path d="M182.483 145.914C182.556 145.914 182.713 146.211 182.838 146.627C182.963 147.044 183.01 147.403 182.937 147.424C182.864 147.445 182.702 147.122 182.577 146.705C182.452 146.289 182.415 145.935 182.483 145.914Z" fill="#455A64"></path><path d="M181.575 142.896C181.648 142.87 181.805 143.193 181.93 143.609C182.055 144.026 182.102 144.38 182.029 144.406C181.956 144.432 181.794 144.104 181.669 143.687C181.544 143.271 181.502 142.917 181.575 142.896Z" fill="#455A64"></path><path d="M180.665 139.867C180.738 139.867 180.895 140.169 181.02 140.586C181.145 141.002 181.192 141.356 181.119 141.382C181.046 141.408 180.884 141.08 180.759 140.664C180.634 140.247 180.592 139.893 180.665 139.867Z" fill="#455A64"></path><path d="M179.757 136.879C179.83 136.879 179.986 137.181 180.112 137.597C180.237 138.014 180.284 138.368 180.211 138.389C180.138 138.409 179.976 138.092 179.851 137.675C179.725 137.259 179.684 136.879 179.757 136.879Z" fill="#455A64"></path><path d="M178.85 133.832C178.923 133.832 179.079 134.134 179.205 134.55C179.33 134.967 179.377 135.321 179.304 135.342C179.231 135.363 179.069 135.045 178.944 134.629C178.818 134.212 178.761 133.853 178.85 133.832Z" fill="#455A64"></path><path d="M177.941 130.809C178.015 130.809 178.171 131.111 178.296 131.527C178.422 131.944 178.469 132.298 178.396 132.318C178.323 132.339 178.166 132.022 178.035 131.605C177.905 131.189 177.868 130.829 177.941 130.809Z" fill="#455A64"></path><path d="M177.031 127.793C177.104 127.793 177.26 128.095 177.386 128.511C177.511 128.928 177.558 129.282 177.485 129.303C177.412 129.324 177.255 129.006 177.13 128.589C177.005 128.173 176.958 127.814 177.031 127.793Z" fill="#455A64"></path><path d="M176.148 124.773C176.221 124.773 176.378 125.07 176.503 125.492C176.628 125.914 176.675 126.262 176.602 126.283C176.529 126.304 176.372 125.986 176.247 125.57C176.122 125.153 176.049 124.794 176.148 124.773Z" fill="#455A64"></path><path d="M175.214 121.781C175.287 121.781 175.444 122.078 175.575 122.494C175.705 122.911 175.742 123.27 175.669 123.291C175.595 123.312 175.439 122.994 175.314 122.573C175.188 122.151 175.141 121.781 175.214 121.781Z" fill="#455A64"></path><path d="M174.308 118.734C174.381 118.734 174.543 119.031 174.668 119.448C174.794 119.864 174.835 120.223 174.762 120.244C174.689 120.265 174.533 119.942 174.407 119.526C174.282 119.109 174.235 118.755 174.308 118.734Z" fill="#455A64"></path><path d="M173.398 115.715C173.471 115.715 173.633 116.012 173.758 116.428C173.884 116.845 173.925 117.204 173.852 117.225C173.779 117.245 173.622 116.923 173.497 116.506C173.372 116.09 173.325 115.736 173.398 115.715Z" fill="#455A64"></path><path d="M172.494 112.695C172.567 112.695 172.729 112.992 172.854 113.409C172.98 113.825 173.021 114.184 172.948 114.205C172.875 114.226 172.719 113.903 172.593 113.487C172.468 113.07 172.416 112.716 172.494 112.695Z" fill="#455A64"></path><path d="M171.582 109.677C171.655 109.651 171.816 109.974 171.942 110.39C172.067 110.807 172.109 111.161 172.036 111.187C171.963 111.213 171.806 110.885 171.681 110.469C171.555 110.052 171.508 109.698 171.582 109.677Z" fill="#455A64"></path><path d="M170.671 106.648C170.744 106.648 170.906 106.95 171.031 107.367C171.157 107.783 171.198 108.137 171.125 108.163C171.052 108.189 170.896 107.861 170.77 107.445C170.645 107.028 170.603 106.68 170.671 106.648Z" fill="#455A64"></path><path d="M169.994 104.395C170.067 104.395 170.176 104.519 170.238 104.728C170.301 104.936 170.291 105.118 170.238 105.139C170.186 105.16 170.061 105.014 169.999 104.806C169.937 104.598 169.921 104.415 169.994 104.395Z" fill="#455A64"></path><path d="M160.594 194.816C160.667 194.816 160.735 194.983 160.751 195.196C160.766 195.41 160.709 195.592 160.631 195.597C160.553 195.603 160.49 195.431 160.48 195.212C160.47 194.993 160.516 194.822 160.594 194.816Z" fill="#455A64"></path><path d="M160.485 191.719C160.558 191.719 160.636 192.057 160.652 192.489C160.668 192.921 160.621 193.265 160.543 193.265C160.464 193.265 160.397 192.927 160.381 192.5C160.366 192.073 160.392 191.719 160.485 191.719Z" fill="#455A64"></path><path d="M160.37 188.625C160.443 188.625 160.516 188.963 160.526 189.395C160.536 189.828 160.49 190.171 160.412 190.171C160.333 190.171 160.266 189.828 160.255 189.401C160.245 188.974 160.292 188.625 160.37 188.625Z" fill="#455A64"></path><path d="M160.293 185.52C160.366 185.52 160.434 185.863 160.444 186.29C160.454 186.717 160.402 187.066 160.329 187.071C160.257 187.076 160.184 186.727 160.173 186.3C160.163 185.874 160.215 185.52 160.293 185.52Z" fill="#455A64"></path><path d="M160.214 182.418C160.292 182.418 160.359 182.762 160.37 183.194C160.38 183.626 160.328 183.969 160.255 183.969C160.182 183.969 160.109 183.626 160.099 183.199C160.089 182.772 160.141 182.423 160.214 182.418Z" fill="#455A64"></path><path d="M160.135 179.316C160.208 179.316 160.281 179.66 160.292 180.092C160.302 180.524 160.25 180.868 160.177 180.868C160.104 180.868 160.031 180.524 160.021 180.097C160.01 179.67 160.063 179.322 160.135 179.316Z" fill="#455A64"></path><path d="M160.029 176.219C160.107 176.219 160.18 176.557 160.196 176.989C160.212 177.421 160.16 177.765 160.087 177.77C160.014 177.775 159.936 177.427 159.925 177C159.915 176.573 159.962 176.219 160.029 176.219Z" fill="#455A64"></path><path d="M159.9 173.121C159.978 173.121 160.051 173.459 160.072 173.886C160.092 174.313 160.04 174.667 159.967 174.667C159.895 174.667 159.816 174.329 159.796 173.897C159.775 173.465 159.827 173.121 159.9 173.121Z" fill="#455A64"></path><path d="M159.781 170.02C159.854 170.02 159.932 170.363 159.948 170.79C159.963 171.217 159.916 171.566 159.838 171.571C159.76 171.576 159.692 171.227 159.677 170.8C159.661 170.374 159.708 170.025 159.781 170.02Z" fill="#455A64"></path><path d="M159.671 166.922C159.749 166.922 159.822 167.265 159.832 167.692C159.842 168.119 159.801 168.468 159.723 168.473C159.645 168.478 159.577 168.13 159.561 167.703C159.546 167.276 159.598 166.927 159.671 166.922Z" fill="#455A64"></path><path d="M159.574 163.82C159.647 163.82 159.72 164.164 159.73 164.591C159.741 165.018 159.694 165.367 159.621 165.372C159.548 165.377 159.475 165.028 159.46 164.601C159.444 164.174 159.501 163.826 159.574 163.82Z" fill="#455A64"></path><path d="M159.492 160.723C159.571 160.723 159.638 161.066 159.649 161.493C159.659 161.92 159.607 162.269 159.534 162.269C159.461 162.269 159.388 161.925 159.378 161.498C159.368 161.071 159.44 160.723 159.492 160.723Z" fill="#455A64"></path><path d="M159.441 157.617C159.513 157.617 159.581 157.961 159.592 158.393C159.602 158.825 159.545 159.169 159.472 159.169C159.399 159.169 159.326 158.825 159.321 158.398C159.316 157.971 159.352 157.617 159.441 157.617Z" fill="#455A64"></path><path d="M159.377 154.52C159.45 154.52 159.518 154.863 159.523 155.29C159.528 155.717 159.476 156.066 159.398 156.066C159.32 156.066 159.258 155.722 159.252 155.295C159.247 154.868 159.299 154.52 159.377 154.52Z" fill="#455A64"></path><path d="M159.336 151.418C159.414 151.418 159.477 151.762 159.482 152.194C159.487 152.626 159.43 152.969 159.357 152.969C159.284 152.969 159.216 152.621 159.211 152.194C159.206 151.767 159.263 151.418 159.336 151.418Z" fill="#455A64"></path><path d="M159.314 148.328C159.392 148.328 159.455 148.677 159.455 149.104C159.455 149.531 159.397 149.88 159.324 149.88C159.252 149.88 159.189 149.536 159.184 149.104C159.179 148.672 159.241 148.328 159.314 148.328Z" fill="#455A64"></path><path d="M159.311 145.207C159.384 145.207 159.447 145.551 159.447 145.983C159.447 146.415 159.389 146.753 159.311 146.758C159.233 146.764 159.176 146.41 159.176 145.983C159.176 145.556 159.238 145.207 159.311 145.207Z" fill="#455A64"></path><path d="M159.32 142.113C159.393 142.113 159.45 142.462 159.45 142.889C159.45 143.316 159.388 143.665 159.31 143.665C159.232 143.665 159.18 143.316 159.18 142.889C159.18 142.462 159.242 142.113 159.32 142.113Z" fill="#455A64"></path><path d="M159.342 139.012C159.42 139.012 159.477 139.361 159.472 139.787C159.467 140.214 159.405 140.563 159.332 140.563C159.259 140.563 159.196 140.214 159.201 139.787C159.207 139.361 159.269 139.012 159.342 139.012Z" fill="#455A64"></path><path d="M159.384 135.914C159.457 135.914 159.515 136.263 159.509 136.69C159.504 137.117 159.436 137.465 159.364 137.465C159.291 137.465 159.233 137.117 159.239 136.685C159.244 136.252 159.312 135.914 159.384 135.914Z" fill="#455A64"></path><path d="M159.441 132.812C159.514 132.812 159.566 133.167 159.561 133.593C159.556 134.02 159.483 134.364 159.41 134.364C159.337 134.364 159.28 134.015 159.29 133.588C159.301 133.161 159.363 132.812 159.441 132.812Z" fill="#455A64"></path><path d="M159.509 129.711C159.582 129.711 159.634 130.065 159.624 130.492C159.613 130.919 159.545 131.268 159.473 131.262C159.4 131.257 159.342 130.914 159.353 130.487C159.363 130.06 159.441 129.711 159.509 129.711Z" fill="#455A64"></path><path d="M159.617 126.605C159.69 126.605 159.737 126.959 159.721 127.386C159.706 127.813 159.633 128.162 159.555 128.157C159.477 128.152 159.435 127.808 159.451 127.376C159.466 126.944 159.544 126.605 159.617 126.605Z" fill="#455A64"></path><path d="M159.8 123.516C159.873 123.516 159.909 123.87 159.883 124.297C159.857 124.724 159.774 125.067 159.696 125.062C159.618 125.057 159.586 124.708 159.613 124.276C159.639 123.844 159.722 123.505 159.8 123.516Z" fill="#455A64"></path><path d="M160.083 120.422C160.161 120.422 160.182 120.781 160.14 121.208C160.099 121.635 160 121.973 159.927 121.968C159.854 121.963 159.828 121.609 159.869 121.182C159.911 120.755 160.01 120.417 160.083 120.422Z" fill="#455A64"></path><path d="M160.385 118.136C160.457 118.136 160.494 118.329 160.463 118.537C160.431 118.745 160.348 118.917 160.275 118.907C160.202 118.896 160.166 118.714 160.192 118.501C160.218 118.287 160.312 118.105 160.385 118.136Z" fill="#455A64"></path><path d="M148.639 195.743L163.446 195.982L163.331 193.52L148.639 193.598V195.743Z" fill="#455A64"></path><path d="M158.349 103.461C158.401 103.646 158.431 103.836 158.437 104.028C158.474 104.398 158.526 104.929 158.578 105.59C158.683 106.907 158.813 108.714 158.933 110.734C158.996 111.733 159.048 112.691 159.1 113.566C159.092 114.329 159.183 115.091 159.372 115.83C159.526 116.314 159.866 116.716 160.317 116.95C160.486 117.016 160.661 117.068 160.839 117.106C160.789 117.118 160.737 117.118 160.688 117.106C160.541 117.106 160.396 117.08 160.26 117.028C160.009 116.92 159.784 116.763 159.597 116.565C159.41 116.367 159.266 116.133 159.174 115.877C158.953 115.125 158.839 114.345 158.834 113.561C158.777 112.686 158.714 111.728 158.651 110.729C158.526 108.719 158.427 106.902 158.369 105.585C158.338 104.924 158.322 104.393 158.317 104.023C158.302 103.835 158.313 103.646 158.349 103.461Z" fill="#455A64"></path><path d="M159.785 104.69C159.785 104.727 159.67 104.82 159.655 105.039C159.651 105.097 159.658 105.154 159.677 105.209C159.696 105.263 159.726 105.314 159.764 105.357C159.814 105.399 159.875 105.426 159.939 105.436C160.004 105.445 160.07 105.436 160.13 105.409C160.192 105.387 160.247 105.348 160.287 105.297C160.328 105.245 160.353 105.183 160.36 105.117C160.357 105.06 160.343 105.003 160.318 104.951C160.293 104.899 160.257 104.853 160.213 104.815C160.051 104.664 159.884 104.695 159.879 104.654C159.874 104.612 160.051 104.498 160.328 104.654C160.407 104.703 160.473 104.769 160.522 104.848C160.571 104.926 160.601 105.015 160.61 105.107C160.61 105.227 160.574 105.345 160.506 105.445C160.438 105.545 160.342 105.623 160.229 105.667C160.117 105.712 159.994 105.723 159.875 105.697C159.757 105.671 159.649 105.611 159.566 105.523C159.507 105.452 159.465 105.367 159.445 105.277C159.425 105.186 159.427 105.092 159.451 105.003C159.555 104.701 159.785 104.659 159.785 104.69Z" fill="#455A64"></path><path d="M172.964 106.901C172.615 107.137 172.217 107.289 171.799 107.343C170.794 107.545 169.751 107.429 168.815 107.012C167.88 106.595 167.097 105.897 166.578 105.016C166.339 104.67 166.185 104.272 166.129 103.855C166.176 103.855 166.317 104.293 166.74 104.897C167.275 105.709 168.032 106.353 168.922 106.75C169.812 107.148 170.798 107.283 171.763 107.14C172.494 107.052 172.948 106.859 172.964 106.901Z" fill="#455A64"></path><path d="M149.677 103.461C149.746 103.797 149.728 104.144 149.625 104.471C149.436 105.279 148.998 106.007 148.372 106.553C147.743 107.101 146.958 107.439 146.127 107.522C145.789 107.58 145.442 107.551 145.119 107.438C145.119 107.391 145.511 107.438 146.106 107.329C146.879 107.201 147.602 106.862 148.194 106.35C148.778 105.829 149.209 105.159 149.442 104.414C149.62 103.846 149.63 103.461 149.677 103.461Z" fill="#455A64"></path><path d="M147.596 63.0261C147.596 63.0261 133.645 68.9089 133.201 68.685C132.757 68.4612 132.444 57.2578 132.444 57.2578H125.505C125.505 57.2578 124.189 73.8754 128.371 76.5201C134.089 80.1643 147.93 72.5844 147.93 72.5844L147.596 63.0261Z" fill="#FFBE9D"></path><path d="M101.005 42.9535L99.5742 49.1695L106.268 50.7574C106.268 50.7574 109.019 51.3665 111.755 55.2554C114.491 59.1443 115.551 60.8675 115.551 60.8675L120.188 38.0234L115.154 41.6052C114.157 42.3047 113.048 42.8326 111.875 43.167C110.44 43.5835 108.523 44.0572 107.453 44.0052C105.283 43.797 103.129 43.4457 101.005 42.9535Z" fill="#263238"></path><path d="M176.112 69.4678L115.551 60.8675L120.187 38.0234L179.072 52.1838C179.706 52.3357 180.259 52.7213 180.62 53.2632C180.98 53.8051 181.121 54.4629 181.015 55.1044L179.025 67.3282C178.911 67.991 178.544 68.584 178.001 68.9829C177.458 69.3818 176.781 69.5556 176.112 69.4678Z" fill="#007456"></path><path d="M95.6009 43.2464C95.559 43.2388 95.5158 43.2415 95.4752 43.2543C95.4346 43.2672 95.3977 43.2897 95.3679 43.32C95.338 43.3503 95.316 43.3874 95.3038 43.4281C95.2917 43.4689 95.2897 43.5119 95.298 43.5536C95.5515 44.9047 95.8845 46.2397 96.2953 47.5518C96.4363 47.911 99.7883 48.2338 99.7883 48.2338L100.712 44.2199L95.6009 43.2464Z" fill="#007456"></path><path d="M171.251 61.6003L172.176 57.9093L133.053 49.9961L132.254 53.708L171.251 61.6003Z" fill="#263238"></path><path d="M163.649 61.4777L155.002 60.7853C154.945 59.7805 155.002 55.8864 155.002 55.8864C155.002 55.8864 151.405 55.3294 151.347 51.7216C151.29 48.1138 151.927 39.9039 151.927 39.9039C153.97 39.0261 156.211 38.708 158.418 38.9825C160.626 39.2571 162.72 40.1143 164.484 41.4657L165.006 41.877L163.649 61.4777Z" fill="#FFBE9D"></path><path d="M152.783 46.0805C152.877 45.9857 152.93 45.859 152.933 45.7263C152.935 45.5936 152.887 45.4649 152.798 45.3665C152.708 45.2681 152.585 45.2074 152.452 45.1969C152.319 45.1864 152.188 45.2269 152.084 45.31C152.032 45.3559 151.991 45.4116 151.961 45.4737C151.931 45.5359 151.914 45.6033 151.911 45.672C151.907 45.7408 151.918 45.8095 151.941 45.8743C151.965 45.939 152.001 45.9985 152.047 46.0492C152.141 46.1505 152.271 46.2106 152.409 46.2164C152.547 46.2223 152.682 46.1734 152.783 46.0805Z" fill="#263238"></path><path d="M151.913 45.2485C151.97 45.3109 152.325 45.0402 152.816 45.0402C153.307 45.0402 153.672 45.2901 153.73 45.2277C153.787 45.1652 153.698 45.0871 153.542 44.9674C153.33 44.8175 153.076 44.7374 152.816 44.7383C152.555 44.7409 152.302 44.8287 152.095 44.9882C151.939 45.1235 151.887 45.2485 151.913 45.2485Z" fill="#263238"></path><path d="M157.621 45.699C157.559 45.7333 157.505 45.7796 157.462 45.8352C157.419 45.8909 157.388 45.9546 157.37 46.0226C157.353 46.0906 157.349 46.1615 157.359 46.231C157.37 46.3005 157.394 46.3671 157.431 46.4269C157.468 46.4867 157.517 46.5384 157.575 46.5788C157.632 46.6193 157.698 46.6478 157.767 46.6624C157.835 46.6771 157.907 46.6777 157.976 46.6642C158.045 46.6508 158.111 46.6235 158.169 46.584C158.286 46.5118 158.37 46.3964 158.403 46.2628C158.435 46.1292 158.413 45.9882 158.341 45.8708C158.305 45.8121 158.258 45.7611 158.203 45.7208C158.147 45.6804 158.084 45.6513 158.017 45.6354C157.95 45.6194 157.88 45.6168 157.812 45.6277C157.744 45.6386 157.679 45.6628 157.621 45.699Z" fill="#263238"></path><path d="M157.295 45.7018C157.348 45.7643 157.703 45.4936 158.199 45.4884C158.695 45.4832 159.055 45.7435 159.107 45.681C159.159 45.6185 159.081 45.5404 158.924 45.4207C158.712 45.2671 158.456 45.1867 158.193 45.1916C157.933 45.195 157.681 45.2806 157.473 45.4363C157.321 45.5612 157.264 45.6758 157.295 45.7018Z" fill="#263238"></path><path d="M155.306 49.7741C155.051 49.6747 154.781 49.6184 154.507 49.6075C154.377 49.6075 154.277 49.5659 154.267 49.493C154.262 49.364 154.292 49.236 154.356 49.1234C154.486 48.8006 154.617 48.4674 154.753 48.1186C155.122 47.2708 155.405 46.3884 155.598 45.4844C155.143 46.2899 154.77 47.1394 154.486 48.0197C154.361 48.3685 154.236 48.7017 154.116 49.0609C154.036 49.2224 154.011 49.4046 154.042 49.5815C154.062 49.6302 154.092 49.6738 154.131 49.709C154.17 49.7442 154.216 49.77 154.267 49.7846C154.339 49.8031 154.412 49.8135 154.486 49.8158C154.76 49.8505 155.037 49.8364 155.306 49.7741Z" fill="#263238"></path><path d="M156.914 50.3215C157.436 50.0143 155.494 51.0764 154.486 51.0243C154.658 51.2805 154.911 51.4714 155.205 51.5659C155.498 51.6604 155.816 51.653 156.105 51.5449C157.18 51.1753 156.914 50.3215 156.914 50.3215Z" fill="white"></path><path d="M155.014 55.8354C156.678 55.8695 158.314 55.4072 159.713 54.5078C159.713 54.5078 158.606 57.1108 155.014 56.7672V55.8354Z" fill="#EB996E"></path><path d="M165.059 45.3736C165.138 45.3476 167.738 45.1758 167.31 48.1953C166.882 51.2148 163.958 49.7883 163.963 49.6998C163.968 49.6113 165.059 45.3736 165.059 45.3736Z" fill="#FFBE9D"></path><path d="M165.045 48.7714C165.045 48.7714 165.092 48.8183 165.175 48.8703C165.234 48.9064 165.299 48.9304 165.367 48.9411C165.436 48.9519 165.505 48.949 165.572 48.9328C165.786 48.8379 165.97 48.6872 166.105 48.4966C166.24 48.306 166.321 48.0826 166.34 47.85C166.383 47.5918 166.371 47.3273 166.303 47.0743C166.288 46.9763 166.249 46.8834 166.19 46.8036C166.131 46.7238 166.053 46.6595 165.964 46.6161C165.905 46.5919 165.84 46.5885 165.779 46.6065C165.718 46.6245 165.665 46.6629 165.63 46.715C165.577 46.7931 165.588 46.8556 165.572 46.8608C165.556 46.866 165.515 46.8035 165.572 46.6786C165.598 46.6054 165.65 46.5443 165.718 46.5068C165.811 46.457 165.919 46.444 166.021 46.4704C166.139 46.5111 166.244 46.5798 166.329 46.6706C166.413 46.7613 166.474 46.8713 166.507 46.991C166.597 47.2717 166.618 47.5697 166.569 47.8604C166.546 48.1323 166.442 48.3913 166.271 48.6044C166.1 48.8175 165.87 48.9753 165.609 49.0578C165.524 49.0702 165.438 49.063 165.356 49.0368C165.275 49.0107 165.2 48.9662 165.139 48.9068C165.04 48.8495 165.034 48.7766 165.045 48.7714Z" fill="#EB996E"></path><path d="M151.964 39.8155C152.898 42.278 156.48 43.2515 159.112 43.3973C157.895 42.33 158.647 42.5539 157.895 41.8042C159.925 43.5553 162.52 44.5182 165.205 44.5166C165.406 43.9084 165.483 43.2662 165.431 42.6278C165.38 41.9895 165.2 41.368 164.903 40.8001C164.606 40.2322 164.198 39.7294 163.703 39.3216C163.207 38.9137 162.635 38.609 162.02 38.4255C161.21 38.1808 160.349 38.16 159.524 37.9674C158.83 37.806 158.161 37.5301 157.436 37.4468C155.316 37.1344 151.875 36.5618 151.932 39.8364" fill="#263238"></path><path d="M163.617 43.168C163.753 43.5168 164.51 47.5879 164.51 47.5879L165.429 43.6625L163.617 43.168Z" fill="#263238"></path><path d="M189.334 93.5153C190.724 91.9211 191.486 89.8777 191.478 87.7652C191.471 85.6527 190.694 83.6148 189.292 82.0308L175.33 66.2461L171.592 76.6581C171.848 76.8247 182.462 88.1739 182.462 88.1739L173.341 99.5126C172.648 100.372 172.185 101.392 171.995 102.478C171.806 103.565 171.895 104.681 172.255 105.723L174.693 111.674L181.371 108.691L180.849 107.915H175.842L175.544 106.718L189.334 93.5153Z" fill="#FFBE9D"></path><path d="M182.717 72.9198L173.899 64.0695C172.199 62.2988 170.11 60.9477 167.795 60.1234C166.568 59.6864 165.28 59.4405 163.978 59.3945C160.98 60.342 157.761 60.342 154.763 59.3945C152.239 59.6693 149.78 60.3737 147.495 61.4769L134.332 66.8027L138.556 78.4121L145.62 76.0434L146.038 86.9761L144.639 103.307L171.972 103.557L171.617 88.7409V78.0269L175.564 81.8533L182.717 72.9198Z" fill="#455A64"></path></svg>