<?xml version="1.0" standalone="no"?>
<!DOCTYPE svg PUBLIC "-//W3C//DTD SVG 20010904//EN"
 "http://www.w3.org/TR/2001/REC-SVG-20010904/DTD/svg10.dtd">
<svg version="1.0" xmlns="http://www.w3.org/2000/svg"
 width="352.000000pt" height="96.000000pt" viewBox="0 0 352.000000 96.000000"
 preserveAspectRatio="xMidYMid meet">

<g transform="translate(0.000000,96.000000) scale(0.100000,-0.100000)"
fill="#000000" stroke="none">
<path d="M20 480 l0 -480 1740 0 1740 0 0 480 0 480 -1740 0 -1740 0 0 -480z
m3450 0 l0 -450 -1715 0 -1715 0 0 450 0 450 1715 0 1715 0 0 -450z"/>
<path d="M110 480 l0 -390 870 0 870 0 0 390 0 390 -870 0 -870 0 0 -390z
m280 130 c0 -17 -7 -20 -45 -20 l-45 0 0 -115 c0 -108 -1 -115 -20 -115 -19 0
-20 7 -20 115 l0 115 -40 0 c-33 0 -40 3 -40 20 0 19 7 20 105 20 98 0 105 -1
105 -20z m238 -107 c29 -71 52 -131 52 -135 0 -5 -8 -8 -18 -8 -10 0 -22 12
-29 30 -11 29 -14 30 -73 30 -59 0 -62 -1 -73 -30 -7 -18 -19 -30 -29 -30 -10
0 -18 3 -18 8 0 4 23 64 51 135 37 93 56 127 68 127 12 0 31 -35 69 -127z
m162 12 l0 -115 65 0 c58 0 65 -2 65 -20 0 -18 -7 -20 -85 -20 l-85 0 0 128
c0 130 2 142 27 142 10 0 13 -26 13 -115z m360 95 c0 -18 -7 -20 -60 -20 l-60
0 0 -35 0 -34 58 -3 c43 -2 57 -7 57 -18 0 -11 -14 -16 -57 -18 l-58 -3 0 -39
0 -39 62 -3 c50 -2 63 -6 66 -20 3 -16 -6 -18 -82 -18 l-86 0 0 135 0 135 80
0 c73 0 80 -2 80 -20z m197 -76 l68 -97 3 97 c2 88 4 96 22 96 19 0 20 -7 20
-135 0 -173 -7 -175 -108 -33 l-72 102 0 -102 c0 -84 -3 -102 -15 -102 -13 0
-15 22 -15 135 0 112 2 135 15 135 8 0 45 -43 82 -96z m401 74 c3 -15 -4 -18
-42 -18 l-46 0 0 -115 c0 -108 -1 -115 -20 -115 -19 0 -20 7 -20 115 l0 115
-45 0 c-31 0 -45 4 -45 13 0 25 13 28 114 25 87 -3 101 -5 104 -20z"/>
<path d="M536 517 c-9 -23 -16 -46 -16 -50 0 -4 18 -7 41 -7 29 0 40 4 36 13
-2 6 -10 29 -18 50 -7 20 -16 37 -20 37 -3 0 -14 -19 -23 -43z"/>
<path d="M2012 493 l3 -128 72 -3 c51 -2 81 2 103 13 46 24 59 77 25 105 -11
9 -11 16 1 38 19 37 18 49 -11 77 -22 23 -32 25 -110 25 l-86 0 3 -127z m136
55 c-2 -17 -11 -24 -30 -26 -24 -3 -28 0 -28 22 0 22 4 26 31 26 26 0 30 -3
27 -22z m7 -103 c0 -15 -8 -21 -32 -23 -30 -3 -33 -1 -33 23 0 24 3 26 33 23
24 -2 32 -8 32 -23z"/>
<path d="M2280 490 l0 -131 88 3 87 3 3 33 3 32 -55 0 -56 0 0 95 0 95 -35 0
-35 0 0 -130z"/>
<path d="M2500 490 l0 -130 90 0 90 0 0 30 c0 30 -1 30 -55 30 -52 0 -55 1
-55 25 0 23 4 25 45 25 41 0 45 2 45 25 0 23 -4 25 -45 25 -38 0 -45 3 -45 20
0 17 7 20 50 20 49 0 50 1 50 30 l0 30 -85 0 -85 0 0 -130z"/>
<path d="M2722 493 l3 -128 35 0 35 0 5 64 5 63 47 -66 c41 -56 52 -66 78 -66
l30 0 0 130 0 130 -35 0 -35 0 0 -60 c0 -33 -4 -60 -8 -60 -5 0 -28 27 -52 60
-38 53 -48 60 -77 60 l-34 0 3 -127z"/>
<path d="M3020 489 l0 -132 79 5 c116 7 165 47 163 133 -1 90 -47 125 -164
125 l-78 0 0 -131z m157 44 c32 -43 1 -103 -53 -103 l-34 0 0 66 0 67 37 -6
c21 -4 44 -14 50 -24z"/>
</g>
</svg>
