<svg xmlns="http://www.w3.org/2000/svg" width="228" height="138" viewBox="0 0 228 138" fill="none"><path d="M223.994 9.57812H190.174V65.6276H223.994V9.57812Z" fill="#E0E0E0"></path><path d="M222.872 9.57812H189.052V65.6276H222.872V9.57812Z" fill="#EBEBEB"></path><path d="M221.43 10.7148H190.491V64.4899H221.43V10.7148Z" fill="#FAFAFA"></path><path d="M215.405 17.7031H196.38V57.5054H215.405V17.7031Z" fill="#EBEBEB"></path><path d="M196.38 43.4257C196.338 39.7072 199.678 36.0791 203.354 35.559C205.109 35.3134 206.971 35.6591 208.61 34.9871C211.534 33.7885 212.463 29.8955 215.406 28.7422L215.541 57.5116H196.38V43.4257Z" fill="#E0E0E0"></path><path d="M59.764 0.734375H36.5693V24.9388H59.764V0.734375Z" fill="#E0E0E0"></path><path d="M58.1924 0.734375H35.001V24.9388H58.1924V0.734375Z" fill="#FAFAFA"></path><path d="M58.1987 24.9451H34.9912V0.714844H58.1987V24.9451ZM35.0073 24.9451H58.1858V0.740689H35.0073V24.9451Z" fill="#E0E0E0"></path><path d="M55.0753 3.98438H38.1182V21.6822H55.0753V3.98438Z" fill="white"></path><path d="M38.118 21.7969C37.9969 21.9748 37.8562 22.1384 37.6985 22.2847C37.4274 22.5722 37.0531 22.9567 36.6207 23.3799C36.1883 23.8031 35.8011 24.1747 35.5139 24.4396C35.3662 24.5942 35.2017 24.7318 35.0234 24.8499C35.1409 24.6712 35.2808 24.5084 35.4397 24.3653C35.7108 24.0778 36.0851 23.6901 36.5207 23.2668C36.9563 22.8436 37.3403 22.4689 37.6307 22.2039C37.7764 22.0493 37.94 21.9127 38.118 21.7969Z" fill="#E0E0E0"></path><path d="M55.0752 21.7578C55.2525 21.8783 55.4159 22.0181 55.5624 22.1746C55.8464 22.446 56.2336 22.8207 56.6531 23.2536C57.0726 23.6865 57.4502 24.0742 57.7148 24.365C57.8698 24.5123 58.0073 24.6771 58.1246 24.8561C57.9464 24.7368 57.7828 24.5969 57.6373 24.4393C57.3533 24.1679 56.9661 23.7932 56.5434 23.357C56.1207 22.9209 55.7464 22.5364 55.4818 22.2456C55.3282 22.099 55.1918 21.9353 55.0752 21.7578Z" fill="#E0E0E0"></path><path d="M55.0303 4.03026C55.1478 3.85158 55.2877 3.68872 55.4465 3.54565C55.7176 3.25812 56.0919 2.87043 56.5243 2.45044C56.9567 2.03045 57.3439 1.65569 57.6343 1.38754C57.7798 1.23142 57.9446 1.09461 58.1248 0.980469C58.0028 1.15565 57.8633 1.31801 57.7086 1.46507C57.4375 1.75261 57.0632 2.14029 56.6276 2.56028C56.1919 2.98028 55.8047 3.35827 55.5175 3.62642C55.3717 3.77989 55.2081 3.91546 55.0303 4.03026Z" fill="#E0E0E0"></path><path d="M38.0696 4.07872C37.8934 3.95687 37.7311 3.81603 37.5856 3.65872C37.2984 3.38734 36.9111 3.01258 36.4917 2.57967C36.0722 2.14675 35.6979 1.75907 35.43 1.47154C35.2759 1.32426 35.1394 1.15945 35.0234 0.980469C35.2019 1.09812 35.3646 1.23818 35.5075 1.39723C35.7947 1.66861 36.1819 2.04337 36.6014 2.47952C37.0209 2.91566 37.3984 3.30011 37.6662 3.59088C37.8204 3.73607 37.9559 3.89995 38.0696 4.07872Z" fill="#E0E0E0"></path><path d="M55.0302 21.6871C55.0279 21.6581 55.0279 21.6289 55.0302 21.5999C55.0302 21.5385 55.0302 21.4577 55.0302 21.3543C55.0302 21.1314 55.0302 20.8116 55.0302 20.3851C55.0302 19.5484 55.0302 18.3272 55.0302 16.7796C55.0302 13.6782 55.0109 9.26179 54.9947 3.97636L55.0625 4.04097H38.1506L38.2248 3.96666C38.2248 10.4604 38.2248 16.5373 38.2248 21.6645L38.1602 21.5999L50.4061 21.6322L53.8427 21.6483H54.7527H54.7689H53.8718L50.4449 21.6677L38.1602 21.7H38.0957V21.6354C38.0957 16.5083 38.0957 10.4313 38.0957 3.93759V3.86328H38.1699H55.0819H55.1464V3.9279C55.1464 9.23271 55.1206 13.662 55.1141 16.7732C55.1141 18.3142 55.098 19.529 55.0948 20.3625C55.0948 20.7728 55.0948 21.0862 55.0948 21.3059C55.0948 21.4092 55.0948 21.4868 55.0948 21.5449C55.0948 21.6031 55.0302 21.6871 55.0302 21.6871Z" fill="#E0E0E0"></path><path d="M49.4285 10.0039H43.7686V15.6706H49.4285V10.0039Z" fill="#EBEBEB"></path><path d="M29.1063 18.1211H6.56348V50.8352H29.1063V18.1211Z" fill="#E0E0E0"></path><path d="M27.9764 18.1211H5.43359V50.8352H27.9764V18.1211Z" fill="#F5F5F5"></path><path d="M25.1754 21.6641H8.23438V47.2933H25.1754V21.6641Z" fill="white"></path><path d="M25.178 47.2891C25.178 47.2891 25.178 47.2471 25.178 47.1664C25.178 47.0856 25.178 46.9596 25.178 46.8013C25.178 46.4782 25.178 46.0098 25.178 45.3959C25.178 44.1683 25.178 42.3785 25.178 40.117C25.178 35.594 25.178 29.1972 25.149 21.6599L25.2071 21.7181H8.23382L8.29513 21.6567C8.29513 31.3262 8.29513 40.2397 8.29513 47.2859L8.2435 47.2374L20.5765 47.2633H23.9841H24.8779H25.2006C25.2006 47.2633 25.1006 47.2633 24.9005 47.2633H24.0164H20.6185L8.25641 47.2891H8.20801V47.2374C8.20801 40.1913 8.20801 31.2778 8.20801 21.6083V21.5469H8.27254H25.2135H25.2684V21.6018C25.2684 29.1552 25.249 35.5681 25.2426 40.0944C25.2426 42.3559 25.2426 44.136 25.2264 45.3636C25.2264 45.9678 25.2264 46.4362 25.2264 46.7561C25.2264 46.9111 25.2264 47.0307 25.2264 47.1147C25.2264 47.1987 25.178 47.2891 25.178 47.2891Z" fill="#E0E0E0"></path><path d="M28.0285 18.1211C27.9171 18.3292 27.7875 18.5271 27.6413 18.7123C27.3799 19.0612 26.9959 19.5394 26.5829 20.0531C26.1698 20.5667 25.7632 21.0223 25.4696 21.3453C25.3189 21.5284 25.1526 21.6981 24.9727 21.8526C25.1001 21.6557 25.2436 21.4699 25.4018 21.2969L26.4893 19.9787L27.5735 18.6606C27.7091 18.4678 27.8613 18.2872 28.0285 18.1211Z" fill="#E0E0E0"></path><path d="M25.2656 47.2109C26.1059 48.5526 27.0965 49.7937 28.2182 50.9101L25.2656 47.2109Z" fill="white"></path><path d="M28.219 50.9101C28.0311 50.7734 27.8591 50.6163 27.7059 50.4416C27.3123 50.0412 26.9396 49.6206 26.5894 49.1817C26.1796 48.668 25.8408 48.1801 25.6213 47.8183C25.4851 47.6292 25.3704 47.4255 25.2793 47.2109C25.4299 47.3873 25.5679 47.5741 25.6923 47.7698C25.9408 48.1188 26.2925 48.5937 26.6991 49.1074C27.1057 49.621 27.4961 50.0766 27.7801 50.3835C27.9404 50.5468 28.0872 50.7229 28.219 50.9101Z" fill="#E0E0E0"></path><path d="M5.43945 50.8115L8.39202 47.1641L5.43945 50.8115Z" fill="white"></path><path d="M8.38234 47.1644C7.94083 47.8111 7.46471 48.4333 6.95607 49.0285C6.48276 49.6497 5.97649 50.245 5.43945 50.8119C5.88424 50.1678 6.36135 49.5467 6.86895 48.951C7.67566 47.943 8.34362 47.145 8.38234 47.1644Z" fill="#E0E0E0"></path><path d="M5.43945 18.1211C5.95006 18.6653 6.42948 19.2381 6.8754 19.8366C7.34962 20.4072 7.7934 21.0025 8.20487 21.6199C7.69591 21.0751 7.2176 20.5024 6.77214 19.9044C6.29667 19.334 5.85182 18.7388 5.43945 18.1211Z" fill="#E0E0E0"></path><path d="M19.8994 26.8672H14.2266V42.9949H19.8994V26.8672Z" fill="#E0E0E0"></path><path d="M227.725 137.791C227.725 137.836 176.741 137.875 113.869 137.875C50.9972 137.875 0 137.836 0 137.791C0 137.746 50.9843 137.707 113.869 137.707C176.754 137.707 227.725 137.746 227.725 137.791Z" fill="#263238"></path><path d="M56.1577 37.0469H201.615C202.191 37.0469 202.745 37.2763 203.152 37.6846C203.56 38.093 203.789 38.6469 203.789 39.2244V131.742C203.789 132.99 203.294 134.188 202.412 135.071C201.531 135.953 200.335 136.449 199.088 136.449H58.3617C57.1148 136.449 55.9189 135.953 55.0372 135.071C54.1555 134.188 53.6602 132.99 53.6602 131.742V39.5539C53.6602 38.8899 53.9236 38.253 54.3926 37.7835C54.8616 37.3139 55.4977 37.0501 56.161 37.0501L56.1577 37.0469Z" fill="#263238"></path><path d="M47.3896 129.098H210.023V133.362C210.023 133.944 209.909 134.521 209.686 135.058C209.464 135.596 209.137 136.085 208.726 136.496C208.315 136.908 207.827 137.235 207.29 137.457C206.753 137.68 206.177 137.795 205.596 137.795H51.8072C50.6347 137.792 49.5111 137.324 48.6829 136.493C47.8548 135.662 47.3896 134.536 47.3896 133.362V129.098Z" fill="#263238"></path><path d="M199.339 40.9961H57.6865V124.936H199.339V40.9961Z" fill="#F5F5F5"></path><path d="M113.925 129.098L115.942 132.312H144.344L146.219 129.098H113.925Z" fill="#455A64"></path><path d="M203.815 129.066H53.6826V129.544H203.815V129.066Z" fill="#455A64"></path><path d="M184.308 29.2383H191.001V102.065C191.001 106.879 187.842 110.788 183.943 110.788H176.402V29.2383H184.308Z" fill="#E0E0E0"></path><path d="M184.308 29.24H183.795H182.282L176.402 29.2562L176.435 29.2239C176.435 42.9737 176.464 74.0757 176.486 110.767L176.402 110.683H183.282C183.605 110.683 183.905 110.683 184.208 110.667L184.666 110.638L185.115 110.55C186.309 110.289 187.403 109.687 188.264 108.819C189.116 107.963 189.777 106.936 190.2 105.805C190.631 104.688 190.864 103.505 190.891 102.309C190.891 97.5177 190.891 92.8494 190.891 88.3296C190.891 79.2836 190.891 70.8386 190.891 63.2141C190.891 47.9716 190.92 36.0277 190.93 29.2239L190.959 29.2529H185.967H184.695H184.266H184.695H185.967H190.959H190.991V29.2852C190.991 36.0891 191.01 48.0233 191.026 63.2755C191.026 70.9 191.026 79.3483 191.026 88.391C191.026 92.914 191.026 97.5748 191.026 102.373C191 103.59 190.762 104.793 190.323 105.927C189.886 107.082 189.207 108.13 188.332 109C187.449 109.89 186.329 110.507 185.105 110.777L184.64 110.864L184.173 110.896C183.85 110.925 183.55 110.896 183.237 110.912H176.318V110.789C176.341 74.0984 176.36 42.9964 176.367 29.2465V29.2109H176.402H182.282H183.795L184.308 29.24Z" fill="#263238"></path><path d="M184.307 110.79H69.5117C67.8329 110.789 66.2231 110.121 65.0359 108.933C63.8488 107.744 63.1815 106.132 63.1807 104.452V8.27344H184.307V110.79Z" fill="white"></path><path d="M184.308 110.788C184.308 110.194 184.279 70.02 184.237 8.27796L184.308 8.34904H64.553H63.201L63.2849 8.26504C63.2849 38.8275 63.2849 67.9265 63.2849 94.3795V104.175C63.2652 104.97 63.3865 105.762 63.6431 106.514C64.036 107.627 64.7346 108.607 65.6588 109.341C66.5829 110.075 67.695 110.533 68.8673 110.662C69.6321 110.727 70.4194 110.691 71.1939 110.701H87.0539L119.706 110.717L184.334 110.772L119.748 110.827H87.07H71.1713C70.3904 110.827 69.6192 110.853 68.8254 110.788C67.6302 110.661 66.4949 110.2 65.5494 109.457C64.6038 108.715 63.8861 107.72 63.4785 106.588C63.2137 105.82 63.0881 105.01 63.1074 104.198V94.386C63.1074 67.9329 63.1074 38.8178 63.1074 8.2715V8.1875H64.5627H184.318H184.389V8.25858C184.337 70.0135 184.308 110.187 184.308 110.788Z" fill="#263238"></path><path d="M184.307 17.5448C184.307 17.59 157.201 17.6287 123.749 17.6287C90.2959 17.6287 63.1807 17.59 63.1807 17.5448C63.1807 17.4997 90.2862 17.4609 123.749 17.4609C157.211 17.4609 184.307 17.4964 184.307 17.5448Z" fill="#263238"></path><path d="M146.132 12.9667C146.132 13.0119 136.512 13.0506 124.654 13.0506C112.795 13.0506 103.176 13.0119 103.176 12.9667C103.176 12.9215 112.792 12.8828 124.654 12.8828C136.516 12.8828 146.132 12.9183 146.132 12.9667Z" fill="#007456"></path><path d="M67.2509 13.9929C67.8889 13.9929 68.4061 13.475 68.4061 12.8363C68.4061 12.1975 67.8889 11.6797 67.2509 11.6797C66.6129 11.6797 66.0957 12.1975 66.0957 12.8363C66.0957 13.475 66.6129 13.9929 67.2509 13.9929Z" fill="#E0E0E0"></path><path d="M71.1689 13.9929C71.8069 13.9929 72.3241 13.475 72.3241 12.8363C72.3241 12.1975 71.8069 11.6797 71.1689 11.6797C70.5309 11.6797 70.0137 12.1975 70.0137 12.8363C70.0137 13.475 70.5309 13.9929 71.1689 13.9929Z" fill="#E0E0E0"></path><path d="M75.082 13.9929C75.72 13.9929 76.2372 13.475 76.2372 12.8363C76.2372 12.1975 75.72 11.6797 75.082 11.6797C74.444 11.6797 73.9268 12.1975 73.9268 12.8363C73.9268 13.475 74.444 13.9929 75.082 13.9929Z" fill="#E0E0E0"></path><path d="M110.91 30.9627H108.515L108.054 32.0676H106.831L109.129 26.8984H110.313L112.62 32.0676H111.368L110.91 30.9627ZM110.535 30.0548L109.716 28.0809L108.899 30.0581L110.535 30.0548Z" fill="#455A64"></path><path d="M116.444 32.0676L115.45 30.6299H114.353V32.0676H113.159V26.8984H115.392C116.767 26.8984 117.632 27.6157 117.632 28.7722C117.642 29.1182 117.546 29.459 117.356 29.7482C117.166 30.0373 116.892 30.2606 116.57 30.3876L117.725 32.045L116.444 32.0676ZM115.324 27.8676H114.356V29.6962H115.324C116.054 29.6962 116.422 29.3732 116.422 28.7949C116.422 28.2166 116.05 27.8806 115.321 27.8806L115.324 27.8676Z" fill="#455A64"></path><path d="M119.564 27.8833H117.912V26.9141H122.407V27.8833H120.755V32.0832H119.564V27.8833Z" fill="#455A64"></path><path d="M123.047 26.9062H124.241V32.0754H123.047V26.9062Z" fill="#455A64"></path><path d="M125.137 29.4873C125.137 27.9334 126.331 26.8188 127.938 26.8188C128.337 26.8019 128.735 26.8753 129.102 27.0336C129.469 27.1919 129.796 27.431 130.058 27.7331L129.293 28.4406C129.136 28.2506 128.939 28.0978 128.715 27.9933C128.492 27.8888 128.249 27.8353 128.002 27.8365C127.577 27.8553 127.176 28.0376 126.881 28.3455C126.587 28.6533 126.423 29.0629 126.423 29.489C126.423 29.915 126.587 30.3246 126.881 30.6325C127.176 30.9403 127.577 31.1226 128.002 31.1415C128.25 31.1429 128.494 31.0884 128.718 30.9821C128.941 30.8759 129.138 30.7205 129.293 30.5276L130.058 31.2352C129.796 31.5407 129.468 31.7827 129.099 31.9428C128.73 32.1028 128.33 32.1768 127.928 32.1591C126.331 32.1591 125.137 31.0445 125.137 29.4873Z" fill="#455A64"></path><path d="M130.862 26.9062H132.053V31.1062H134.634V32.0754H130.862V26.9062Z" fill="#455A64"></path><path d="M139.3 31.114V32.0832H135.309V26.9141H139.207V27.8833H136.496V29.0043H138.89V29.9348H136.496V31.1301L139.3 31.114Z" fill="#455A64"></path><path d="M120.733 43.4589C120.733 43.5073 118.332 43.5428 115.37 43.5428C112.408 43.5428 110.007 43.5073 110.007 43.4589C110.007 43.4105 112.408 43.375 115.37 43.375C118.332 43.375 120.733 43.4137 120.733 43.4589Z" fill="#263238"></path><path d="M135.541 43.4589C135.541 43.5073 132.911 43.5428 129.668 43.5428C126.425 43.5428 123.795 43.5073 123.795 43.4589C123.795 43.4105 126.425 43.375 129.668 43.375C132.911 43.375 135.541 43.4137 135.541 43.4589Z" fill="#263238"></path><path d="M135.031 48.8769C135.031 48.922 129.452 48.9608 122.572 48.9608C115.693 48.9608 110.11 48.922 110.11 48.8769C110.11 48.8317 115.69 48.793 122.572 48.793C129.455 48.793 135.031 48.8285 135.031 48.8769Z" fill="#263238"></path><path d="M135.541 53.6855C135.541 53.7339 129.894 53.7694 122.927 53.7694C115.96 53.7694 110.313 53.7339 110.313 53.6855C110.313 53.6371 115.96 53.6016 122.927 53.6016C129.894 53.6016 135.541 53.6403 135.541 53.6855Z" fill="#263238"></path><path d="M120.639 58.8964C120.639 58.9416 118.351 58.9803 115.534 58.9803C112.717 58.9803 110.426 58.9416 110.426 58.8964C110.426 58.8512 112.71 58.8125 115.534 58.8125C118.357 58.8125 120.639 58.848 120.639 58.8964Z" fill="#263238"></path><path d="M134.008 58.7948C134.008 58.84 131.494 58.8787 128.393 58.8787C125.292 58.8787 122.775 58.84 122.775 58.7948C122.775 58.7497 125.289 58.7109 128.393 58.7109C131.498 58.7109 134.008 58.7497 134.008 58.7948Z" fill="#263238"></path><path d="M134.008 64.1151C134.008 64.1603 128.703 64.199 122.162 64.199C115.622 64.199 110.313 64.1603 110.313 64.1151C110.313 64.07 115.618 64.0312 122.162 64.0312C128.707 64.0312 134.008 64.0667 134.008 64.1151Z" fill="#263238"></path><path d="M89.0705 74.0331C89.0705 74.0783 86.8537 74.117 84.1173 74.117C81.3809 74.117 79.1641 74.0783 79.1641 74.0331C79.1641 73.9879 81.3809 73.9492 84.1173 73.9492C86.8537 73.9492 89.0705 73.9879 89.0705 74.0331Z" fill="#263238"></path><path d="M103.981 74.3378C103.981 74.383 101.419 74.4217 98.2632 74.4217C95.1073 74.4217 92.542 74.383 92.542 74.3378C92.542 74.2926 95.1041 74.2539 98.2632 74.2539C101.422 74.2539 103.981 74.2797 103.981 74.3378Z" fill="#263238"></path><path d="M104.288 79.248C104.288 79.2964 98.7318 79.3319 91.8812 79.3319C85.0306 79.3319 79.4707 79.2964 79.4707 79.248C79.4707 79.1996 85.0241 79.1641 91.8812 79.1641C98.7382 79.1641 104.288 79.2028 104.288 79.248Z" fill="#263238"></path><path d="M105.821 84.2597C105.821 84.3049 99.8286 84.3436 92.4423 84.3436C85.056 84.3436 79.0605 84.3049 79.0605 84.2597C79.0605 84.2145 85.0496 84.1758 92.4423 84.1758C99.835 84.1758 105.821 84.2145 105.821 84.2597Z" fill="#263238"></path><path d="M127.167 68.7128C127.167 68.758 123.369 68.7967 118.69 68.7967C114.011 68.7967 110.213 68.758 110.213 68.7128C110.213 68.6676 114.008 68.6289 118.69 68.6289C123.372 68.6289 127.167 68.6676 127.167 68.7128Z" fill="#263238"></path><path d="M135.54 68.7128C133.704 68.8247 131.862 68.8247 130.025 68.7128C131.862 68.6009 133.704 68.6009 135.54 68.7128Z" fill="#263238"></path><path d="M134.314 74.2362C134.314 74.2846 129.103 74.3201 122.672 74.3201C116.241 74.3201 111.029 74.2846 111.029 74.2362C111.029 74.1878 116.241 74.1523 122.672 74.1523C129.103 74.1523 134.314 74.1911 134.314 74.2362Z" fill="#263238"></path><path d="M121.652 79.3534C121.652 79.3986 119.09 79.4373 115.931 79.4373C112.772 79.4373 110.213 79.3986 110.213 79.3534C110.213 79.3083 112.772 79.2695 115.931 79.2695C119.09 79.2695 121.652 79.305 121.652 79.3534Z" fill="#263238"></path><path d="M135.745 84.5644C135.745 84.6095 130.143 84.6483 123.234 84.6483C116.325 84.6483 110.724 84.6095 110.724 84.5644C110.724 84.5192 116.325 84.4805 123.234 84.4805C130.143 84.4805 135.745 84.5192 135.745 84.5644Z" fill="#263238"></path><path d="M136.774 79.4511C136.774 79.4995 134.031 79.535 130.643 79.535C127.255 79.535 124.512 79.4995 124.512 79.4511C124.512 79.4027 127.255 79.3672 130.643 79.3672C134.031 79.3672 136.774 79.4059 136.774 79.4511Z" fill="#263238"></path><path d="M166.783 43.5605C166.783 43.6056 160.952 43.6444 153.763 43.6444C146.573 43.6444 140.739 43.6056 140.739 43.5605C140.739 43.5153 146.57 43.4766 153.763 43.4766C160.955 43.4766 166.783 43.5153 166.783 43.5605Z" fill="#263238"></path><path d="M146.163 48.4667C144.429 48.5786 142.689 48.5786 140.955 48.4667C142.689 48.3548 144.429 48.3548 146.163 48.4667Z" fill="#263238"></path><path d="M166.782 48.5683C166.782 48.6134 162.69 48.6522 157.644 48.6522C152.597 48.6522 148.502 48.6134 148.502 48.5683C148.502 48.5231 152.594 48.4844 157.644 48.4844C162.694 48.4844 166.782 48.5231 166.782 48.5683Z" fill="#263238"></path><path d="M165.466 53.4784C165.466 53.5268 160.138 53.5623 153.569 53.5623C146.999 53.5623 141.668 53.5268 141.668 53.4784C141.668 53.43 146.995 53.3945 153.569 53.3945C160.142 53.3945 165.466 53.4333 165.466 53.4784Z" fill="#263238"></path><path d="M166.283 58.3847C166.283 58.4331 160.797 58.4686 154.021 58.4686C147.244 58.4686 141.759 58.4331 141.759 58.3847C141.759 58.3363 147.244 58.3008 154.021 58.3008C160.797 58.3008 166.283 58.3395 166.283 58.3847Z" fill="#263238"></path><path d="M153.107 63.623C153.107 63.6681 150.545 63.7069 147.389 63.7069C144.233 63.7069 141.668 63.6681 141.668 63.623C141.668 63.5778 144.23 63.5391 147.389 63.5391C150.548 63.5391 153.107 63.5584 153.107 63.623Z" fill="#263238"></path><path d="M166.282 63.7011C166.282 63.7495 163.994 63.785 161.174 63.785C158.354 63.785 156.069 63.7495 156.069 63.7011C156.069 63.6527 158.354 63.6172 161.174 63.6172C163.994 63.6172 166.282 63.6559 166.282 63.7011Z" fill="#263238"></path><path d="M104.288 29.9511C104.288 29.9995 98.7576 30.035 91.9393 30.035C85.121 30.035 79.5869 29.9995 79.5869 29.9511C79.5869 29.9027 85.1145 29.8672 91.9393 29.8672C98.7641 29.8672 104.288 29.9059 104.288 29.9511Z" fill="#263238"></path><path d="M169.968 29.9511C169.968 29.9995 164.159 30.035 156.999 30.035C149.839 30.035 144.03 29.9995 144.03 29.9511C144.03 29.9027 149.839 29.8672 156.999 29.8672C164.159 29.8672 169.968 29.9059 169.968 29.9511Z" fill="#263238"></path><path d="M169.281 69.5893C169.281 69.6151 168.881 69.389 168.119 69.1467C167.04 68.8154 165.901 68.7314 164.786 68.9011C164.019 69.0169 163.276 69.2558 162.585 69.6087C161.8 70.0321 161.073 70.5555 160.423 71.1659C159.713 71.7926 159.01 72.5034 158.196 73.1592C157.37 73.8697 156.402 74.3951 155.357 74.7002C154.815 74.8396 154.252 74.8736 153.698 74.8004C153.166 74.7189 152.648 74.5589 152.162 74.3255C151.273 73.8634 150.411 73.351 149.581 72.7909C148.839 72.2985 148.021 71.9317 147.161 71.7054C146.407 71.5234 145.629 71.4635 144.857 71.5277C143.732 71.6269 142.645 71.9816 141.678 72.5648C140.997 72.9815 140.675 73.2949 140.655 73.2755C140.725 73.1914 140.803 73.1145 140.888 73.0461C141.117 72.8378 141.365 72.6497 141.627 72.484C142.444 71.9553 143.359 71.597 144.318 71.4304C145.276 71.2639 146.258 71.2926 147.206 71.5148C148.092 71.7373 148.935 72.1064 149.7 72.6068C150.523 73.1562 151.376 73.6588 152.256 74.1123C153.191 74.593 154.268 74.7192 155.289 74.4676C156.299 74.1723 157.235 73.6658 158.035 72.9815C158.835 72.3354 159.542 71.6311 160.262 71.0043C160.933 70.3854 161.683 69.8575 162.491 69.4342C163.363 69.0019 164.312 68.7467 165.283 68.6835C166.254 68.6203 167.228 68.7503 168.148 69.0659C168.442 69.1658 168.728 69.2889 169.003 69.4342C169.101 69.4754 169.194 69.5274 169.281 69.5893Z" fill="#007456"></path><path d="M149.258 75.1367H146.183V83.4622H149.258V75.1367Z" fill="#007456"></path><path d="M162.304 75.1367H159.229V83.4622H162.304V75.1367Z" fill="#007456"></path><path d="M166.65 70.25H163.575V83.4636H166.65V70.25Z" fill="#007456"></path><path d="M145.279 80.8438H142.204V83.6448H145.279V80.8438Z" fill="#007456"></path><path d="M153.607 78.9023H150.532V83.4673H153.607V78.9023Z" fill="#007456"></path><path d="M157.954 77.8477H154.879V83.4594H157.954V77.8477Z" fill="#007456"></path><path d="M105.515 43.4609H79.5713V68.5926H105.515V43.4609Z" fill="#455A64"></path><g opacity="0.3"><path d="M81.5801 66.4403L88.7566 53.5078L94.6295 61.772L98.1952 57.3814L103.503 66.4403H81.5801Z" fill="black"></path></g><g opacity="0.3"><path d="M96.632 49.6208C98.1551 51.6239 95.8963 53.8854 93.8956 52.3605C92.3758 50.3736 94.6346 48.1121 96.632 49.6208Z" fill="black"></path></g><g opacity="0.3"><path d="M103.504 66.5059C103.502 66.4715 103.502 66.4369 103.504 66.4025C103.504 66.3282 103.504 66.2313 103.504 66.1118C103.504 65.8436 103.504 65.4656 103.504 64.981C103.504 63.9827 103.504 62.5418 103.478 60.71C103.478 57.0399 103.446 51.8127 103.424 45.5257L103.53 45.6291L81.6101 45.6485C81.5811 45.6743 81.8424 45.4159 81.7327 45.5289V46.9505C81.7327 47.4254 81.7327 47.8971 81.7327 48.3687V51.1665C81.7327 53.0145 81.7327 54.8194 81.7327 56.5812C81.7327 60.1027 81.7327 63.4303 81.7327 66.4898L81.623 66.3831L97.4733 66.4381L101.946 66.4671H103.13H103.437H103.546C103.514 66.4705 103.482 66.4705 103.449 66.4671H103.156H101.991L97.5443 66.4962L81.623 66.5511H81.5165V66.4413C81.5165 63.3818 81.5165 60.0542 81.5165 56.5327C81.5165 54.7709 81.5165 52.966 81.5165 51.1181V45.5451C81.4068 45.6517 81.665 45.39 81.6424 45.4159L103.562 45.4353H103.669V45.5257C103.646 51.8288 103.627 57.0787 103.614 60.7649C103.614 62.5871 103.591 64.0183 103.585 65.0101C103.585 65.4882 103.585 65.8598 103.585 66.1215C103.585 66.2378 103.585 66.3315 103.585 66.4025C103.564 66.4409 103.536 66.4758 103.504 66.5059Z" fill="black"></path></g><path d="M105.863 89.537C105.863 89.5822 99.8968 89.6209 92.5428 89.6209C85.1888 89.6209 79.2256 89.5822 79.2256 89.537C79.2256 89.4919 85.1856 89.4531 92.5428 89.4531C99.9 89.4531 105.863 89.4886 105.863 89.537Z" fill="#E0E0E0"></path><path d="M136.967 89.3612C136.967 89.4096 131.23 89.4451 124.153 89.4451C117.077 89.4451 111.333 89.4096 111.333 89.3612C111.333 89.3128 117.07 89.2773 124.153 89.2773C131.236 89.2773 136.967 89.3161 136.967 89.3612Z" fill="#E0E0E0"></path><path d="M168.687 88.8769C168.687 88.9253 162.985 88.9608 155.95 88.9608C148.916 88.9608 143.214 88.9253 143.214 88.8769C143.214 88.8285 148.916 88.793 155.95 88.793C162.985 88.793 168.687 88.822 168.687 88.8769Z" fill="#E0E0E0"></path><path d="M105.863 93.8612C105.863 93.9096 99.8968 93.9451 92.5428 93.9451C85.1888 93.9451 79.2256 93.9096 79.2256 93.8612C79.2256 93.8128 85.1856 93.7773 92.5428 93.7773C99.9 93.7773 105.863 93.8161 105.863 93.8612Z" fill="#E0E0E0"></path><path d="M136.967 93.6894C136.967 93.7345 131.23 93.7733 124.153 93.7733C117.077 93.7733 111.333 93.7345 111.333 93.6894C111.333 93.6442 117.07 93.6055 124.153 93.6055C131.236 93.6055 136.967 93.641 136.967 93.6894Z" fill="#E0E0E0"></path><path d="M168.687 93.2011C168.687 93.2463 162.986 93.285 155.951 93.285C148.916 93.285 143.228 93.2463 143.228 93.2011C143.228 93.1559 148.929 93.1172 155.964 93.1172C162.998 93.1172 168.687 93.1559 168.687 93.2011Z" fill="#E0E0E0"></path><path d="M146.663 99.875H104.814C100.008 99.875 96.1113 103.775 96.1113 108.587C96.1113 113.398 100.008 117.298 104.814 117.298H146.663C151.47 117.298 155.366 113.398 155.366 108.587C155.366 103.775 151.47 99.875 146.663 99.875Z" fill="#007456"></path><path d="M117.512 108.561C117.512 109.339 116.928 109.821 115.998 109.821H115.295V110.79H114.488V107.301H115.998C116.928 107.294 117.512 107.779 117.512 108.561ZM116.695 108.561C116.695 108.176 116.447 107.953 115.953 107.953H115.308V109.175H115.953C116.444 109.175 116.695 108.939 116.695 108.561Z" fill="white"></path><path d="M118.058 109.251V107.297H118.864V109.235C118.864 109.898 119.152 110.172 119.642 110.172C120.132 110.172 120.416 109.898 120.416 109.235V107.297H121.213V109.251C121.213 110.279 120.626 110.847 119.636 110.847C118.645 110.847 118.058 110.279 118.058 109.251Z" fill="white"></path><path d="M125.191 109.821C125.191 110.425 124.713 110.79 123.797 110.79H121.993V107.301H123.697C124.568 107.301 125.017 107.666 125.017 108.209C125.02 108.367 124.978 108.523 124.895 108.659C124.813 108.795 124.694 108.904 124.552 108.974C124.737 109.024 124.901 109.135 125.016 109.288C125.132 109.441 125.193 109.629 125.191 109.821ZM122.797 107.882V108.706H123.597C123.991 108.706 124.204 108.567 124.204 108.293C124.204 108.018 123.991 107.882 123.597 107.882H122.797ZM124.378 109.727C124.378 109.433 124.155 109.294 123.732 109.294H122.793V110.157H123.732C124.155 110.176 124.378 110.047 124.378 109.746V109.727Z" fill="white"></path><path d="M125.802 107.297H126.608V110.127H128.354V110.773H125.802V107.297Z" fill="white"></path><path d="M128.812 107.297H129.619V110.793H128.812V107.297Z" fill="white"></path><path d="M130.174 110.44L130.445 109.829C130.783 110.065 131.185 110.192 131.597 110.194C132.074 110.194 132.268 110.036 132.268 109.819C132.268 109.173 130.242 109.616 130.242 108.32C130.242 107.726 130.719 107.235 131.71 107.235C132.133 107.226 132.552 107.332 132.92 107.542L132.671 108.156C132.378 107.982 132.044 107.887 131.703 107.881C131.226 107.881 131.042 108.062 131.042 108.282C131.042 108.928 133.065 108.479 133.065 109.761C133.065 110.343 132.584 110.844 131.587 110.844C131.086 110.855 130.593 110.715 130.174 110.44Z" fill="white"></path><path d="M136.821 107.297V110.793H136.014V109.361H134.43V110.793H133.623V107.303H134.43V108.68H136.014V107.303L136.821 107.297Z" fill="white"></path><path d="M144.233 117.172C144.524 117.714 144.714 118.304 144.794 118.914H145.836L150.212 118.839L150.18 118.917C150.18 118.917 150.893 115.557 151.022 114.559C151.132 113.735 151.638 111.764 151.022 110.895C150.909 110.743 150.751 110.631 150.572 110.573C150.392 110.515 150.198 110.515 150.018 110.572C149.892 110.608 149.779 110.678 149.69 110.775C149.602 110.872 149.543 110.992 149.518 111.121C149.518 111.121 149.467 109.958 148.631 109.939C147.795 109.919 147.766 110.585 147.766 110.585C147.766 110.585 147.537 109.254 146.608 109.267C146.43 109.285 146.261 109.356 146.124 109.471C145.987 109.586 145.888 109.74 145.84 109.913V107.399C145.84 107.153 145.747 106.916 145.579 106.736C145.411 106.556 145.182 106.447 144.936 106.43C144.811 106.426 144.687 106.447 144.571 106.492C144.454 106.537 144.348 106.604 144.258 106.69C144.168 106.777 144.096 106.88 144.046 106.995C143.996 107.109 143.97 107.232 143.968 107.357L143.871 113.173L142.451 111.35C142.08 110.879 141.196 111.115 141.083 111.519C141.083 111.519 140.828 112.055 141.354 112.84C141.764 113.431 144.233 117.172 144.233 117.172Z" fill="#EBEBEB"></path><path d="M144.234 117.172C144.208 117.142 144.185 117.111 144.163 117.079L143.972 116.801L143.243 115.712L142.094 113.987L141.375 112.908C141.232 112.712 141.123 112.494 141.052 112.262C140.97 112.015 140.97 111.749 141.052 111.502C141.112 111.352 141.227 111.23 141.375 111.163C141.516 111.092 141.671 111.053 141.83 111.047C141.995 111.039 142.16 111.078 142.304 111.16C142.34 111.181 142.375 111.205 142.407 111.231L142.497 111.325L142.646 111.519L143.914 113.134L143.84 113.16C143.859 111.528 143.879 109.738 143.901 107.832V107.474C143.897 107.35 143.906 107.227 143.927 107.105C143.979 106.883 144.106 106.684 144.287 106.545C144.468 106.405 144.692 106.333 144.92 106.34C145.149 106.348 145.367 106.434 145.539 106.585C145.711 106.735 145.826 106.941 145.863 107.167C145.881 107.295 145.887 107.425 145.882 107.555V109.874H145.782C145.852 109.641 146.006 109.443 146.215 109.319C146.302 109.268 146.397 109.231 146.496 109.209C146.548 109.199 146.601 109.199 146.654 109.209C146.704 109.21 146.753 109.217 146.802 109.228C147.001 109.27 147.182 109.374 147.318 109.525C147.572 109.822 147.742 110.181 147.809 110.566H147.709C147.721 110.437 147.767 110.313 147.842 110.208C147.918 110.103 148.02 110.02 148.138 109.968C148.254 109.92 148.377 109.893 148.503 109.887C148.564 109.879 148.626 109.879 148.687 109.887H148.78L148.871 109.913C148.986 109.956 149.092 110.023 149.181 110.109C149.27 110.195 149.34 110.299 149.387 110.414C149.485 110.631 149.543 110.864 149.558 111.102H149.461C149.486 110.976 149.543 110.859 149.625 110.761C149.707 110.662 149.813 110.586 149.932 110.54C150.165 110.445 150.425 110.445 150.658 110.54C150.772 110.59 150.875 110.661 150.962 110.75C151.042 110.84 151.109 110.941 151.162 111.05C151.256 111.264 151.316 111.492 151.339 111.725C151.37 112.609 151.286 113.493 151.091 114.355C150.974 115.195 150.807 115.993 150.658 116.752L150.21 118.914L150.139 118.891L150.171 118.814L150.206 118.865L145.834 118.93L145.857 118.904V118.927H144.772V118.907C144.714 118.463 144.597 118.028 144.424 117.615C144.366 117.47 144.314 117.363 144.279 117.292C144.26 117.256 144.244 117.22 144.23 117.182C144.31 117.318 144.381 117.46 144.443 117.605C144.625 118.025 144.75 118.467 144.814 118.92L144.792 118.901H145.834L145.811 118.927V118.904H145.834L150.21 118.814H150.265L150.242 118.865C150.242 118.891 150.223 118.914 150.213 118.943L150.142 118.92C150.281 118.242 150.426 117.518 150.581 116.759C150.736 116 150.903 115.205 151.007 114.365C151.197 113.511 151.278 112.636 151.249 111.761C151.225 111.538 151.169 111.321 151.081 111.115C151.031 111.016 150.97 110.924 150.897 110.84C150.818 110.762 150.725 110.7 150.623 110.656C150.416 110.571 150.184 110.571 149.977 110.656C149.873 110.697 149.781 110.764 149.709 110.851C149.638 110.937 149.589 111.04 149.568 111.15L149.497 111.473L149.471 111.128C149.456 110.904 149.4 110.685 149.306 110.482C149.265 110.379 149.203 110.287 149.124 110.21C149.045 110.133 148.951 110.074 148.848 110.036C148.634 109.977 148.408 109.991 148.203 110.074C148.101 110.118 148.012 110.189 147.947 110.279C147.882 110.368 147.842 110.474 147.831 110.585L147.799 110.908L147.731 110.585C147.668 110.22 147.507 109.878 147.267 109.596C147.151 109.458 146.991 109.365 146.814 109.334C146.637 109.302 146.455 109.333 146.299 109.422C146.112 109.535 145.974 109.713 145.912 109.923L145.815 110.23V107.558C145.819 107.435 145.814 107.312 145.799 107.189C145.776 107.075 145.732 106.965 145.669 106.866C145.609 106.765 145.528 106.678 145.433 106.608C145.338 106.539 145.229 106.49 145.115 106.464C145 106.437 144.881 106.435 144.765 106.456C144.649 106.477 144.539 106.521 144.44 106.585C144.244 106.713 144.107 106.913 144.056 107.141C144.036 107.256 144.027 107.373 144.03 107.49C144.03 107.609 144.03 107.729 144.03 107.849C144.004 109.751 143.979 111.541 143.956 113.176V113.296L143.879 113.202C143.44 112.636 143.02 112.09 142.617 111.586C142.532 111.453 142.422 111.337 142.294 111.244C142.163 111.17 142.013 111.134 141.862 111.141C141.714 111.146 141.568 111.183 141.436 111.25C141.309 111.307 141.209 111.412 141.158 111.541C141.082 111.772 141.082 112.021 141.158 112.252C141.226 112.476 141.329 112.688 141.465 112.879L142.175 113.964L143.314 115.699C143.62 116.174 143.859 116.542 144.027 116.794L144.208 117.082L144.234 117.172Z" fill="#263238"></path><path d="M150.271 118.848H144.792C144.377 118.848 144.04 119.185 144.04 119.6V119.655C144.04 120.071 144.377 120.408 144.792 120.408H150.271C150.686 120.408 151.023 120.071 151.023 119.655V119.6C151.023 119.185 150.686 118.848 150.271 118.848Z" fill="#EBEBEB"></path><path d="M150.271 120.41C150.271 120.41 150.326 120.41 150.426 120.381C150.573 120.347 150.706 120.268 150.806 120.155C150.878 120.073 150.932 119.977 150.964 119.873C150.998 119.75 151.006 119.622 150.987 119.495C150.962 119.342 150.889 119.201 150.778 119.092C150.667 118.983 150.524 118.913 150.371 118.891H144.795C144.701 118.891 144.607 118.909 144.52 118.946C144.434 118.982 144.355 119.036 144.289 119.103C144.224 119.171 144.172 119.251 144.138 119.339C144.104 119.427 144.088 119.521 144.091 119.615C144.084 119.737 144.11 119.859 144.166 119.967C144.22 120.073 144.3 120.163 144.398 120.23C144.496 120.297 144.609 120.339 144.727 120.352C144.966 120.352 145.214 120.352 145.447 120.352H147.957L149.648 120.368H150.109H150.271C150.217 120.372 150.163 120.372 150.109 120.368H149.648L147.957 120.384H145.447C145.208 120.384 144.972 120.384 144.717 120.384C144.504 120.365 144.306 120.264 144.166 120.103C144.025 119.942 143.952 119.732 143.962 119.518C143.972 119.304 144.064 119.102 144.219 118.955C144.375 118.807 144.581 118.725 144.795 118.727C146.976 118.727 148.944 118.727 150.38 118.749C150.548 118.773 150.703 118.851 150.822 118.971C150.941 119.091 151.019 119.247 151.042 119.415C151.061 119.55 151.051 119.687 151.013 119.819C150.975 119.927 150.915 120.026 150.835 120.109C150.728 120.224 150.586 120.302 150.432 120.332C150.383 120.367 150.328 120.393 150.271 120.41Z" fill="#263238"></path><path d="M145.807 112.035C145.739 111.283 145.739 110.526 145.807 109.773C145.876 110.526 145.876 111.283 145.807 112.035Z" fill="#263238"></path><path d="M147.744 111.882C147.675 111.436 147.675 110.982 147.744 110.535C147.809 110.982 147.809 111.436 147.744 111.882Z" fill="#263238"></path><path d="M149.516 112.449C149.452 112.004 149.452 111.551 149.516 111.105C149.585 111.551 149.585 112.004 149.516 112.449Z" fill="#263238"></path><path d="M143.549 106.304C143.18 106.173 142.822 106.01 142.481 105.817C142.124 105.653 141.782 105.459 141.458 105.238C141.827 105.37 142.185 105.533 142.526 105.726C142.883 105.89 143.225 106.083 143.549 106.304Z" fill="#263238"></path><path d="M144.517 105.772C144.393 105.284 144.299 104.788 144.237 104.289C144.143 103.795 144.082 103.295 144.053 102.793C144.181 103.279 144.276 103.773 144.337 104.273C144.432 104.767 144.492 105.268 144.517 105.772Z" fill="#263238"></path><path d="M145.686 105.906C145.872 105.545 146.088 105.2 146.331 104.875C146.551 104.533 146.8 104.208 147.073 103.906C146.887 104.268 146.671 104.614 146.428 104.94C146.207 105.282 145.959 105.605 145.686 105.906Z" fill="#263238"></path><path d="M26.3541 137.797H5.26665C5.02275 137.797 4.78883 137.7 4.61636 137.527C4.4439 137.355 4.347 137.12 4.347 136.876L4.347 122.438C4.347 122.217 4.43472 122.005 4.59084 121.849C4.74697 121.692 4.95873 121.605 5.17953 121.605H26.3541C26.8839 121.605 27.3919 121.815 27.7665 122.19C28.1411 122.565 28.3516 123.074 28.3516 123.604V135.797C28.3516 136.327 28.1411 136.836 27.7665 137.211C27.3919 137.586 26.8839 137.797 26.3541 137.797Z" fill="#263238"></path><g opacity="0.4"><path d="M26.3541 137.797H5.26665C5.02275 137.797 4.78883 137.7 4.61636 137.527C4.4439 137.355 4.347 137.12 4.347 136.876L4.347 122.438C4.347 122.217 4.43472 122.005 4.59084 121.849C4.74697 121.692 4.95873 121.605 5.17953 121.605H26.3541C26.8839 121.605 27.3919 121.815 27.7665 122.19C28.1411 122.565 28.3516 123.074 28.3516 123.604V135.797C28.3516 136.327 28.1411 136.836 27.7665 137.211C27.3919 137.586 26.8839 137.797 26.3541 137.797Z" fill="black"></path></g><path d="M30.9844 137.797H7.92856L7.92856 121.601H30.552C30.7313 121.601 30.9088 121.637 31.0744 121.705C31.24 121.774 31.3905 121.875 31.5172 122.002C31.6439 122.129 31.7445 122.279 31.8131 122.445C31.8817 122.611 31.917 122.788 31.917 122.968L31.917 136.86C31.9174 136.983 31.8936 137.105 31.8469 137.218C31.8003 137.332 31.7316 137.435 31.645 137.522C31.5584 137.609 31.4554 137.678 31.342 137.725C31.2287 137.773 31.1072 137.797 30.9844 137.797Z" fill="#263238"></path><path d="M7.90039 137.879C7.85844 137.879 7.82617 134.286 7.82617 129.857C7.82617 125.428 7.85844 121.832 7.90039 121.832C7.94234 121.832 7.97783 125.425 7.97783 129.857C7.97783 134.29 7.94557 137.879 7.90039 137.879Z" fill="#263238"></path><path d="M13.7012 121.401C13.7012 121.401 13.7205 121.365 13.7657 121.307C13.8109 121.249 13.8819 121.162 13.9819 121.062C14.2607 120.771 14.5689 120.51 14.9016 120.283C16.0041 119.515 17.3239 119.12 18.6669 119.159C20.0099 119.197 21.3051 119.666 22.362 120.496C22.6809 120.741 22.9739 121.019 23.2365 121.323C23.3301 121.43 23.3914 121.524 23.4366 121.582C23.4818 121.64 23.5011 121.676 23.4979 121.679C23.1274 121.282 22.726 120.916 22.2975 120.584C21.2455 119.795 19.9755 119.351 18.6618 119.314C17.3481 119.276 16.055 119.646 14.9596 120.374C14.5126 120.681 14.0917 121.024 13.7012 121.401Z" fill="#263238"></path><path d="M7.75474 123.914C7.7652 123.942 7.77171 123.971 7.7741 124.001C7.7741 124.066 7.79992 124.15 7.81928 124.257C7.83864 124.363 7.85477 124.509 7.88704 124.67C7.91931 124.832 7.96771 125.022 8.01289 125.229C8.31292 126.408 8.7999 127.532 9.45529 128.557C10.428 130.079 11.7388 131.356 13.2856 132.288C15.1974 133.403 17.3821 133.963 19.5941 133.903C21.8058 133.866 23.9689 133.247 25.8671 132.11C27.4054 131.166 28.7421 129.926 29.8006 128.463C30.5123 127.475 31.0987 126.403 31.5463 125.271C31.698 124.867 31.8109 124.551 31.869 124.334L31.9529 124.089C31.9609 124.06 31.9717 124.031 31.9852 124.005C31.9835 124.034 31.977 124.064 31.9658 124.092L31.9013 124.344C31.8432 124.563 31.7399 124.883 31.5786 125.29C31.1504 126.437 30.5744 127.523 29.8651 128.521C28.8094 130.007 27.4663 131.266 25.9155 132.223C24.0013 133.387 21.8136 134.022 19.5747 134.065C17.3342 134.124 15.1223 133.551 13.192 132.411C11.6316 131.462 10.3135 130.162 9.34235 128.615C8.68922 127.576 8.2127 126.437 7.93222 125.242L7.84509 124.68C7.81605 124.515 7.80314 124.373 7.78701 124.26C7.77087 124.147 7.76765 124.069 7.75797 124.005C7.75404 123.975 7.75296 123.944 7.75474 123.914Z" fill="#455A64"></path><path d="M221.584 76.0898C218.357 77.7601 215.888 80.6354 214.113 83.8048C212.339 86.9741 211.209 90.4471 210.057 93.8975L209.054 111.695C212.8 105.312 215.811 97.8034 216.624 90.4439L214.13 90.2209C215.801 89.9657 217.205 88.751 218.099 87.3133C218.992 85.8756 219.451 84.2151 219.899 82.5803L216.856 83.0326C219.264 81.4122 220.957 78.9261 221.584 76.0898Z" fill="#455A64"></path><g opacity="0.3"><path d="M221.584 76.0938C218.357 77.764 215.888 80.6394 214.113 83.8087C212.339 86.978 211.209 90.451 210.057 93.9014L209.054 111.699C212.8 105.315 215.811 97.8073 216.624 90.4478L214.13 90.2249C215.801 89.9696 217.205 88.7549 218.099 87.3172C218.992 85.8796 219.451 84.219 219.899 82.5842L216.856 83.0365C219.264 81.4161 220.957 78.93 221.584 76.0938Z" fill="black"></path></g><path d="M208.512 115.868C208.512 115.868 200.374 106.118 200.467 96.807H203.755C203.755 96.807 200.183 94.4583 200.467 93.1402C200.751 91.822 200.842 86.8403 200.842 86.8403L203.849 87.5931C203.849 87.5931 201.59 86.4655 201.313 84.6854C201.035 82.9053 201.958 74.625 201.958 74.625C201.958 74.625 205.633 78.4825 206.76 82.4207C207.886 86.3589 210.845 90.9788 209.986 103.013C209.128 115.048 208.512 115.868 208.512 115.868Z" fill="#455A64"></path><path d="M212.636 116.787C212.636 116.787 221.452 110.907 223.41 103.403L220.768 102.682C220.768 102.682 224.153 101.574 224.22 100.45C224.288 99.3254 225.292 95.2999 225.292 95.2999L222.71 95.2482C222.71 95.2482 224.769 94.8347 225.385 93.4584C226.002 92.0821 227.053 85.2266 227.053 85.2266C227.053 85.2266 223.252 87.5268 221.497 90.4571C219.741 93.3873 216.334 96.4436 214.398 106.31C212.462 116.177 212.636 116.787 212.636 116.787Z" fill="#455A64"></path><path d="M204.191 83.1211C204.205 83.1546 204.216 83.1891 204.224 83.2245C204.24 83.2988 204.266 83.3989 204.295 83.5217L204.553 84.6783C204.669 85.1823 204.798 85.7993 204.943 86.5166C205.088 87.2338 205.266 88.0479 205.421 88.9525C205.769 90.7617 206.14 92.9231 206.518 95.3267C206.896 97.7303 207.25 100.386 207.576 103.177C207.902 105.969 208.144 108.634 208.335 111.063C208.525 113.493 208.657 115.68 208.719 117.525C208.764 118.446 208.786 119.279 208.809 120.009C208.832 120.739 208.845 121.369 208.848 121.886C208.851 122.403 208.848 122.788 208.848 123.072C208.848 123.198 208.848 123.301 208.848 123.379C208.853 123.414 208.853 123.45 208.848 123.486C208.846 123.45 208.846 123.414 208.848 123.379C208.848 123.301 208.848 123.198 208.832 123.072C208.832 122.791 208.809 122.394 208.79 121.886C208.77 121.379 208.754 120.743 208.722 120.013C208.69 119.282 208.661 118.452 208.609 117.531C208.522 115.693 208.373 113.506 208.186 111.07C207.999 108.634 207.734 105.978 207.418 103.19C207.102 100.402 206.731 97.7497 206.373 95.3461C206.015 92.9424 205.647 90.7779 205.311 88.9687C205.153 88.0608 204.988 87.2467 204.856 86.5263C204.724 85.8058 204.601 85.192 204.498 84.688C204.395 84.184 204.324 83.7995 204.269 83.5249C204.246 83.3989 204.227 83.2988 204.214 83.2212C204.201 83.1437 204.191 83.1211 204.191 83.1211Z" fill="#263238"></path><path d="M207.383 121.837C207.383 121.837 199.935 113.379 197.625 108.268L199.367 107.522C198.102 107.732 196.808 107.199 195.818 106.359C194.827 105.519 194.114 104.446 193.407 103.374L195.708 102.986C193.595 102.382 191.796 100.987 190.684 99.0898C193.397 99.5357 195.847 101.028 197.876 102.892C199.482 104.439 200.94 106.132 202.232 107.948C202.883 108.821 203.449 109.753 203.923 110.733C205.182 113.321 207.386 118.733 207.383 121.837Z" fill="#455A64"></path><path d="M223.527 90.1602C223.52 90.1907 223.509 90.2202 223.494 90.2474L223.381 90.4929C223.272 90.7191 223.12 91.0324 222.93 91.433C222.529 92.244 221.961 93.4264 221.281 94.8931C219.912 97.8234 218.109 101.917 216.327 106.524C214.546 111.131 213.136 115.376 212.178 118.477C211.7 120.022 211.323 121.275 211.071 122.144C210.945 122.571 210.848 122.903 210.774 123.146C210.742 123.249 210.716 123.336 210.693 123.404C210.686 123.434 210.675 123.463 210.661 123.491C210.657 123.46 210.657 123.429 210.661 123.398L210.726 123.136L210.993 122.128C211.226 121.252 211.584 119.992 212.049 118.442C212.978 115.34 214.375 111.085 216.156 106.472C217.938 101.859 219.761 97.7749 221.158 94.8414C221.855 93.3812 222.449 92.2052 222.852 91.404C223.059 91.0098 223.22 90.6997 223.333 90.4768C223.388 90.3798 223.43 90.3023 223.462 90.2377C223.482 90.2105 223.503 90.1846 223.527 90.1602Z" fill="#263238"></path><path d="M208.015 125.461C207.994 125.411 207.98 125.359 207.976 125.306C207.957 125.186 207.931 125.037 207.902 124.856C207.844 124.469 207.747 123.903 207.608 123.212C207.47 122.521 207.286 121.703 207.04 120.805C206.795 119.907 206.479 118.931 206.101 117.923C205.724 116.915 205.308 115.985 204.904 115.142C204.501 114.299 204.097 113.565 203.743 112.955C203.388 112.344 203.097 111.859 202.875 111.53L202.636 111.142C202.581 111.052 202.555 111.003 202.562 111C202.6 111.037 202.633 111.078 202.662 111.123L202.929 111.491C203.162 111.814 203.475 112.292 203.843 112.896C204.21 113.501 204.623 114.237 205.043 115.074C205.462 115.911 205.876 116.854 206.259 117.865C206.643 118.876 206.944 119.862 207.189 120.773C207.434 121.684 207.605 122.505 207.728 123.202C207.85 123.9 207.928 124.466 207.966 124.86L208.008 125.312C208.016 125.361 208.018 125.411 208.015 125.461Z" fill="#263238"></path><path d="M217.841 123.477H201.542V126.804H217.841V123.477Z" fill="#007456"></path><path d="M203.094 126.805L204.859 137.999H214.704L216.35 126.805H203.094Z" fill="#007456"></path><path d="M216.841 126.803C216.841 126.848 213.756 126.887 209.954 126.887C206.153 126.887 203.068 126.848 203.068 126.803C203.068 126.757 206.15 126.719 209.954 126.719C213.759 126.719 216.841 126.754 216.841 126.803Z" fill="#263238"></path><path d="M9.1839 104.528L8.72568 81.1865C8.69782 79.7596 8.95422 78.3415 9.47991 77.0149C10.0056 75.6883 10.7901 74.4799 11.7874 73.4603C12.7848 72.4407 13.9751 71.6303 15.2889 71.0764C16.6026 70.5225 18.0134 70.2363 19.4388 70.2344C22.2777 70.2301 25.0026 71.3524 27.0167 73.3555C29.0307 75.3587 30.1697 78.0793 30.1843 80.9216L30.3036 104.528L9.1839 105.433" fill="#455A64"></path><path d="M9.18359 108.511H42.0394C42.0394 106.311 40.5583 104.653 38.3608 104.653L9.18359 104.527V108.511Z" fill="#455A64"></path><path d="M36.3608 137.797H38.668L38.668 108.511H36.3608V137.797Z" fill="#455A64"></path><path d="M11.7875 137.797H14.0947L14.0947 108.511H11.7875L11.7875 137.797Z" fill="#455A64"></path><path d="M11.8652 104.648C11.8652 104.606 17.9769 104.574 25.5148 104.574C33.0528 104.574 39.1676 104.606 39.1676 104.648C39.1676 104.69 33.056 104.726 25.5148 104.726C17.9737 104.726 11.8652 104.69 11.8652 104.648Z" fill="#263238"></path><path d="M9.73926 108.527C9.73926 108.485 16.9222 108.453 25.7799 108.453C34.6377 108.453 41.8239 108.485 41.8239 108.527C41.8239 108.569 34.6441 108.605 25.7799 108.605C16.9158 108.605 9.73926 108.563 9.73926 108.527Z" fill="#263238"></path><path d="M11.4935 74.3906C11.5354 74.3906 11.5677 81.0523 11.5677 89.2713C11.5677 97.4902 11.5354 104.152 11.4935 104.152C11.4515 104.152 11.416 97.4902 11.416 89.2713C11.416 81.0523 11.4483 74.3906 11.4935 74.3906Z" fill="#263238"></path><path d="M31.1883 91.429C31.1883 91.429 49.6781 91.3515 51.1431 91.429C53.7472 91.5711 55.4961 94.4852 55.8446 95.994C56.1931 97.5027 64.2732 120.767 64.2732 120.767L57.9937 124.831L49.5716 105.806L45.3315 98.4235L22.2725 102.459L31.1883 91.429Z" fill="#936760"></path><path d="M45.4534 97.7382C45.4534 97.7382 48.8674 97.7381 50.7099 100.471C51.7942 102.087 51.4134 104.949 51.436 107.117C51.465 110.07 50.697 132.963 50.697 132.963C48.5221 134.51 46.0923 134.691 43.4366 133.651L41.5586 108.309L42.0426 104.526L29.4321 104.807C29.4321 104.807 27.1733 100.607 30.3065 97.26C30.7067 96.8303 45.4534 97.7382 45.4534 97.7382Z" fill="#936760"></path><path d="M47.041 97.8672H47.1378L47.4153 97.9124C47.7695 97.9882 48.1123 98.1098 48.435 98.2743C48.9447 98.5372 49.4071 98.8833 49.8032 99.2984C50.3282 99.8492 50.7531 100.488 51.0584 101.185C51.4252 102.031 51.6383 102.936 51.6877 103.857C51.7378 104.909 51.7087 105.963 51.6006 107.01C51.5005 108.115 51.4489 109.272 51.4069 110.477C51.365 111.682 51.323 112.929 51.2811 114.208C51.1262 119.316 50.9875 123.942 50.8874 127.299C50.8326 128.969 50.7906 130.32 50.7584 131.266C50.739 131.728 50.7261 132.09 50.7164 132.345C50.7164 132.462 50.7164 132.555 50.7003 132.626C50.7045 132.659 50.7045 132.691 50.7003 132.723C50.697 132.691 50.697 132.659 50.7003 132.626C50.7003 132.555 50.7003 132.462 50.7003 132.345C50.7003 132.087 50.7003 131.728 50.7003 131.266C50.7196 130.32 50.7454 128.966 50.7777 127.296C50.8552 123.945 50.9681 119.316 51.1294 114.202C51.1714 112.926 51.2133 111.678 51.2553 110.473C51.2972 109.268 51.3585 108.102 51.4618 106.997C51.5722 105.958 51.6056 104.911 51.5618 103.867C51.5176 102.958 51.3133 102.064 50.9584 101.227C50.6627 100.539 50.2512 99.9058 49.7419 99.3565C49.3555 98.9425 48.9043 98.5944 48.406 98.326C47.976 98.1067 47.5161 97.9521 47.041 97.8672Z" fill="#6F4C47"></path><path d="M50.6917 132.728V133.193C50.6917 133.193 58.6071 136.282 58.7039 137.781L43.0537 137.855L43.2409 132.641C45.5803 133.707 48.0166 133.817 50.6917 132.728Z" fill="#007456"></path><path d="M43.0596 137.855L43.1047 136.602L58.0903 136.986C58.0903 136.986 58.7873 137.286 58.7098 137.781L43.0596 137.855Z" fill="#E0E0E0"></path><path d="M63.9663 119.797L64.1437 120.227C64.1437 120.227 72.64 120.181 73.2822 121.535L58.7614 127.383L57.0156 122.465C59.5745 122.598 61.8817 121.8 63.9663 119.797Z" fill="#007456"></path><path d="M58.7606 127.379L58.3379 126.196L72.4102 121.027C72.4102 121.027 73.1717 121.05 73.2814 121.535L58.7606 127.379Z" fill="#E0E0E0"></path><path d="M64.7341 122.013C64.7147 122.013 64.6405 121.929 64.5792 121.751C64.5004 121.515 64.4815 121.263 64.5243 121.018C64.5654 120.772 64.665 120.539 64.8147 120.339C64.9309 120.191 65.0309 120.129 65.0471 120.142C64.8901 120.426 64.7708 120.729 64.6921 121.044C64.6626 121.367 64.6767 121.693 64.7341 122.013Z" fill="#263238"></path><path d="M63.9016 122.155C63.7529 121.843 63.7042 121.491 63.7619 121.15C63.8196 120.808 63.9811 120.493 64.2242 120.246C64.1071 120.55 64.008 120.861 63.9274 121.177C63.8992 121.502 63.8905 121.829 63.9016 122.155Z" fill="#263238"></path><path d="M65.9958 121.904C65.8836 121.81 65.7928 121.693 65.7294 121.561C65.6659 121.429 65.6313 121.285 65.6279 121.138C65.596 120.995 65.5942 120.848 65.6225 120.704C65.6508 120.561 65.7087 120.425 65.7925 120.305C65.8409 120.321 65.7344 120.676 65.7925 121.116C65.8506 121.555 66.0377 121.878 65.9958 121.904Z" fill="#263238"></path><path d="M65.1374 120.265C65.1374 120.281 64.918 120.175 64.705 119.874C64.5849 119.7 64.4832 119.514 64.4017 119.319C64.3533 119.209 64.3081 119.096 64.2629 118.976C64.2343 118.911 64.2126 118.843 64.1984 118.773C64.1899 118.727 64.1922 118.68 64.2051 118.636C64.218 118.592 64.2411 118.551 64.2726 118.517C64.3087 118.481 64.356 118.457 64.4069 118.451C64.4578 118.445 64.5094 118.455 64.5534 118.482C64.6207 118.519 64.6791 118.571 64.7244 118.634C64.8015 118.734 64.8675 118.842 64.9212 118.957C65.0144 119.151 65.0733 119.36 65.0955 119.574C65.133 119.768 65.1117 119.97 65.0342 120.152C65.0084 120.152 65.0342 119.929 64.9793 119.59C64.9408 119.393 64.8745 119.203 64.7825 119.025C64.7298 118.92 64.666 118.821 64.5921 118.731C64.5243 118.634 64.4211 118.579 64.392 118.627C64.363 118.676 64.3662 118.789 64.4178 118.912L64.5437 119.254C64.6154 119.444 64.7029 119.628 64.8051 119.803C64.9729 120.107 65.1374 120.243 65.1374 120.265Z" fill="#263238"></path><path d="M65.2152 120.18C65.2152 120.18 65.2152 120.216 65.1571 120.264L65.1248 120.3V120.245C65.101 120.029 65.1141 119.81 65.1636 119.599C65.2008 119.43 65.256 119.265 65.3281 119.108C65.3693 119.019 65.4157 118.933 65.4669 118.849C65.4947 118.797 65.5332 118.751 65.5798 118.714C65.6091 118.689 65.6435 118.672 65.6804 118.663C65.7173 118.654 65.7557 118.654 65.7928 118.662C65.8404 118.676 65.8821 118.706 65.9112 118.746C65.9404 118.786 65.9555 118.835 65.9541 118.885C65.9515 118.953 65.9407 119.02 65.9219 119.085C65.8935 119.201 65.8557 119.315 65.8089 119.424C65.7261 119.607 65.6174 119.777 65.4862 119.928C65.2604 120.187 65.0668 120.284 65.0571 120.268C65.0474 120.251 65.2023 120.119 65.3798 119.857C65.4897 119.704 65.5807 119.538 65.6508 119.363C65.69 119.258 65.7223 119.15 65.7476 119.04C65.7799 118.927 65.7734 118.811 65.7476 118.82C65.6573 118.788 65.5411 119.03 65.4669 119.169C65.3924 119.315 65.3329 119.467 65.2894 119.625C65.2319 119.83 65.192 120.04 65.17 120.251L65.1281 120.232C65.1797 120.187 65.2087 120.174 65.2152 120.18Z" fill="#263238"></path><path d="M50.5592 134.976C50.5366 134.976 50.5237 134.856 50.5592 134.672C50.6137 134.434 50.7243 134.212 50.8818 134.026C51.0439 133.837 51.2501 133.692 51.482 133.603C51.6595 133.535 51.7789 133.535 51.7821 133.554C51.5001 133.714 51.2398 133.909 51.0077 134.136C50.8221 134.395 50.6713 134.677 50.5592 134.976Z" fill="#263238"></path><path d="M49.7744 134.664C49.7864 134.313 49.9332 133.979 50.1842 133.734C50.393 133.452 50.7033 133.263 51.049 133.207C50.7908 133.408 50.5441 133.624 50.3101 133.853C50.1158 134.113 49.937 134.384 49.7744 134.664Z" fill="#263238"></path><path d="M51.6876 135.549C51.6427 135.409 51.6273 135.262 51.6423 135.116C51.6573 134.971 51.7024 134.83 51.7747 134.702C51.9748 134.253 52.333 134.04 52.3523 134.079C52.3717 134.117 52.1071 134.366 51.9296 134.773C51.7521 135.18 51.736 135.549 51.6876 135.549Z" fill="#263238"></path><path d="M51.8077 133.698C51.6969 133.533 51.6394 133.338 51.6431 133.139C51.6316 132.923 51.6424 132.707 51.6754 132.493C51.6915 132.373 51.7141 132.251 51.7367 132.128C51.7482 132.058 51.7655 131.989 51.7884 131.921C51.805 131.878 51.8314 131.839 51.8655 131.808C51.8997 131.776 51.9407 131.753 51.9852 131.74C52.0354 131.729 52.0879 131.734 52.1347 131.756C52.1814 131.777 52.2196 131.814 52.2433 131.86C52.282 131.927 52.3041 132.002 52.3079 132.079C52.3225 132.206 52.3225 132.334 52.3079 132.461C52.286 132.675 52.227 132.884 52.1336 133.078C51.9723 133.401 51.7916 133.553 51.7787 133.54C51.7658 133.527 51.9013 133.352 52.0271 133.029C52.0969 132.842 52.1403 132.647 52.1562 132.448C52.1674 132.331 52.1674 132.213 52.1562 132.096C52.1562 131.979 52.0885 131.879 52.04 131.902C51.9916 131.924 51.9336 132.028 51.911 132.157C51.8884 132.286 51.8626 132.399 51.84 132.516C51.8038 132.715 51.7822 132.917 51.7754 133.12C51.7593 133.482 51.8335 133.688 51.8077 133.698Z" fill="#263238"></path><path d="M51.9236 133.671C51.9236 133.671 51.8945 133.693 51.83 133.713H51.7816L51.8042 133.661C51.898 133.46 52.0257 133.276 52.1817 133.118C52.3034 132.998 52.4363 132.89 52.5786 132.795C52.661 132.742 52.7461 132.694 52.8335 132.65C52.8849 132.622 52.9405 132.602 52.9981 132.592C53.0359 132.587 53.0742 132.591 53.1104 132.603C53.1466 132.614 53.1798 132.634 53.2079 132.66C53.2408 132.697 53.2606 132.744 53.2641 132.794C53.2676 132.843 53.2546 132.893 53.2272 132.934C53.1917 132.992 53.1483 133.044 53.0981 133.089C53.0138 133.174 52.922 133.251 52.8239 133.319C52.6584 133.433 52.4768 133.523 52.285 133.583C52.1149 133.655 51.9279 133.676 51.7461 133.645C51.7461 133.619 51.9462 133.596 52.2463 133.47C52.4196 133.398 52.5832 133.305 52.7335 133.193C52.8217 133.126 52.9048 133.052 52.982 132.973C53.0691 132.895 53.124 132.792 53.0885 132.779C53.0272 132.705 52.8045 132.85 52.6657 132.931C52.528 133.018 52.3975 133.117 52.2753 133.225C52.1211 133.371 51.9787 133.528 51.8494 133.697L51.8235 133.658C51.8881 133.658 51.9074 133.661 51.9236 133.671Z" fill="#263238"></path><path d="M52.1433 80.4233L54.9667 80.8789L56.8028 83.4214L56.2672 85.3599L55.9445 85.4697L56.0123 86.1966C56.0271 86.3538 55.9951 86.5119 55.9205 86.651C55.8459 86.7901 55.7318 86.904 55.5928 86.9785L54.131 84.4423L54.7344 87.0269C54.5674 87.0657 54.3944 87.0709 54.2254 87.042C54.0565 87.0132 53.8949 86.9509 53.7502 86.8589C53.1274 86.5358 52.4595 83.6734 52.4595 83.6734L51.4914 83.0628L52.4595 86.2548C52.3497 86.3606 52.2187 86.4418 52.0752 86.4931C51.9316 86.5443 51.7788 86.5644 51.627 86.552C51.0881 86.5229 49.9877 83.6282 49.9877 83.6282L35.2862 85.6894L35.2539 83.7865L38.8228 77.8711L52.1433 80.4233Z" fill="#936760"></path><path d="M20.243 56.6795C19.4596 56.3716 18.7652 55.873 18.2226 55.2288C17.68 54.5846 17.3064 53.8151 17.1356 52.99C17 52.2922 17.0097 51.5653 16.8129 50.8868C16.5096 49.9176 15.7577 49.0744 15.719 48.0535C15.6964 47.3783 15.9965 46.7321 16.0417 46.0569C16.0868 45.3817 15.932 44.7646 15.9191 44.1023C15.9163 43.2681 16.1599 42.4516 16.6192 41.7555C17.0785 41.0594 17.733 40.5147 18.5005 40.19L22.5664 38.5391L28.8329 41.0978C28.8329 41.0978 32.3825 44.5611 31.3725 51.688L20.243 56.6795Z" fill="#007456"></path><path d="M30.697 52.314C30.8143 52.1589 30.9685 52.0356 31.1456 51.9554H31.1101C31.1426 51.9438 31.176 51.9351 31.2101 51.9296C31.2697 51.9039 31.334 51.8906 31.3989 51.8906C31.4638 51.8906 31.528 51.9039 31.5876 51.9296C31.8029 51.9858 31.9894 52.1206 32.1104 52.3076C32.2062 52.4745 32.2545 52.6646 32.2499 52.8572C32.2454 53.0497 32.1882 53.2373 32.0846 53.3995C32.0121 53.5454 31.897 53.6657 31.7547 53.7446C31.6124 53.8236 31.4495 53.8574 31.2876 53.8417C31.1256 53.8259 30.9723 53.7613 30.8478 53.6564C30.7234 53.5515 30.6337 53.4112 30.5905 53.2542C30.5295 53.1008 30.5073 52.9347 30.5259 52.7707C30.5445 52.6067 30.6033 52.4498 30.697 52.314Z" fill="#455A64"></path><path d="M30.6105 45.7933C30.1975 43.5156 28.3517 40.8858 26.0929 41.3963L19.1842 44.0455C18.8533 44.1193 18.5623 44.3152 18.3692 44.5942C18.176 44.8732 18.0949 45.2148 18.142 45.551L20.191 60.8031C20.321 61.7668 20.7792 62.6559 21.4882 63.3205C22.1973 63.985 23.1136 64.3842 24.0826 64.4506C24.6853 64.4916 25.2897 64.4024 25.8549 64.1893C26.4202 63.9761 26.9331 63.6438 27.359 63.215C27.7849 62.7861 28.1138 62.2707 28.3235 61.7035C28.5332 61.1364 28.6187 60.5307 28.5744 59.9276C28.4937 58.8744 28.4389 58.0861 28.4389 58.0893C28.4389 58.0926 31.3075 57.2558 31.4592 53.3628C31.5495 51.4244 31.0849 48.3197 30.6105 45.7933Z" fill="#936760"></path><path d="M29.9032 49.1525C29.9197 49.2804 29.8854 49.4097 29.8075 49.5125C29.7296 49.6153 29.6144 49.6832 29.4869 49.7017C29.4254 49.7143 29.3619 49.7143 29.3004 49.7018C29.2388 49.6893 29.1804 49.6646 29.1286 49.629C29.0768 49.5934 29.0327 49.5477 28.9989 49.4947C28.9651 49.4417 28.9423 49.3825 28.9319 49.3204C28.9152 49.193 28.9492 49.0641 29.0264 48.9614C29.1036 48.8587 29.218 48.7904 29.3449 48.7712C29.4066 48.7586 29.4703 48.7585 29.532 48.771C29.5938 48.7835 29.6524 48.8082 29.7045 48.8437C29.7565 48.8793 29.8009 48.9249 29.8351 48.9779C29.8692 49.031 29.8923 49.0903 29.9032 49.1525Z" fill="#263238"></path><path d="M30.1391 47.4958C30.0874 47.5668 29.6841 47.3377 29.171 47.4022C28.6579 47.4667 28.2901 47.7733 28.2255 47.7249C28.161 47.6765 28.2417 47.5765 28.3933 47.4345C28.6035 47.2521 28.865 47.1394 29.142 47.1118C29.4163 47.077 29.6946 47.1313 29.9358 47.2667C30.0971 47.3538 30.1681 47.4732 30.1391 47.4958Z" fill="#263238"></path><path d="M25.228 49.6257C25.2446 49.7532 25.2107 49.8821 25.1335 49.9848C25.0562 50.0875 24.9419 50.1557 24.8149 50.1749C24.7532 50.1875 24.6896 50.1876 24.6278 50.1752C24.5661 50.1627 24.5074 50.138 24.4554 50.1024C24.4033 50.0669 24.3589 50.0213 24.3248 49.9682C24.2907 49.9152 24.2675 49.8559 24.2567 49.7937C24.2409 49.6664 24.2752 49.5379 24.3522 49.4354C24.4293 49.3329 24.5432 49.2645 24.6697 49.2445C24.7315 49.2314 24.7953 49.231 24.8572 49.2433C24.9191 49.2555 24.978 49.2802 25.0301 49.3158C25.0823 49.3514 25.1267 49.3973 25.1607 49.4505C25.1947 49.5038 25.2176 49.5634 25.228 49.6257Z" fill="#263238"></path><path d="M24.9757 48.2087C24.9209 48.2797 24.5175 48.0474 23.9915 48.1119C23.4655 48.1764 23.1106 48.4862 23.0461 48.4346C22.9815 48.383 23.0461 48.2862 23.2171 48.1442C23.4268 47.9631 23.6869 47.8505 23.9625 47.8215C24.2367 47.7894 24.5142 47.8436 24.7563 47.9764C24.9305 48.0667 25.0015 48.1764 24.9757 48.2087Z" fill="#263238"></path><path d="M27.3485 51.8891C27.6166 51.7698 27.8984 51.6841 28.1875 51.6339C28.3198 51.6048 28.4424 51.5628 28.4553 51.4659C28.4504 51.3259 28.4032 51.1907 28.3198 51.0782L27.8003 50.109C27.0742 48.7165 26.5321 47.5632 26.5902 47.5244C26.6483 47.4856 27.2775 48.6035 28.0036 49.9959C28.1778 50.3416 28.3488 50.6679 28.507 50.9845C28.6105 51.1371 28.6573 51.3211 28.6393 51.5046C28.6249 51.554 28.5998 51.5996 28.5658 51.6382C28.5317 51.6767 28.4896 51.7072 28.4424 51.7276C28.3696 51.7556 28.2938 51.7751 28.2165 51.7857C27.9326 51.8559 27.641 51.8906 27.3485 51.8891Z" fill="#263238"></path><path d="M28.4515 58.0873C26.6608 58.3269 24.8388 58.0641 23.1885 57.3281C23.1885 57.3281 24.7374 59.8061 28.516 58.9952L28.4515 58.0873Z" fill="#6F4C47"></path><path d="M27.4194 53.1518C27.2811 52.9912 27.1055 52.867 26.9079 52.7904C26.7104 52.7138 26.4971 52.687 26.2868 52.7125C26.1498 52.7299 26.0192 52.7808 25.9067 52.8609C25.7941 52.9409 25.703 53.0475 25.6414 53.1712C25.5723 53.3138 25.5484 53.4741 25.5727 53.6307C25.5971 53.7873 25.6686 53.9327 25.7776 54.0475C25.8867 54.1623 26.0282 54.2411 26.1832 54.2733C26.3382 54.3055 26.4993 54.2896 26.645 54.2277C26.9272 54.0976 27.174 53.9015 27.3645 53.6558C27.4277 53.5954 27.4762 53.5214 27.5065 53.4394C27.5224 53.3946 27.526 53.3464 27.5169 53.2998C27.5079 53.2532 27.4864 53.2099 27.4549 53.1744" fill="#6F4C47"></path><path d="M25.8406 52.4375C25.9277 52.4375 25.9955 52.9932 26.5344 53.3421C27.0732 53.691 27.6702 53.5553 27.6863 53.6361C27.6863 53.6684 27.5637 53.7621 27.3056 53.8009C26.9678 53.8474 26.6246 53.7718 26.3375 53.5876C26.0655 53.4128 25.8713 53.1397 25.7954 52.8252C25.7696 52.5861 25.8019 52.4375 25.8406 52.4375Z" fill="#263238"></path><path d="M24.9502 46.005C24.9147 46.1537 24.3823 46.1504 23.7724 46.2958C23.1625 46.4412 22.685 46.6738 22.5849 46.5543C22.543 46.4961 22.614 46.3507 22.7979 46.1892C23.0448 45.9846 23.3368 45.8417 23.6498 45.7724C23.9614 45.6956 24.2869 45.6956 24.5985 45.7724C24.8373 45.8532 24.9663 45.934 24.9502 46.005Z" fill="#263238"></path><path d="M29.739 45.6972C29.6615 45.8295 29.284 45.7489 28.8484 45.794C28.4128 45.8392 28.0513 45.9683 27.9513 45.8554C27.9061 45.7973 27.9513 45.6714 28.0997 45.5327C28.2983 45.3682 28.5429 45.269 28.8 45.2487C29.0568 45.2221 29.3155 45.2774 29.5389 45.4068C29.7099 45.5294 29.7745 45.6359 29.739 45.6972Z" fill="#263238"></path><path d="M23.1525 42.2734C21.3975 42.3737 19.6784 42.8125 18.0896 43.5657C17.5966 43.7526 17.176 44.0921 16.8892 44.5349C16.7076 44.9592 16.6494 45.4262 16.7214 45.8821C16.844 47.3198 17.5507 49.0353 18.1929 50.3211L18.9447 51.4228C19.9128 51.1159 20.6098 48.499 20.4581 47.3069C20.9213 47.0515 21.3038 46.6712 21.5622 46.2093C21.8206 45.7473 21.9445 45.2221 21.9199 44.6932C22.2932 44.408 22.5977 44.0425 22.8111 43.6237C23.0244 43.2049 23.1411 42.7434 23.1525 42.2734Z" fill="#263238"></path><path d="M20.0002 50.762C19.8873 49.9446 18.8676 49.8574 18.1932 50.3323C17.8253 50.594 17.5672 51.0754 17.6801 51.9476C17.9834 54.2641 20.2422 53.479 20.239 53.4111C20.2358 53.3433 20.1357 51.7183 20.0002 50.762Z" fill="#936760"></path><path d="M19.4166 52.6393C19.4166 52.6393 19.3811 52.6717 19.3165 52.7137C19.226 52.7666 19.1186 52.7828 19.0164 52.7589C18.8547 52.6832 18.716 52.5658 18.6145 52.4188C18.513 52.2718 18.4524 52.1003 18.4388 51.9221C18.4059 51.7249 18.4181 51.5228 18.4743 51.3309C18.4861 51.2558 18.5161 51.1847 18.5617 51.1239C18.6072 51.0631 18.667 51.0143 18.7357 50.982C18.7806 50.9634 18.8306 50.9609 18.877 50.975C18.9235 50.9892 18.9637 51.019 18.9906 51.0595C19.0294 51.1209 19.0197 51.1694 19.0326 51.1726C19.0455 51.1758 19.0778 51.1274 19.0326 51.0337C19.0132 50.9777 18.9742 50.9307 18.9229 50.9012C18.8538 50.8606 18.7714 50.849 18.6938 50.8689C18.6075 50.9035 18.5309 50.9587 18.4707 51.0296C18.4106 51.1006 18.3686 51.1851 18.3485 51.276C18.2758 51.4888 18.2569 51.7164 18.2936 51.9383C18.3679 52.4035 18.6647 52.8073 19.0132 52.8623C19.0773 52.872 19.1428 52.8672 19.2048 52.8482C19.2668 52.8292 19.3237 52.7964 19.3714 52.7524C19.4198 52.6846 19.4263 52.6393 19.4166 52.6393Z" fill="#6F4C47"></path><path d="M18.1552 53.2398C18.2762 53.087 18.4308 52.9643 18.6069 52.8812H18.5714C18.6038 52.8692 18.6373 52.8605 18.6715 52.8553C18.7311 52.8297 18.7953 52.8164 18.8602 52.8164C18.9252 52.8164 18.9894 52.8297 19.049 52.8553C19.2637 52.9111 19.4493 53.0462 19.5685 53.2333C19.6644 53.3997 19.7127 53.5893 19.7082 53.7813C19.7036 53.9734 19.6464 54.1604 19.5427 54.3221C19.4596 54.4671 19.3367 54.5852 19.1886 54.6625C19.0404 54.7398 18.8733 54.773 18.707 54.7582C18.5589 54.7254 18.4217 54.6549 18.3087 54.5536C18.1957 54.4523 18.1106 54.3237 18.0616 54.1799C17.9984 54.0277 17.9739 53.8621 17.9903 53.6981C18.0066 53.534 18.0633 53.3766 18.1552 53.2398Z" fill="#455A64"></path><path d="M16.3858 42.7099C16.8666 41.6179 17.9992 40.933 19.1802 40.7004C19.5227 40.6326 19.8703 40.5937 20.2193 40.5841C20.0829 40.1267 20.0326 39.648 20.0708 39.1723C20.1446 38.4867 20.3903 37.831 20.7853 37.2661C21.1802 36.7012 21.7115 36.2456 22.3296 35.9416C23.5436 35.4094 24.9174 35.3746 26.1567 35.8446C27.378 36.2308 28.4011 37.0778 29.0092 38.2063C29.5933 39.379 29.5481 40.9685 28.7059 41.9378C27.7379 42.8327 26.602 43.23 25.3468 43.4723C24.242 43.7163 23.0864 43.551 22.0941 43.0071C19.1899 45.4075 18.4413 49.3781 17.9573 52.9706C16.6859 50.735 16.4116 48.089 16.1631 45.54C16.0889 44.5869 15.9986 43.5919 16.3858 42.7099Z" fill="#007456"></path><path d="M19.8389 42.9742C19.8034 42.9419 19.9647 42.7125 20.2003 42.4605C20.4358 42.2085 20.6488 42.034 20.6843 42.0663C20.7198 42.0987 20.5552 42.3248 20.3229 42.5768C20.0906 42.8288 19.8711 43.0033 19.8389 42.9742Z" fill="#263238"></path><path d="M26.587 41.794C26.5676 41.7714 26.8161 41.5388 27.1065 41.0865C27.4871 40.4974 27.7185 39.8243 27.7809 39.1255C27.8393 38.4267 27.7286 37.7241 27.4582 37.0772C27.2453 36.5829 27.0388 36.3115 27.0613 36.2921C27.0839 36.2727 27.1323 36.347 27.2259 36.4698C27.3563 36.645 27.4697 36.8321 27.5647 37.0287C27.8866 37.6828 28.0248 38.4123 27.9645 39.139C27.9043 39.8657 27.6479 40.5623 27.2227 41.1543C27.0951 41.332 26.9515 41.4974 26.7935 41.6486C26.6644 41.752 26.5967 41.8005 26.587 41.794Z" fill="#263238"></path><path d="M25.125 39.7877C25.2358 39.6232 25.367 39.4734 25.5154 39.3419C25.8457 39.0084 26.1509 38.651 26.4286 38.2725C26.6973 37.8919 26.8932 37.4647 27.0063 37.0126C27.0902 36.6669 27.0837 36.4407 27.1127 36.4375C27.1629 36.6336 27.1629 36.8391 27.1127 37.0352C27.0284 37.5156 26.8364 37.9707 26.5513 38.3662C26.2725 38.7573 25.9474 39.1131 25.5832 39.4259C25.4493 39.5687 25.2949 39.6907 25.125 39.7877Z" fill="#263238"></path><g opacity="0.3"><path d="M20.0585 39.4492C20.0695 40.1692 20.2619 40.8748 20.6178 41.5006C20.9738 42.1264 21.4817 42.652 22.0946 43.0288L22.0527 43.0967C21.6251 43.1039 21.2038 42.9941 20.8341 42.7789C20.4644 42.5638 20.1604 42.2516 19.9551 41.8761C19.7498 41.5005 19.6509 41.0759 19.6691 40.6482C19.6873 40.2205 19.822 39.8059 20.0585 39.4492Z" fill="black"></path></g><path d="M17.2705 44.5625C17.5428 44.6607 17.8036 44.7884 18.0482 44.9433C18.3176 45.0503 18.5751 45.1855 18.8162 45.3466C18.5175 45.3423 18.226 45.2552 17.974 45.0949C17.6955 44.9845 17.4524 44.8005 17.2705 44.5625Z" fill="white"></path><path d="M15.8408 46.9453C16.1881 46.9509 16.5344 46.9833 16.8766 47.0421C17.2258 47.047 17.5741 47.0772 17.9189 47.1325C17.5787 47.2436 17.2165 47.2702 16.8637 47.2099C16.5064 47.2058 16.1553 47.115 15.8408 46.9453Z" fill="white"></path><path d="M18.7219 40.1367C18.7703 40.1367 18.5993 40.7829 18.538 41.5647C18.4767 42.3465 18.538 42.9991 18.4831 43.0056C18.2509 42.0486 18.3347 41.042 18.7219 40.1367Z" fill="white"></path><path d="M19.584 44.238C19.584 44.1896 19.8809 44.2089 20.2294 44.1993C20.5779 44.1896 20.8747 44.1605 20.8747 44.1993C20.6744 44.2969 20.4553 44.35 20.2325 44.355C20.0097 44.36 19.7885 44.3168 19.584 44.2283V44.238Z" fill="white"></path><path d="M17.4062 48.668C17.6735 48.8421 17.8948 49.0782 18.0516 49.3561C18.2513 49.6047 18.3895 49.8969 18.455 50.209C18.2461 49.9785 18.0643 49.7249 17.9129 49.453C17.7145 49.2116 17.5446 48.9482 17.4062 48.668Z" fill="white"></path><path d="M23.3594 42.079C23.4419 41.7639 23.5498 41.4559 23.6821 41.1583C23.9112 40.5477 24.1919 39.7917 24.5049 38.9614C24.8179 38.1311 25.0761 37.3654 25.2987 36.7516C25.3914 36.4396 25.5102 36.1359 25.6537 35.8438C25.6036 36.1653 25.5225 36.4812 25.4117 36.7871C25.2374 37.3654 24.976 38.1537 24.6598 39.0163C24.3436 39.8789 24.0338 40.651 23.7918 41.2035C23.6749 41.5081 23.5302 41.8011 23.3594 42.079Z" fill="white"></path><path d="M21.3418 37.6082C21.506 37.448 21.6931 37.313 21.8968 37.2076C22.3748 36.9226 22.8731 36.6732 23.3876 36.4613C23.9025 36.2499 24.432 36.0761 24.972 35.9412C25.1926 35.8721 25.4218 35.8341 25.6529 35.8281C25.6529 35.8798 24.6429 36.1254 23.4522 36.6164C22.2615 37.1075 21.3676 37.6502 21.3418 37.6082Z" fill="white"></path><path d="M27.9763 38.9844C28.3148 39.2975 28.5779 39.6836 28.7456 40.1134C28.9133 40.5432 28.9812 41.0056 28.9444 41.4656C28.8928 41.4656 28.8605 40.8614 28.5927 40.1733C28.3248 39.4851 27.9376 39.0167 27.9763 38.9844Z" fill="white"></path><path d="M23.5879 43.4998C23.9038 43.4466 24.2139 43.3633 24.514 43.251C24.7921 43.0906 25.0546 42.9045 25.2981 42.6953C25.1493 43.0062 24.8978 43.256 24.5862 43.4026C24.2745 43.5492 23.9219 43.5835 23.5879 43.4998Z" fill="white"></path><path d="M20.3555 41.094C20.3387 40.7771 20.4297 40.4639 20.6136 40.2056C20.8782 39.7565 21.259 39.5174 21.259 39.5594C21.259 39.6014 20.9976 39.8825 20.7524 40.2993C20.5072 40.716 20.4039 41.1037 20.3555 41.094Z" fill="white"></path><path d="M30.6651 45.9759C30.6361 45.9372 30.7394 45.8178 30.8394 45.6532C30.9394 45.4887 31.0072 45.3531 31.0524 45.3596C31.0975 45.3661 31.104 45.5564 30.9814 45.7436C30.8587 45.9308 30.6877 46.0146 30.6651 45.9759Z" fill="white"></path><path d="M21.004 42.3359C21.0233 42.3553 20.6555 42.7656 20.123 43.4731C19.4393 44.4012 18.845 45.392 18.3483 46.4325C17.857 47.4768 17.468 48.5663 17.1866 49.6858C16.9704 50.5484 16.8897 51.0944 16.8639 51.0879C16.8606 50.958 16.8703 50.8282 16.893 50.7002C16.9188 50.4547 16.9801 50.0961 17.0737 49.6599C17.5731 47.3744 18.5886 45.2338 20.0424 43.4021C20.3231 43.0532 20.5587 42.7818 20.7361 42.6041C20.8146 42.5045 20.9045 42.4145 21.004 42.3359Z" fill="#263238"></path><path d="M16.0537 46.2779C16.1728 45.9731 16.3277 45.6835 16.5152 45.4153C16.9363 44.7479 17.4192 44.1216 17.9576 43.5447C18.4963 42.9665 19.0896 42.4418 19.7291 41.9779C19.9845 41.7738 20.2628 41.6003 20.5584 41.4609C20.3176 41.679 20.0644 41.8829 19.8001 42.0715C19.191 42.5601 18.6164 43.0901 18.0802 43.6578C17.5486 44.2288 17.058 44.8366 16.612 45.4767C16.4402 45.7535 16.2538 46.0209 16.0537 46.2779Z" fill="#263238"></path><path d="M21.937 36.2854C21.937 36.2854 21.8369 36.4469 21.6885 36.7474C21.486 37.1718 21.3614 37.6292 21.3206 38.0978C21.2572 38.7923 21.375 39.4915 21.6627 40.1267C22.0245 40.9001 22.6132 41.5448 23.3503 41.9746C24.0845 42.4114 24.9229 42.6414 25.7769 42.6402C26.4737 42.6473 27.1642 42.5075 27.8034 42.2299C28.2328 42.0397 28.6168 41.7599 28.9296 41.4093C29.149 41.1573 29.2329 40.986 29.2522 40.999C29.2716 41.0119 29.2522 41.0442 29.1974 41.1217C29.136 41.2354 29.0647 41.3435 28.9844 41.4448C28.6813 41.8228 28.2962 42.1266 27.8582 42.3332C27.2062 42.6324 26.4974 42.7878 25.7801 42.7888C24.8972 42.7993 24.0285 42.5656 23.2697 42.1136C22.5018 41.6634 21.8919 40.9863 21.5239 40.1751C21.232 39.514 21.1207 38.7871 21.2012 38.0687C21.2544 37.5886 21.4001 37.1234 21.6304 36.6989C21.6954 36.5866 21.7676 36.4787 21.8466 36.3758C21.8982 36.3177 21.9305 36.2821 21.937 36.2854Z" fill="#263238"></path><path d="M20.2006 38.6602C20.2297 38.6602 20.1716 39.0091 20.1813 39.5647C20.1816 40.2909 20.3553 41.0065 20.6879 41.6518C21.0316 42.2793 21.5695 42.7781 22.2206 43.0733C22.4986 43.1805 22.7845 43.2659 23.0758 43.3285C22.9949 43.3459 22.9113 43.3459 22.8305 43.3285C22.6093 43.3088 22.392 43.2576 22.1851 43.1767C21.4846 42.8958 20.9046 42.3779 20.5459 41.7132C20.2012 41.0491 20.0365 40.306 20.0683 39.5583C20.0752 39.335 20.099 39.1125 20.1393 38.8928C20.146 38.8122 20.1667 38.7335 20.2006 38.6602Z" fill="#263238"></path><g opacity="0.3"><path d="M18.5105 45.8921C17.9706 47.1007 17.5282 48.3507 17.1875 49.63C17.0228 50.0399 16.9802 50.4887 17.0649 50.9223C17.0875 51.0031 17.1552 51.1032 17.2391 51.0742C17.323 51.0451 17.3101 50.9934 17.323 50.9385C17.8631 48.7978 18.529 46.691 19.3172 44.6289L18.5105 45.8921Z" fill="black"></path></g><g opacity="0.3"><path d="M27.4093 36.7383C28.0546 38.4506 27.9772 40.3276 26.6768 41.7491C26.9654 41.6852 27.233 41.5488 27.4543 41.3527C27.6756 41.1565 27.8434 40.9071 27.9417 40.6281C28.183 39.9865 28.2607 39.2948 28.1677 38.6156C28.0747 37.9364 27.814 37.2912 27.4093 36.7383Z" fill="black"></path></g><path d="M51.6525 91.357C45.6785 91.2105 39.9164 91.2235 34.3662 91.3958L34.4275 91.357L36.3637 73.2037L29.0387 60.8979L28.5998 60.4844C27.0735 61.2145 25.657 61.5505 23.9887 61.263L19.7325 60.5361C17.7963 62.2225 14.2758 65.8344 14.2758 65.9604C14.2758 66.0864 18.9935 89.1117 18.9935 89.1117L21.8073 91.8771L13.8467 97.4856C13.8467 97.4856 14.008 103.02 17.7447 104.529C21.4814 106.037 38.0932 104.897 40.0326 104.655C40.0326 104.655 47.2898 101.831 48.2966 100.968C49.3033 100.106 51.9397 93.2405 51.6525 91.357Z" fill="#263238"></path><path d="M31.7656 93.9141C31.8241 93.9159 31.8824 93.9224 31.9399 93.9334L32.4271 94.0077C32.8531 94.0788 33.4662 94.1919 34.218 94.347C35.7282 94.6507 37.7998 95.132 40.0748 95.7071L45.8831 97.2158L47.645 97.6778L48.1225 97.8071C48.1788 97.8209 48.2338 97.8393 48.2871 97.862C48.2292 97.8614 48.1716 97.8527 48.1161 97.8361L47.6321 97.736C47.2093 97.6423 46.6059 97.5034 45.8573 97.3225C44.36 96.9606 42.3078 96.4308 40.0264 95.8557C37.745 95.2806 35.6895 94.7831 34.189 94.4536C33.4371 94.2856 32.8273 94.1564 32.4078 94.0691L31.9237 93.9625C31.8692 93.953 31.8161 93.9367 31.7656 93.9141Z" fill="#455A64"></path><path d="M30.1553 91.2542C30.6205 91.2109 31.089 91.2185 31.5525 91.2768C32.0189 91.2848 32.483 91.3432 32.9368 91.451C32.4716 91.4943 32.0031 91.4867 31.5396 91.4284C31.0732 91.4204 30.6091 91.362 30.1553 91.2542Z" fill="#455A64"></path><path d="M30.0713 87.9463C30.11 87.9172 30.5715 88.5343 31.2652 89.174C31.959 89.8136 32.6011 90.2336 32.5753 90.2724C32.0479 90.032 31.5689 89.697 31.162 89.2838C30.7207 88.9076 30.3512 88.4544 30.0713 87.9463Z" fill="#455A64"></path><path d="M29.671 78.4135C29.6516 78.3909 29.9065 78.1583 30.2518 77.7254C31.1457 76.5857 31.6533 75.1902 31.7006 73.7419C31.7168 73.1894 31.6716 72.847 31.7006 72.8438C31.7307 72.9203 31.7492 73.0009 31.7555 73.0828C31.7885 73.2967 31.8057 73.5126 31.8071 73.729C31.8203 75.2124 31.2964 76.6504 30.3325 77.777C30.1891 77.9452 30.0338 78.1028 29.8678 78.2487C29.8114 78.3138 29.7449 78.3694 29.671 78.4135Z" fill="#455A64"></path><path d="M31.7292 61.2708C33.8008 62.5631 35.8467 65.8584 36.3597 69.3702L37.5085 74.8107C37.5085 74.8107 38.3765 74.3422 38.9122 75.0045C39.0977 75.2315 39.2341 75.4946 39.313 75.7771C39.3919 76.0595 39.4114 76.3553 39.3704 76.6457L41.755 78.3128L37.9441 81.0879L35.3368 84.2993C35.3368 84.2993 37.573 90.877 37.9441 91.5231C38.3152 92.1693 39.0509 93.2871 39.0509 93.2871L35.6369 92.6409C35.6369 92.6409 33.3329 90.9804 33.4233 88.2084C33.5136 85.4365 33.7879 74.8204 33.4233 73.4344C33.0587 72.0484 28.583 60.4922 28.583 60.4922L31.7292 61.2708Z" fill="#007456"></path><path d="M35.7346 84.243C35.7217 84.1901 35.7141 84.136 35.712 84.0815C35.712 83.9587 35.6894 83.8069 35.6765 83.6195C35.6572 83.2189 35.6475 82.6503 35.6765 81.9169C35.7185 80.476 35.8766 78.4956 35.9766 76.3084C36.0684 74.4408 36.0587 72.5697 35.9476 70.7031C35.8927 69.9859 35.8476 69.4109 35.7959 69.0102C35.7959 68.8229 35.7637 68.671 35.7507 68.5483C35.7451 68.4946 35.7451 68.4404 35.7507 68.3867C35.7711 68.4374 35.7842 68.4907 35.7895 68.545L35.8605 69.0038C35.9315 69.3979 35.9928 69.973 36.0638 70.6934C36.2079 72.5638 36.2317 74.4415 36.1347 76.3149C36.0347 78.5085 35.8605 80.4857 35.7927 81.9201C35.7572 82.6374 35.7507 83.2124 35.7507 83.6195C35.7507 83.8069 35.7507 83.9587 35.7507 84.0815C35.7538 84.1358 35.7484 84.1903 35.7346 84.243Z" fill="#263238"></path><path d="M28.3517 81.4798L26.7383 75.3124L19.7231 60.5352L13.7438 63.4266C13.5856 63.4854 13.4332 63.5589 13.2888 63.6463C12.6955 64.0333 12.2049 64.5589 11.8593 65.1777C11.0149 66.6271 10.7044 68.3269 10.9816 69.9817L13.2823 84.6007C13.9209 86.267 14.6757 87.8864 15.5411 89.4467L12.0529 99.9627C12.0529 99.9627 20.9493 104.415 23.8341 104.402C26.264 104.402 28.3872 104.376 28.7874 99.6331C29.1875 94.8905 28.3517 81.4798 28.3517 81.4798Z" fill="#007456"></path><path d="M20.929 84.2453C20.9097 84.2453 21.0162 83.9545 21.1549 83.4796C21.2367 83.1995 21.3347 82.9244 21.4486 82.6558C21.5876 82.3129 21.8093 82.0099 22.0939 81.7738C22.3806 81.5451 22.7315 81.4118 23.0975 81.3926C23.3964 81.3793 23.6944 81.4345 23.9687 81.5541C24.154 81.6298 24.3236 81.7393 24.4689 81.8772C24.5689 81.9773 24.6109 82.0419 24.6044 82.0484C24.3982 81.8867 24.1714 81.753 23.93 81.651C23.6673 81.5531 23.387 81.5113 23.1072 81.5282C22.7675 81.5486 22.4416 81.6701 22.1714 81.8772C21.9104 82.1074 21.7061 82.3949 21.5744 82.7171C21.4389 83.0047 21.3453 83.2825 21.2517 83.5151C21.1776 83.772 21.069 84.0176 20.929 84.2453Z" fill="#263238"></path><path d="M18.9941 78.5243C18.9941 78.5243 19.0619 78.4823 19.2007 78.4436C19.3966 78.3933 19.5986 78.3705 19.8009 78.3757C20.1394 78.3774 20.474 78.448 20.7844 78.5833C21.0947 78.7185 21.3744 78.9156 21.6062 79.1626C21.8381 79.4095 22.0173 79.7011 22.133 80.0196C22.2486 80.3381 22.2983 80.6769 22.2791 81.0152C22.2721 81.2185 22.2363 81.4198 22.1726 81.6129C22.1274 81.7454 22.0887 81.8164 22.079 81.8132C22.1315 81.5491 22.1628 81.2811 22.1726 81.012C22.1801 80.3656 21.9373 79.7414 21.4951 79.2704C21.0529 78.7994 20.4457 78.5181 19.8009 78.4856C19.5314 78.4803 19.2619 78.4933 18.9941 78.5243Z" fill="#263238"></path><path d="M18.9941 66.8828C19.0553 67.0252 19.1018 67.1735 19.1329 67.3254C19.2136 67.613 19.3201 68.0297 19.4394 68.5466C19.6782 69.5837 19.9525 71.0278 20.1558 72.6367C20.3591 74.2456 20.4462 75.7188 20.4785 76.7817C20.4785 77.3115 20.4785 77.7509 20.4785 78.0384C20.4827 78.1929 20.4741 78.3474 20.4527 78.5004C20.4285 78.3477 20.4177 78.1931 20.4204 78.0384C20.4204 77.7154 20.3881 77.2921 20.3656 76.7849C20.3139 75.7253 20.2074 74.2617 20.0074 72.6561C19.8073 71.0504 19.5459 69.6095 19.3362 68.5692C19.2329 68.0717 19.1458 67.655 19.078 67.3383C19.0375 67.1891 19.0094 67.0367 18.9941 66.8828Z" fill="#263238"></path><path d="M13.7822 63.9494C14.0021 63.8857 14.2314 63.8606 14.4599 63.8751C15.5708 63.884 16.6442 64.2792 17.4963 64.9929C17.6782 65.13 17.8354 65.2971 17.961 65.4872C17.3814 64.9966 16.728 64.6008 16.0249 64.3145C15.301 64.0761 14.5443 63.9529 13.7822 63.9494Z" fill="#263238"></path><path d="M15.8018 89.8905C15.8463 89.936 15.8863 89.9858 15.9212 90.0391L16.2438 90.4817C16.6615 90.9977 17.1769 91.4259 17.7605 91.7417C18.6421 92.1778 19.6277 92.3591 20.6065 92.2651C21.8046 92.1377 22.95 91.7051 23.9334 91.0083C24.1755 90.838 24.4082 90.6547 24.6304 90.4591L24.6078 90.5173C24.6078 88.1492 24.5885 86.0427 24.582 84.5081C24.582 83.7619 24.582 83.1545 24.582 82.7151C24.582 82.5148 24.582 82.3565 24.582 82.2305C24.5752 82.1747 24.5752 82.1183 24.582 82.0625C24.5878 82.1184 24.5878 82.1747 24.582 82.2305C24.582 82.3565 24.582 82.5148 24.6014 82.7151C24.6014 83.1545 24.624 83.7619 24.6401 84.5049C24.6595 86.0427 24.6853 88.1492 24.7143 90.514V90.5528L24.6885 90.5722C24.4615 90.7728 24.2234 90.9605 23.9754 91.1343C22.9807 91.8415 21.8201 92.2789 20.6065 92.404C19.6042 92.4943 18.5969 92.297 17.7024 91.8354C17.1128 91.5062 16.5976 91.0585 16.189 90.5205C16.0567 90.3234 15.9631 90.1619 15.8953 90.0553C15.8586 90.0037 15.8272 89.9485 15.8018 89.8905Z" fill="#263238"></path><g opacity="0.3"><path d="M28.7486 89.4856C27.6934 89.9282 26.3639 90.345 26.1445 91.4693C26.1202 91.8471 26.0695 92.2228 25.9928 92.5936C25.696 93.4497 24.6182 93.6952 23.7147 93.7792C22.1916 93.9181 20.6169 93.9795 19.1616 93.5014C17.7063 93.0232 16.3768 91.9086 16.0283 90.4161C17.3546 91.2367 17.9644 92.1736 19.5165 92.4288C20.3781 92.5742 21.9883 92.012 22.8176 91.7374C23.6469 91.4628 24.6731 90.3418 24.6731 90.3418C24.7473 90.0542 24.6731 89.0979 24.6053 89.3887C24.5827 89.4856 26.0122 88.5713 26.7253 88.3032C27.574 87.9801 28.7486 87.418 28.7486 87.418" fill="black"></path></g><g opacity="0.3"><path d="M21.8075 82.0949C21.5784 83.1352 20.9169 84.7667 20.5716 85.7747C20.5195 85.9546 20.4365 86.1241 20.3264 86.2755C20.2697 86.3506 20.1951 86.4103 20.1094 86.4493C20.0238 86.4882 19.9298 86.5051 19.8359 86.4984C19.6993 86.4611 19.5814 86.3744 19.5051 86.255C19.4288 86.1356 19.3995 85.9921 19.4229 85.8523C19.4703 85.577 19.5881 85.3188 19.7649 85.1027L21.8075 82.082" fill="black"></path></g><path d="M16.3242 95.0062C16.3989 94.8297 16.4908 94.6608 16.5985 94.5022C16.7857 94.1792 17.0599 93.7366 17.3923 93.21L17.4181 93.168H17.4697C18.1474 93.4167 18.967 93.6978 19.8576 93.9724C21.0741 94.3504 22.1939 94.6347 23.007 94.8318L23.9751 95.0612C24.0959 95.0805 24.2139 95.1142 24.3268 95.1613C24.2052 95.1594 24.0842 95.1453 23.9654 95.1193C23.7331 95.0838 23.3975 95.0224 22.9974 94.9384C22.1777 94.7672 21.0612 94.4958 19.8286 94.1178C18.9347 93.8432 18.1151 93.5492 17.4407 93.2875L17.5149 93.2617C17.1729 93.7947 16.8696 94.2309 16.6792 94.5378C16.5748 94.704 16.456 94.8608 16.3242 95.0062Z" fill="#263238"></path><path d="M23.7178 97.7673C23.8441 97.3523 23.996 96.9455 24.1728 96.5493C24.2993 96.1333 24.4512 95.7255 24.6277 95.3281C24.518 96.201 24.2064 97.0361 23.7178 97.7673Z" fill="#263238"></path><path d="M16.3379 95.2125C16.3379 95.1899 16.7251 95.416 17.3511 95.7326C18.1649 96.1455 19.011 96.4913 19.881 96.7665C20.7515 97.0425 21.6413 97.253 22.5431 97.3964C23.2369 97.5063 23.6693 97.5451 23.6693 97.5709C23.5676 97.5849 23.4645 97.5849 23.3628 97.5709C23.1659 97.5709 22.8787 97.5418 22.5302 97.4998C21.6161 97.3865 20.7142 97.1896 19.8358 96.9118C18.9572 96.6333 18.1077 96.2697 17.2995 95.8263C16.9768 95.6551 16.7477 95.5033 16.5831 95.3934C16.4939 95.344 16.4115 95.2831 16.3379 95.2125Z" fill="#263238"></path><g opacity="0.3"><path d="M23.1688 97.543C23.2073 97.6348 23.2098 97.7377 23.1757 97.8312C23.1416 97.9247 23.0734 98.0018 22.9848 98.047C22.8036 98.1314 22.6026 98.1638 22.404 98.1407C20.2397 98.0569 18.1563 97.2953 16.4472 95.9632C16.273 95.8307 16.0955 95.582 16.244 95.4204C16.3924 95.2589 16.5892 95.3752 16.7506 95.4657C18.7747 96.65 21.0275 97.389 23.3592 97.6335" fill="black"></path></g><path d="M24.6729 82.305L37.9578 79.4296L40.7329 78.7383L42.9239 80.0629C43.0784 80.1553 43.21 80.2814 43.3089 80.4319C43.4078 80.5824 43.4714 80.7533 43.4951 80.9319L43.6855 82.3534L43.4176 82.5861L43.7661 83.2322C43.8409 83.372 43.8731 83.5306 43.8588 83.6885C43.8445 83.8464 43.7842 83.9967 43.6855 84.1206L41.446 82.4374L42.9078 84.4922C42.7701 84.5936 42.6134 84.6662 42.4471 84.7056C42.2808 84.745 42.1082 84.7504 41.9397 84.7215C41.246 84.6763 39.5131 82.2953 39.5131 82.2953L38.3773 82.1176L40.7684 84.7022C40.7684 84.7022 40.8749 84.9186 40.365 85.1028C39.8552 85.2869 37.2059 83.2419 37.2059 83.2419L24.7342 89.3253" fill="#936760"></path><path d="M38.4458 82.0452L39.4938 82.2091C39.5128 82.2129 39.5299 82.2232 39.5422 82.2382C39.9767 82.8312 40.4477 83.3966 40.9523 83.9311C41.1969 84.2054 41.4873 84.435 41.8107 84.6095C41.9843 84.6489 42.164 84.6529 42.3392 84.6213C42.4959 84.593 42.6461 84.5367 42.7826 84.4552L42.398 83.9149L41.3686 82.4675C41.3626 82.4594 41.3583 82.4501 41.356 82.4402C41.3537 82.4303 41.3534 82.42 41.3552 82.4101C41.357 82.4001 41.3609 82.3905 41.3665 82.3821C41.3721 82.3737 41.3794 82.3665 41.3879 82.3609C41.4006 82.3517 41.4159 82.3468 41.4315 82.3468C41.4472 82.3468 41.4624 82.3517 41.4751 82.3609L41.5041 82.3828L41.517 82.3706L41.5504 82.4176L43.2886 83.7243L43.5112 83.8923L43.6209 83.9763L43.6359 83.9871C43.7134 83.8624 43.7522 83.7169 43.7468 83.5692C43.7312 83.3964 43.6712 83.2305 43.5725 83.0878L43.3144 82.6097C43.3036 82.5965 43.2978 82.5799 43.2978 82.5629C43.2978 82.5458 43.3036 82.5293 43.3144 82.516L43.5513 82.3131C43.4949 81.8868 43.4385 81.4668 43.3821 81.059C43.3704 80.857 43.3066 80.6615 43.1969 80.4917C43.0872 80.3218 42.9353 80.1833 42.7561 80.0898L40.6579 78.8069L39.0001 79.2368C38.4354 79.3758 37.8804 79.5179 37.335 79.6278L34.2308 80.2933L29.1582 81.3917L25.8539 82.0863L24.9762 82.264L24.7503 82.3092H24.6729L24.7471 82.2866L24.9729 82.2349L25.8442 82.0346L29.142 81.298L34.2179 80.1834L37.3189 79.505C37.8642 79.3919 38.416 79.2498 38.9839 79.1076L40.7168 78.6779C40.7248 78.674 40.7336 78.6719 40.7426 78.6719C40.7515 78.6719 40.7604 78.674 40.7684 78.6779L42.8884 79.9541C43.0863 80.06 43.2539 80.2145 43.3757 80.4031C43.4969 80.5981 43.5679 80.8201 43.5822 81.0493C43.6403 81.479 43.6984 81.9119 43.7597 82.3416C43.761 82.3536 43.7593 82.3658 43.7548 82.3771C43.7503 82.3883 43.7431 82.3983 43.7339 82.4062L43.4996 82.6097L43.7274 83.0265C43.8355 83.1899 43.9019 83.3774 43.921 83.5725C43.928 83.7757 43.8654 83.9751 43.7436 84.1378V84.154H43.6371L43.608 84.1314L43.5532 84.0894L43.4435 84.0054L43.2208 83.8374L41.8011 82.7701L42.5464 83.818C42.6948 84.0248 42.84 84.2348 42.9788 84.4254C42.9893 84.4381 42.995 84.4541 42.995 84.4706C42.995 84.4871 42.9893 84.5031 42.9788 84.5158C42.813 84.6449 42.6159 84.7275 42.4076 84.7549C42.3093 84.769 42.2101 84.7765 42.1108 84.7775H41.9623C41.909 84.7688 41.8562 84.7569 41.8042 84.742C41.4557 84.5638 41.1437 84.3216 40.8846 84.028C40.3823 83.4965 39.914 82.9338 39.4825 82.3432L38.5923 82.204L38.3773 82.1703L38.4447 82.045L38.4451 82.0443C38.4453 82.0446 38.4456 82.0449 38.4458 82.0452Z" fill="#6F4C47"></path><path d="M42.9076 84.4844C42.7095 84.2736 42.5293 84.0467 42.3687 83.806C42.0461 83.3763 41.6233 82.7786 41.1587 82.1099C40.9897 81.7816 40.7025 81.5299 40.3552 81.4056C40.0325 81.3151 39.7098 81.2602 39.4517 81.1956C39.1674 81.1494 38.8885 81.0748 38.6191 80.9727C38.907 80.9872 39.193 81.0261 39.4743 81.089C39.7389 81.1407 40.0454 81.1794 40.3971 81.2731C40.7814 81.4005 41.1009 81.6729 41.2877 82.0323C41.7524 82.6946 42.1655 83.302 42.4591 83.7478C42.632 83.9783 42.7822 84.225 42.9076 84.4844Z" fill="#6F4C47"></path><path d="M43.3564 82.6259C43.1707 82.4446 42.9982 82.2503 42.8401 82.0444C42.4362 81.5707 42.0052 81.1209 41.5493 80.6972L41.1557 80.3386L40.9685 80.1706L40.8749 80.0866C40.8749 80.0866 40.8427 80.0543 40.833 80.0543H40.8072C40.5103 80.0187 40.2134 80.0252 39.9779 80.0155C39.7181 80.0275 39.4578 80.0156 39.2002 79.98C39.4562 79.9287 39.7169 79.9049 39.9779 79.9089C40.2615 79.8897 40.5461 79.8897 40.8298 79.9089H40.8653L40.9169 79.9315C40.9369 79.9431 40.9553 79.9572 40.9717 79.9735L41.0653 80.0543L41.2557 80.219L41.6526 80.5777C42.114 81.0059 42.5393 81.4716 42.924 81.9701C43.0963 82.1687 43.2416 82.3892 43.3564 82.6259Z" fill="#6F4C47"></path><path d="M62.114 87.4851L66.7672 74.6204C66.8721 74.3652 66.9127 74.088 66.8852 73.8134C66.8577 73.5387 66.7631 73.2751 66.6097 73.0457C66.4562 72.8164 66.2487 72.6285 66.0055 72.4986C65.7622 72.3686 65.4907 72.3007 65.2151 72.3008H51.4654C51.1144 72.3004 50.7722 72.4103 50.4868 72.6148C50.2014 72.8194 49.9873 73.1084 49.8746 73.4412L45.4764 86.4157L37.8255 86.4416C37.4093 86.4416 37.0479 87.0005 37.0479 87.4108H39.5648H45.2408L62.114 87.4851Z" fill="#E0E0E0"></path><path d="M62.1137 87.485H61.9976H55.1341L47.196 87.4689C44.1466 87.4527 40.7423 87.4883 37.054 87.4689H36.9766V87.3913C36.9842 87.2011 37.0361 87.0152 37.1282 86.8486C37.2191 86.6785 37.3525 86.5349 37.5154 86.4318C37.6034 86.3778 37.703 86.3457 37.8059 86.3381H38.6223H40.8456L45.4825 86.322L45.4051 86.3769L47.3961 80.497C47.8446 79.1789 48.2835 77.8737 48.7191 76.5911C48.9342 75.945 49.1493 75.3074 49.3644 74.6785L49.6871 73.7352C49.7452 73.5769 49.7872 73.4121 49.8549 73.2635C49.9263 73.1054 50.0186 72.9576 50.1292 72.8241C50.2976 72.6298 50.5058 72.4741 50.7396 72.3676C50.9735 72.2611 51.2276 72.2063 51.4845 72.207H57.58H64.4209H65.218C65.4905 72.2065 65.7592 72.2708 66.0021 72.3944C66.2378 72.514 66.4436 72.6854 66.6039 72.8957C66.7643 73.1061 66.8751 73.35 66.9282 73.6092C66.9811 73.8612 66.9755 74.122 66.9121 74.3716C66.8411 74.6139 66.7507 74.8368 66.6701 75.063C66.5055 75.5121 66.3474 75.9514 66.1893 76.3811L63.2012 84.5322C62.8495 85.482 62.5784 86.2218 62.388 86.7291C62.2977 86.9746 62.2267 87.1652 62.1751 87.2977C62.1234 87.4301 62.1008 87.485 62.1008 87.485C62.1008 87.485 62.1202 87.414 62.1654 87.2847L62.3687 86.7032C62.5494 86.1895 62.8172 85.4432 63.156 84.4837C63.8433 82.5453 64.8372 79.783 66.0602 76.3553C66.2151 75.9288 66.3829 75.4894 66.5313 75.0404C66.612 74.8174 66.7023 74.5881 66.7669 74.3652C66.8186 74.1332 66.8186 73.8928 66.7669 73.6609C66.7156 73.4216 66.6117 73.1968 66.4626 73.0028C66.3136 72.8089 66.1232 72.6507 65.9053 72.5398C65.4632 72.2975 64.9211 72.388 64.3855 72.3718H57.5445H51.9621C51.6465 72.3519 51.3297 72.3737 51.0198 72.4364C50.7197 72.5249 50.4517 72.6989 50.2486 72.9372C50.1466 73.0554 50.0628 73.1882 50.0001 73.3313C49.9421 73.4735 49.8937 73.6544 49.8388 73.7933L49.5161 74.7367C49.301 75.3699 49.0859 76.0074 48.8707 76.6493C48.4405 77.9415 47.9995 79.2424 47.5477 80.552C46.8669 82.5679 46.1957 84.5451 45.5535 86.4351L45.5374 86.49H45.4761H40.8423H38.619H37.8059C37.7289 86.4948 37.6545 86.5193 37.5897 86.5611C37.4534 86.6526 37.3404 86.7747 37.2597 86.9178C37.1791 87.0608 37.1329 87.2208 37.125 87.3849L37.0476 87.3074C40.7326 87.3074 44.1466 87.2912 47.1799 87.3074L55.0921 87.3623L60.2551 87.4107L61.6297 87.4269H61.9879L62.1137 87.485Z" fill="#263238"></path><path d="M51.5848 72.3477C51.581 72.4009 51.569 72.4532 51.5493 72.5027L51.4073 72.9453C51.2686 73.3492 51.0846 73.8952 50.8588 74.5607C50.3876 75.9208 49.7261 77.7914 48.9872 79.8558C48.2482 81.9202 47.5706 83.7843 47.0704 85.1348L46.4702 86.7275L46.3024 87.1572C46.2833 87.2078 46.2596 87.2564 46.2314 87.3026C46.2351 87.248 46.2482 87.1944 46.2702 87.1443L46.4089 86.7049C46.5477 86.2978 46.7316 85.7551 46.9575 85.0896C47.4286 83.7327 48.0901 81.8588 48.8291 79.7944C49.568 77.73 50.2456 75.8659 50.7458 74.5187L51.346 72.926C51.4138 72.7547 51.4686 72.6029 51.517 72.4963C51.5332 72.4441 51.556 72.3941 51.5848 72.3477Z" fill="#263238"></path><path d="M34.185 89.7635H77.5023C77.813 89.7635 78.1109 89.6399 78.3306 89.42C78.5502 89.2 78.6736 88.9017 78.6736 88.5907C78.6728 88.2799 78.5491 87.9821 78.3296 87.7624C78.1101 87.5426 77.8127 87.4188 77.5023 87.418H34.185C33.8744 87.418 33.5764 87.5415 33.3568 87.7615C33.1371 87.9814 33.0137 88.2797 33.0137 88.5907C33.0133 88.7448 33.0433 88.8975 33.102 89.04C33.1607 89.1825 33.247 89.3119 33.3558 89.4209C33.4647 89.5299 33.594 89.6163 33.7363 89.6751C33.8786 89.7338 34.0311 89.7639 34.185 89.7635Z" fill="#455A64"></path><path d="M54.3376 137.797H58.1162L58.1162 89.3266H54.3376L54.3376 137.797Z" fill="#455A64"></path><path d="M68.9776 137.798H43.2725C43.4403 137.798 54.3406 134.906 54.3406 134.906H58.1192L68.9776 137.798Z" fill="#455A64"></path><path d="M34.0723 89.668C34.0723 89.626 43.8658 89.5938 55.9471 89.5938C68.0284 89.5938 77.8252 89.626 77.8252 89.668C77.8252 89.7099 68.0317 89.7454 55.9471 89.7454C43.8625 89.7454 34.0723 89.7099 34.0723 89.668Z" fill="#263238"></path></svg>